<svg xmlns="http://www.w3.org/2000/svg" xmlns:xlink="http://www.w3.org/1999/xlink" width="653" height="718" viewBox="0 0 653 718"><defs><style>.a{fill:#e0eec4;stroke:#74a112;}.b{fill:rgba(47,178,104,0.19);}.c{clip-path:url(#a);}.d{fill:url(#b);}.e{fill:#2fb268;}.f{fill:url(#c);}.g{fill:#e0e0e0;}.h{fill:url(#d);}.i,.k{fill:#fff;}.j{fill:url(#e);}.k{stroke:#fff;stroke-miterlimit:10;stroke-width:0.364px;}.l{fill:url(#f);}.m{fill:#69f0ae;}.n{opacity:0.2;}</style><clipPath id="a"><rect class="a" width="311" height="353" rx="16" transform="translate(1390 1912)"/></clipPath><linearGradient id="b" x1="0.825" y1="1.045" x2="0.825" y2="0.098" gradientUnits="objectBoundingBox"><stop offset="0" stop-color="gray" stop-opacity="0.251"/><stop offset="0.54" stop-color="gray" stop-opacity="0.122"/><stop offset="1" stop-color="gray" stop-opacity="0.102"/></linearGradient><linearGradient id="c" x1="0.776" y1="1.061" x2="0.776" y2="0.169" xlink:href="#b"/><linearGradient id="d" x1="0.5" y1="1" x2="0.5" y2="0" xlink:href="#b"/><linearGradient id="e" x1="-0.381" y1="1.434" x2="-0.34" y2="2.438" gradientUnits="objectBoundingBox"><stop offset="0" stop-opacity="0.122"/><stop offset="0.55" stop-opacity="0.09"/><stop offset="1" stop-opacity="0.02"/></linearGradient><linearGradient id="f" x1="0.5" y1="1" x2="0.5" y2="0" xlink:href="#b"/></defs><g transform="translate(-1218 -775)"><rect class="b" width="359" height="424" rx="90" transform="translate(1365 922)"/><g class="c" transform="translate(-1 -954)"><g transform="translate(1390.011 1948.223)"><path class="d" d="M291.328,280.554l-178.4-14.629L132.593,22.692l178.4,14.629Z"/><path class="e" d="M289.19,277.082,115.6,262.843,134.732,26.164,308.322,40.4Z"/><path class="f" d="M299.45,239.655,123.677,273.664,77.972,34.009,253.745,0Z"/><path class="g" d="M296.466,236.886,125.43,269.981,80.956,36.778,251.992,3.687Z"/><rect class="h" width="178.986" height="244.039" transform="translate(99.218 18.101)"/><rect class="i" width="174.166" height="237.462" transform="translate(101.63 21.388)"/><path class="j" d="M223.442,86.043A28.57,28.57,0,1,0,261.356,58.49l.087,7.411a9.739,9.739,0,0,1-9.557,9.885h0a9.736,9.736,0,0,1-9.79-9.626l-.087-7.411a28.784,28.784,0,0,0-18.568,27.294Z" transform="translate(-63.121 -23.683)"/><path class="e" d="M280.587,83.015A28.57,28.57,0,1,0,242.344,110.1v-7.411a9.736,9.736,0,0,1,9.674-9.743h0a9.736,9.736,0,0,1,9.674,9.743V110.1a28.784,28.784,0,0,0,18.9-27.086Z" transform="translate(-63.121 -23.683)"/><ellipse class="k" cx="10.982" cy="11.062" rx="10.982" ry="11.062" transform="translate(177.933 44.313)"/><path class="k" d="M252.018,92.944h0a9.736,9.736,0,0,0-9.674,9.743V110.1a28.482,28.482,0,0,0,19.347,0v-7.415A9.736,9.736,0,0,0,252.018,92.944Z" transform="translate(-63.121 -23.683)"/><path class="k" d="M240.96,78.446a10.8,10.8,0,0,1-1.17-5.575,7.462,7.462,0,0,1,2.434-5.046,10.1,10.1,0,0,1,5.863-2.026,53.839,53.839,0,0,0,6.281-.477,13.117,13.117,0,0,0,8.38-5.728,17.988,17.988,0,0,1-.047,4.868,5.956,5.956,0,0,1-2.5,4.008c1.669-.776,1.487,1.046,1.126,2.135.827,1.006,2.835,1.173,2.937,2.474a8.254,8.254,0,0,1-.419,3.844c-.5,1.2.036,3.316-1.253,3.407" transform="translate(-63.121 -23.683)"/><path class="i" d="M260.81,68.229s7.651.674,2.208,12.129" transform="translate(-63.121 -23.683)"/><rect class="l" width="23.658" height="23.829" transform="translate(117.946 209.141)"/><rect class="e" width="19.577" height="19.719" transform="translate(119.983 211.196)"/><rect class="m" width="57.102" height="4.11" transform="translate(160.364 110.538)"/><rect class="g" width="96.259" height="4.11" transform="translate(160.364 116.292)"/><rect class="g" width="96.259" height="4.11" transform="translate(160.364 122.041)"/><rect class="m" width="57.102" height="4.11" transform="translate(160.364 161.894)"/><rect class="g" width="96.259" height="4.11" transform="translate(160.364 167.644)"/><rect class="g" width="96.259" height="4.11" transform="translate(160.364 173.397)"/><rect class="e" width="57.102" height="4.11" transform="translate(160.364 213.247)"/><rect class="g" width="96.259" height="4.11" transform="translate(160.364 219)"/><rect class="g" width="96.259" height="4.11" transform="translate(160.364 224.753)"/><path class="l" d="M147.732,207.563H134.4a35.952,35.952,0,1,0-.608,9.765h13.922a4.882,4.882,0,1,0,0-9.765Z" transform="translate(-63.121 -23.683)"/><path class="i" d="M99.487,176.95a33.278,33.278,0,1,0,33.04,33.277A33.159,33.159,0,0,0,99.487,176.95Zm0,61.627a28.348,28.348,0,1,1,28.143-28.343,28.245,28.245,0,0,1-28.143,28.343Z" transform="translate(-63.121 -23.683)"/><path class="i" d="M66.553,184.08H82.122a4.008,4.008,0,0,1,4.008,4.008V189.1a4.008,4.008,0,0,1-4.008,4.008H66.553Z"/><ellipse class="e" cx="28.551" cy="28.759" rx="28.551" ry="28.759" transform="translate(7.819 157.785)"/><path class="n" d="M102.679,199.5c-2.226,1.166-3.3,4.372-1.822,6.42a13.929,13.929,0,0,0,2.212,2.022,3.146,3.146,0,0,1,1.261,2.605,3.644,3.644,0,0,1-.82,1.643c-1.5,1.982-3.345,3.866-3.829,6.307a8.46,8.46,0,0,0,1.669,6.373,5.592,5.592,0,0,0,2.944,2.35,4.888,4.888,0,0,0,4.008-.951,14,14,0,0,0,2.871-3.119l1.986-2.638a4.729,4.729,0,0,0,1.151-2.408c.069-1.552-1.385-2.714-1.88-4.183-.918-2.725,1.614-5.542,1.275-8.4C113.184,201.2,106.516,197.481,102.679,199.5Z" transform="translate(-63.121 -23.683)"/></g></g></g></svg>