<svg xmlns="http://www.w3.org/2000/svg" xmlns:xlink="http://www.w3.org/1999/xlink" width="653" height="718" viewBox="0 0 653 718"><defs><style>.a{fill:#e0eec4;stroke:#74a112;}.b{fill:rgba(47,178,104,0.19);}.c{clip-path:url(#a);}.d,.g{fill:#3f3d56;}.e{fill:#2fb268;}.f{fill:#ccc;}.g{fill-rule:evenodd;}.h{fill:#ffb8b8;}.i{fill:#2f2e41;}.j{fill:#fff;}</style><clipPath id="a"><rect class="a" width="311" height="353" rx="16" transform="translate(220 2608)"/></clipPath></defs><g transform="translate(-49 -1300)"><rect class="b" width="359" height="424" rx="90" transform="translate(196 1447)"/><g class="c" transform="translate(0 -1125)"><g transform="translate(220 2611.088)"><path class="d" d="M377.952,326.32a1.653,1.653,0,0,1,.865,2.172l-2.245,5.213.254.13-1.53,3.539-.245-.136-8.041,18.677a2.866,2.866,0,0,1-3.416,1.624l-12.5-3.552a2.17,2.17,0,0,1-1.361-3.029l12.6-26.132a2.684,2.684,0,0,1,3.024-1.449l12.3,2.849h0A1.647,1.647,0,0,1,377.952,326.32Z" transform="translate(-247.804 -129.067)"/><path class="e" d="M367.546,325.39l6.467,1.5a.543.543,0,0,0,.6-.273h0a.615.615,0,0,1,.682-.31l1.362.315a1.3,1.3,0,0,1,.9,1.785l-11.638,27.087a1.489,1.489,0,0,1-1.8.838l-12.415-3.746a1.15,1.15,0,0,1-.707-1.593l12.3-25.965a1.855,1.855,0,0,1,2.1-1.013l1.436.333A.929.929,0,0,0,367.546,325.39Z" transform="translate(-247.804 -129.067)"/><path class="f" d="M417.955,185.529A28.231,28.231,0,1,1,446.187,157.3,28.231,28.231,0,0,1,417.955,185.529Zm0-55.118A26.887,26.887,0,1,0,444.842,157.3,26.887,26.887,0,0,0,417.955,130.411Z" transform="translate(-247.804 -129.067)"/><path class="f" d="M526.848,211.744a28.231,28.231,0,1,1,28.231-28.231,28.231,28.231,0,0,1-28.231,28.231Zm0-55.118a26.887,26.887,0,1,0,26.887,26.887,26.887,26.887,0,0,0-26.887-26.887Z" transform="translate(-247.804 -129.067)"/><path class="f" d="M476.435,301.143a28.231,28.231,0,1,1,28.231-28.231A28.231,28.231,0,0,1,476.435,301.143Zm0-55.118a26.887,26.887,0,1,0,26.887,26.887,26.887,26.887,0,0,0-26.887-26.887Z" transform="translate(-247.804 -129.067)"/><path class="d" d="M542.98,175.781l3.361-.672a31.517,31.517,0,0,1-3.361,3.361h0a13.527,13.527,0,0,0,0,2.017c-6.453,27.694-30.248,15.46-30.248,15.46,8.671.2,9.41-3.361,9.41-3.361-5.041-.739-6.05-4.033-6.05-4.033a2.077,2.077,0,0,0,2.689-.672,6.105,6.105,0,0,1-4.705-6.722,6.991,6.991,0,0,0,3.294,1.277c-.605-.739-5.714-6.856-2.622-10.015,0,0,3.764,6.722,13.645,7.327l.672-.134a5.275,5.275,0,0,1-.134-1.479,7.058,7.058,0,0,1,7.058-7.058c4.705,0,5.713,2.689,5.713,2.689l3.361-2.017C545,171.748,544.66,175.109,542.98,175.781Z" transform="translate(-247.804 -129.067)"/><path class="d" d="M488.984,257.451l-24.913,0a2.435,2.435,0,0,0-2.55,2.325l0,24.968a2.626,2.626,0,0,0,2.551,2.558l24.906,0a2.493,2.493,0,0,0,2.394-2.558l0-24.968a2.288,2.288,0,0,0-2.388-2.325Zm-18.208,24.884H466.5v-13.3h4.276Zm-1.992-15.318h-.031a2.323,2.323,0,1,1,.031,0Zm17.621,15.316h-4.276v-7.27c0-1.742-.623-2.932-2.17-2.932a2.338,2.338,0,0,0-2.193,1.579,2.881,2.881,0,0,0-.148,1.05v7.573h-4.276v-13.3h4.276v1.85a4.33,4.33,0,0,1,3.856-2.162c2.807,0,4.931,1.85,4.931,5.839Z" transform="translate(-247.804 -129.067)"/><path class="g" d="M436.411,157.409a18.455,18.455,0,1,0-21.339,18.232v-12.9h-4.687v-5.336h4.687v-4.067c0-4.625,2.756-7.181,6.971-7.181a28.362,28.362,0,0,1,4.132.361v4.542h-2.328a2.669,2.669,0,0,0-3.008,2.884v3.462h5.118l-.817,5.336h-4.3v12.9a18.46,18.46,0,0,0,15.573-18.234Z" transform="translate(-247.804 -129.067)"/><path class="h" d="M88.953,338.412h7.684l3.655-29.64H88.951Z"/><path class="i" d="M335.111,465.283h24.151v9.331h-14.82a9.331,9.331,0,0,1-9.331-9.331Z" transform="translate(446.611 810.798) rotate(179.995)"/><path class="h" d="M47.533,338.412h7.685l3.654-29.64H47.53Z"/><path class="i" d="M293.691,465.283h24.151v9.331h-14.82a9.331,9.331,0,0,1-9.331-9.331h0Z" transform="translate(363.771 810.802) rotate(179.995)"/><circle class="h" cx="16.509" cy="16.509" r="16.509" transform="translate(53.529 94.684)"/><path class="h" d="M374.293,347.928a6.3,6.3,0,0,0-8.128-5.229l-9.226-11.06-8.089,3.968L362.1,351.042a6.337,6.337,0,0,0,12.194-3.115Z" transform="translate(-247.804 -129.067)"/><path class="h" d="M294.887,359.113a6.3,6.3,0,0,0-4.054-8.773l-1.852-14.284-8.955-.991,2.9,20.135a6.337,6.337,0,0,0,11.962,3.914Z" transform="translate(-247.804 -129.067)"/><path class="f" d="M282.355,350.38a3.025,3.025,0,0,1-2.992-2.581l-4.408-29.682a21.335,21.335,0,0,1,1.3-11.059l13.532-33.77a8.458,8.458,0,0,1,14.525-2.051h0a8.442,8.442,0,0,1,1.048,8.65l-6.379,14.269a97.376,97.376,0,0,0-7.813,51.064,3.024,3.024,0,0,1-2.116,3.243l-5.807,1.783a3.029,3.029,0,0,1-.889.134Z" transform="translate(-247.804 -129.067)"/><path class="i" d="M313.822,256.769a17.614,17.614,0,1,1,3.3-34.836c3.631-2.2,7.852-3.688,12.082-3.31s8.414,2.889,10,6.831-.118,9.138-4.051,10.74c-2.522,1.027-5.37.529-8.061.115s-5.627-.684-7.97.7-3.4,5.112-1.3,6.848a7.218,7.218,0,0,1,2.073,7.945C318.841,254.532,315.963,256.723,313.822,256.769Z" transform="translate(-247.804 -129.067)"/><path class="i" d="M293.1,461.508a3.025,3.025,0,0,1-3.025-3.1l2.937-111.457.32-.007,48.549-1.058,8.382,108.379a3.034,3.034,0,0,1-2,3.067l-.092.019-9.528.582a3.024,3.024,0,0,1-3.919-2.207l-15.532-69.5a1.008,1.008,0,0,0-1.98.062l-11.475,72.184a3.039,3.039,0,0,1-2.833,2.546l-9.647.492Q293.176,461.508,293.1,461.508Z" transform="translate(-247.804 -129.067)"/><path class="f" d="M307.388,356.171c-6.041,0-11.317-.913-14.231-3.517a7.584,7.584,0,0,1-2.406-6.764c1.035-10.582-.759-33.775-2.446-51.369a31.253,31.253,0,0,1,7.206-23.039,29.763,29.763,0,0,1,20.749-10.6c5.558-.4,18.573-1.319,22.618,9.043,6.077,15.565,3.105,22.7.231,29.606-2.442,5.864-4.967,11.929-1.872,23.317a170.127,170.127,0,0,0,6.2,18.55c1.676,4.3,2.518,6.456,1.741,7.865-.613,1.112-2.141,1.6-4.748,2.1-.851.165-1.976.4-3.316.689C330.305,353.5,317.726,356.171,307.388,356.171Z" transform="translate(-247.804 -129.067)"/><path class="f" d="M356.989,346.416h-.07a3.022,3.022,0,0,1-2.269-1.105l-17.113-20.853a32.552,32.552,0,0,1-6.972-15.49L325.3,276.036a8.458,8.458,0,1,1,16.752-2.344l2.093,17.467a90.248,90.248,0,0,0,18.111,44.319l1.2,1.553a3.024,3.024,0,0,1-.148,3.87l-4.065,4.514A3.022,3.022,0,0,1,356.989,346.416Z" transform="translate(-247.804 -129.067)"/><ellipse class="d" cx="11.256" cy="11.379" rx="11.256" ry="11.379" transform="translate(179.988 40.312)"/><path class="d" d="M441.3,186.827h-2.292V178.1a7.886,7.886,0,0,1-2.961,1.756v-2.1a6.613,6.613,0,0,0,1.949-1.125,4.268,4.268,0,0,0,1.444-1.934h1.86Z" transform="translate(-247.804 -129.067)"/><ellipse class="e" cx="11.256" cy="11.379" rx="11.256" ry="11.379" transform="translate(179.988 40.312)"/><path class="j" d="M441.3,186.827h-2.292V178.1a7.886,7.886,0,0,1-2.961,1.756v-2.1a6.613,6.613,0,0,0,1.949-1.125,4.268,4.268,0,0,0,1.444-1.934h1.86Z" transform="translate(-247.804 -129.067)"/><circle class="d" cx="11.379" cy="11.379" r="11.379" transform="translate(288.241 68.775)"/><path class="d" d="M546.073,211.081a2.664,2.664,0,0,0,.488,1.715,1.415,1.415,0,0,0,1.115.6,1.249,1.249,0,0,0,1.007-.5,2.581,2.581,0,0,0,.4-1.622,2.7,2.7,0,0,0-.434-1.7,1.358,1.358,0,0,0-2.147-.025,2.308,2.308,0,0,0-.433,1.521Zm4.936-4.97-2.108.244a1.638,1.638,0,0,0-.4-1.005,1.144,1.144,0,0,0-.844-.324,1.409,1.409,0,0,0-1.166.648,5.668,5.668,0,0,0-.6,2.7,2.5,2.5,0,0,1,2.023-1.007,3.028,3.028,0,0,1,2.336,1.087,4.046,4.046,0,0,1,.973,2.805,4.132,4.132,0,0,1-1.023,2.927,3.614,3.614,0,0,1-5.455-.3,7.441,7.441,0,0,1-1.108-4.585q0-3.268,1.155-4.711a3.662,3.662,0,0,1,3-1.443,3.1,3.1,0,0,1,2.142.758,3.613,3.613,0,0,1,1.081,2.2Z" transform="translate(-247.804 -129.067)"/><circle class="e" cx="11.379" cy="11.379" r="11.379" transform="translate(288.241 68.775)"/><path class="j" d="M546.073,211.081a2.664,2.664,0,0,0,.488,1.715,1.415,1.415,0,0,0,1.115.6,1.249,1.249,0,0,0,1.007-.5,2.581,2.581,0,0,0,.4-1.622,2.7,2.7,0,0,0-.434-1.7,1.358,1.358,0,0,0-2.147-.025,2.308,2.308,0,0,0-.433,1.521Zm4.936-4.97-2.108.244a1.638,1.638,0,0,0-.4-1.005,1.144,1.144,0,0,0-.844-.324,1.409,1.409,0,0,0-1.166.648,5.668,5.668,0,0,0-.6,2.7,2.5,2.5,0,0,1,2.023-1.007,3.028,3.028,0,0,1,2.336,1.087,4.046,4.046,0,0,1,.973,2.805,4.132,4.132,0,0,1-1.023,2.927,3.614,3.614,0,0,1-5.455-.3,7.441,7.441,0,0,1-1.108-4.585q0-3.268,1.155-4.711a3.662,3.662,0,0,1,3-1.443,3.1,3.1,0,0,1,2.142.758,3.613,3.613,0,0,1,1.081,2.2Z" transform="translate(-247.804 -129.067)"/><circle class="d" cx="11.379" cy="11.379" r="11.379" transform="translate(240.353 156.693)"/><path class="d" d="M498.128,294.3a1.446,1.446,0,0,0,.374,1.061,1.329,1.329,0,0,0,.995.381,1.346,1.346,0,0,0,1.007-.385,1.455,1.455,0,0,0,.378-1.065,1.411,1.411,0,0,0-.373-1.025,1.315,1.315,0,0,0-.988-.385,1.35,1.35,0,0,0-1.015.389A1.416,1.416,0,0,0,498.128,294.3Zm-.2,5.089a2.13,2.13,0,0,0,.468,1.466,1.5,1.5,0,0,0,1.168.527,1.448,1.448,0,0,0,1.133-.507,2.138,2.138,0,0,0,.448-1.462,1.922,1.922,0,0,0-.456-1.34,1.487,1.487,0,0,0-1.157-.507,1.368,1.368,0,0,0-1.208.576,2.154,2.154,0,0,0-.4,1.248Zm-.251-2.8a2.593,2.593,0,0,1-1.248-1.025,2.73,2.73,0,0,1-.389-1.429,2.918,2.918,0,0,1,.9-2.2,4.207,4.207,0,0,1,5.115,0,2.905,2.905,0,0,1,.909,2.2,2.605,2.605,0,0,1-1.59,2.455,3.012,3.012,0,0,1,1.96,2.917,3.517,3.517,0,0,1-3.73,3.7,4.022,4.022,0,0,1-2.621-.85,3.362,3.362,0,0,1-1.235-2.756,3.48,3.48,0,0,1,.464-1.769,3.011,3.011,0,0,1,1.464-1.244Z" transform="translate(-247.804 -129.067)"/><circle class="e" cx="11.379" cy="11.379" r="11.379" transform="translate(240.353 156.693)"/><path class="j" d="M498.128,294.3a1.446,1.446,0,0,0,.374,1.061,1.329,1.329,0,0,0,.995.381,1.346,1.346,0,0,0,1.007-.385,1.455,1.455,0,0,0,.378-1.065,1.411,1.411,0,0,0-.373-1.025,1.315,1.315,0,0,0-.988-.385,1.35,1.35,0,0,0-1.015.389A1.416,1.416,0,0,0,498.128,294.3Zm-.2,5.089a2.13,2.13,0,0,0,.468,1.466,1.5,1.5,0,0,0,1.168.527,1.448,1.448,0,0,0,1.133-.507,2.138,2.138,0,0,0,.448-1.462,1.922,1.922,0,0,0-.456-1.34,1.487,1.487,0,0,0-1.157-.507,1.368,1.368,0,0,0-1.208.576,2.154,2.154,0,0,0-.4,1.248Zm-.251-2.8a2.593,2.593,0,0,1-1.248-1.025,2.73,2.73,0,0,1-.389-1.429,2.918,2.918,0,0,1,.9-2.2,4.207,4.207,0,0,1,5.115,0,2.905,2.905,0,0,1,.909,2.2,2.605,2.605,0,0,1-1.59,2.455,3.012,3.012,0,0,1,1.96,2.917,3.517,3.517,0,0,1-3.73,3.7,4.022,4.022,0,0,1-2.621-.85,3.362,3.362,0,0,1-1.235-2.756,3.48,3.48,0,0,1,.464-1.769,3.011,3.011,0,0,1,1.464-1.244Z" transform="translate(-247.804 -129.067)"/><path class="f" d="M403.748,475.889H248.476a.672.672,0,1,1,0-1.344H403.748a.672.672,0,1,1,0,1.344Z" transform="translate(-247.804 -129.067)"/></g></g></g></svg>