<svg xmlns="http://www.w3.org/2000/svg" xmlns:xlink="http://www.w3.org/1999/xlink" width="653" height="718" viewBox="0 0 653 718"><defs><style>.a{fill:#e0eec4;stroke:#74a112;}.b{fill:rgba(47,178,104,0.19);}.c{clip-path:url(#a);}.d{fill:#3f3d56;}.e{fill:#ccc;}.f{fill:#ffb8b8;}.g{fill:#2fb268;}.h{fill:#2f2e41;}.i{fill:#f2f2f2;}</style><clipPath id="a"><rect class="a" width="326" height="373" rx="16" transform="translate(1389.721 2608)"/></clipPath></defs><g transform="translate(-1219 -1300)"><rect class="b" width="359" height="424" rx="90" transform="translate(1366 1447)"/><g class="c" transform="translate(-14.721 -1125)"><g transform="translate(1390 2673.258)"><path class="d" d="M216.807,220.185,149.38,234.518a7.519,7.519,0,0,1-8.9-5.848l-11.57-55.36a7.581,7.581,0,0,1,5.8-8.972L202.14,150a7.519,7.519,0,0,1,8.9,5.849l11.57,55.36A7.581,7.581,0,0,1,216.807,220.185ZM134.895,165.21a6.689,6.689,0,0,0-5.117,7.917l11.57,55.36a6.634,6.634,0,0,0,7.85,5.16l67.427-14.334a6.689,6.689,0,0,0,5.117-7.917l-11.57-55.36a6.634,6.634,0,0,0-7.85-5.16Z" transform="translate(-96.078 -70.867)"/><path class="e" d="M196.427,167.405,162.4,174.639a1.205,1.205,0,0,1-1.426-.83,1.181,1.181,0,0,1,.132-.916,1.162,1.162,0,0,1,.75-.533L196.494,165c1.353.769.925,2.2-.067,2.409Z" transform="translate(-94.555 -70.014)"/><path class="e" d="M197.628,173.1,163.6,180.338a1.205,1.205,0,0,1-1.426-.83,1.18,1.18,0,0,1,.132-.916,1.162,1.162,0,0,1,.751-.533L197.7,170.7c1.353.769.925,2.2-.067,2.409Z" transform="translate(-94.498 -69.694)"/><path class="e" d="M157.85,185.347l-10.385,2.208a1.309,1.309,0,0,1-1.549-1.018l-2.583-12.36a1.319,1.319,0,0,1,1.009-1.562l10.385-2.208a1.309,1.309,0,0,1,1.549,1.018l2.583,12.36a1.319,1.319,0,0,1-1.009,1.562Z" transform="translate(-95.389 -69.711)"/><path class="e" d="M200.8,184.794l-51.935,11.04a1.205,1.205,0,0,1-1.426-.83,1.18,1.18,0,0,1,.132-.916,1.162,1.162,0,0,1,.75-.533l52.546-11.17c1.353.769.925,2.2-.067,2.409Z" transform="translate(-95.195 -69.036)"/><path class="e" d="M202,190.495l-51.935,11.04a1.205,1.205,0,0,1-1.426-.83,1.181,1.181,0,0,1,.132-.916,1.162,1.162,0,0,1,.75-.533l52.546-11.17c1.353.769.925,2.2-.067,2.409Z" transform="translate(-95.138 -68.715)"/><path class="e" d="M203.205,196.192l-51.935,11.04a1.205,1.205,0,0,1-1.426-.83,1.18,1.18,0,0,1,.132-.916,1.162,1.162,0,0,1,.75-.533l52.546-11.17c1.353.769.925,2.2-.067,2.409Z" transform="translate(-95.082 -68.395)"/><path class="e" d="M204.407,201.892l-51.935,11.04a1.205,1.205,0,0,1-1.426-.83,1.18,1.18,0,0,1,.132-.916,1.162,1.162,0,0,1,.75-.533l52.546-11.17c1.353.769.925,2.2-.067,2.409Z" transform="translate(-95.025 -68.074)"/><path class="e" d="M205.607,207.59l-51.935,11.04a1.205,1.205,0,0,1-1.426-.83,1.181,1.181,0,0,1,.132-.916,1.162,1.162,0,0,1,.75-.533l52.546-11.17c1.353.769.925,2.2-.067,2.409Z" transform="translate(-94.968 -67.754)"/><path class="f" d="M212.54,181.5a4.715,4.715,0,0,0-.3.673l-21.262,5.321-3.7-3.859-6.5,4.868,5.89,7.473a3.515,3.515,0,0,0,4.1,1.082l23.071-9.508a4.6,4.6,0,0,0,5.269.159,4.687,4.687,0,0,0-1.833-8.55A4.625,4.625,0,0,0,212.54,181.5Z" transform="translate(-93.616 -69.221)"/><path class="f" d="M142.091,228.84a4.76,4.76,0,0,0,2.975-2.72,4.822,4.822,0,0,0-.158-4.046L159.54,181.06l-10.161-1.816L138.192,220.13a4.833,4.833,0,0,0-1.886,6.1,4.758,4.758,0,0,0,5.786,2.608Z" transform="translate(-95.741 -69.213)"/><path class="g" d="M157.212,188.929l-10.033-3.883a2.137,2.137,0,0,1-1.24-1.277,2.162,2.162,0,0,1,.149-1.781l5.263-9.411A5.894,5.894,0,0,1,159,169.172a5.975,5.975,0,0,1,3.377,7.709l-2.322,10.512a2.144,2.144,0,0,1-1.071,1.424,2.112,2.112,0,0,1-1.768.113Z" transform="translate(-95.27 -69.802)"/><path class="f" d="M80.764,225.149h5.415l2.577-21.066H80.763Z" transform="translate(3.823 11.481)"/><path class="h" d="M177,297.412h10.665a6.826,6.826,0,0,1,6.8,6.854v.223H177Z" transform="translate(-93.794 -62.565)"/><path class="f" d="M51.662,225.149h5.415l2.577-21.066H51.662Z" transform="translate(2.445 11.481)"/><path class="h" d="M147.9,297.412h10.665a6.826,6.826,0,0,1,6.8,6.854v.223H147.9Z" transform="translate(-95.172 -62.565)"/><path class="h" d="M155.037,294.988h-6.853a1.98,1.98,0,0,1-1.438-.621,2.015,2.015,0,0,1-.547-1.479l3.255-70.534.205-.006,33.093-.87,6.476,70.575a2.016,2.016,0,0,1-.456,1.478,1.982,1.982,0,0,1-1.364.71l-7.7.621a1.991,1.991,0,0,1-2.106-1.6l-9.846-50.24a.644.644,0,0,0-.649-.534h0a.644.644,0,0,0-.648.539l-9.472,50.34a2,2,0,0,1-1.951,1.617Z" transform="translate(-95.252 -66.837)"/><ellipse class="f" cx="10.849" cy="10.942" rx="10.849" ry="10.942" transform="translate(61.489 70.726)"/><path class="g" d="M163.853,233.738a21.3,21.3,0,0,1-14.885-5.424,2.037,2.037,0,0,1-.649-1.715c.471-4.27,2.757-26.32,1.47-41.048a17.909,17.909,0,0,1,5.723-14.837,17.391,17.391,0,0,1,15-4.381h0c.135.024.27.05.405.076a17.7,17.7,0,0,1,14.038,18.858c-1,13.213-1.89,31.086-.487,41.193a2.006,2.006,0,0,1-1.067,2.066C180.212,230.152,172.216,233.738,163.853,233.738Z" transform="translate(-95.152 -69.955)"/><path class="g" d="M176.779,189.654a2.146,2.146,0,0,1-.932-1.52l-1.322-10.687a5.966,5.966,0,0,1,4.087-7.351,5.9,5.9,0,0,1,7.289,4.122l4.354,9.872a2.162,2.162,0,0,1-.02,1.787,2.133,2.133,0,0,1-1.354,1.152l-10.353,2.905a2.11,2.11,0,0,1-1.75-.281Z" transform="translate(-93.922 -69.74)"/><path class="h" d="M163.483,163.942a7.715,7.715,0,0,1-3-.548c-.42-.163-.856-.3-1.276-.461a10.44,10.44,0,0,1-6.232-9.427,13.618,13.618,0,0,1,5.022-10.452,19.338,19.338,0,0,1,10.968-4.18c4.266-.328,9.069.763,11.452,4.346a3.8,3.8,0,0,1,.7,3.262,2.089,2.089,0,0,1-.583.9c-1.064.955-2.126.237-3.211.173a3.554,3.554,0,0,0-3.313,2.557,7.767,7.767,0,0,0,.119,4.451,11.2,11.2,0,0,1,.556,2.707,2.73,2.73,0,0,1-1.118,2.4,3.058,3.058,0,0,1-3.089-.328,21.432,21.432,0,0,0-2.746-1.773,2.414,2.414,0,0,0-2.947.6,3.306,3.306,0,0,0-.373,1.085c-.526,2.415-.4,2.273-.93,4.688Z" transform="translate(-94.932 -71.487)"/><path class="d" d="M309.943,152.279H241.034a7.55,7.55,0,0,1-7.509-7.573V88.129a7.55,7.55,0,0,1,7.509-7.573h68.908a7.55,7.55,0,0,1,7.509,7.573v56.576A7.55,7.55,0,0,1,309.943,152.279ZM241.034,81.447a6.662,6.662,0,0,0-6.626,6.682v56.576a6.662,6.662,0,0,0,6.626,6.682h68.908a6.662,6.662,0,0,0,6.626-6.682V88.129a6.662,6.662,0,0,0-6.626-6.682Z" transform="translate(-91.119 -74.764)"/><path class="e" d="M300.638,96.766H265.861a1.21,1.21,0,0,1-1.226-1.109,1.178,1.178,0,0,1,.317-.869,1.157,1.157,0,0,1,.843-.366h35.4c1.166,1.034.456,2.344-.559,2.344Z" transform="translate(-89.646 -73.984)"/><path class="e" d="M300.638,102.59H265.861a1.21,1.21,0,0,1-1.226-1.109,1.178,1.178,0,0,1,.317-.869,1.157,1.157,0,0,1,.843-.366h35.4c1.166,1.034.456,2.344-.559,2.344Z" transform="translate(-89.646 -73.657)"/><path class="d" d="M259.166,106.595H248.552a1.314,1.314,0,0,1-1.307-1.318V92.645a1.314,1.314,0,0,1,1.307-1.318h10.614a1.314,1.314,0,0,1,1.307,1.318v12.632a1.314,1.314,0,0,1-1.307,1.318Z" transform="translate(-90.469 -74.159)"/><path class="e" d="M301.368,114.516H248.292a1.21,1.21,0,0,1-1.226-1.109,1.178,1.178,0,0,1,.317-.869,1.157,1.157,0,0,1,.843-.366h53.7c1.166,1.034.456,2.344-.559,2.344Z" transform="translate(-90.478 -72.986)"/><path class="e" d="M301.368,120.342H248.292a1.21,1.21,0,0,1-1.226-1.109,1.178,1.178,0,0,1,.317-.869,1.157,1.157,0,0,1,.843-.366h53.7c1.166,1.034.456,2.344-.559,2.344Z" transform="translate(-90.478 -72.658)"/><path class="e" d="M301.368,126.164H248.292a1.21,1.21,0,0,1-1.226-1.109,1.178,1.178,0,0,1,.317-.869,1.157,1.157,0,0,1,.843-.366h53.7c1.166,1.034.456,2.344-.559,2.344Z" transform="translate(-90.478 -72.331)"/><path class="e" d="M301.368,131.99H248.292a1.21,1.21,0,0,1-1.226-1.109,1.178,1.178,0,0,1,.317-.869,1.157,1.157,0,0,1,.843-.366h53.7c1.166,1.034.456,2.344-.559,2.344Z" transform="translate(-90.478 -72.003)"/><path class="e" d="M301.368,137.813H248.292a1.21,1.21,0,0,1-1.226-1.109,1.178,1.178,0,0,1,.317-.869,1.157,1.157,0,0,1,.843-.366h53.7c1.166,1.034.456,2.344-.559,2.344Z" transform="translate(-90.478 -71.675)"/><path class="g" d="M294.006,75.073a2.221,2.221,0,0,1,2.209,2.227v7.128a2.221,2.221,0,0,1-2.209,2.227H255.135a2.221,2.221,0,0,1-2.209-2.227V77.3a2.221,2.221,0,0,1,2.209-2.227" transform="translate(-90.2 -75.073)"/><path class="d" d="M404.838,218.495H335.93a7.55,7.55,0,0,1-7.509-7.573V154.345a7.55,7.55,0,0,1,7.509-7.573h68.908a7.55,7.55,0,0,1,7.509,7.573v56.577a7.55,7.55,0,0,1-7.509,7.573ZM335.93,147.663a6.662,6.662,0,0,0-6.626,6.682v56.577a6.662,6.662,0,0,0,6.626,6.682h68.908a6.662,6.662,0,0,0,6.626-6.682V154.345a6.662,6.662,0,0,0-6.626-6.682Z" transform="translate(-86.627 -71.039)"/><path class="d" d="M395.533,162.982H360.756a1.21,1.21,0,0,1-1.226-1.109,1.178,1.178,0,0,1,.317-.869,1.157,1.157,0,0,1,.843-.366h35.4c1.166,1.034.456,2.344-.559,2.344Z" transform="translate(-85.155 -70.259)"/><path class="d" d="M395.533,168.806H360.756a1.21,1.21,0,0,1-1.226-1.109,1.178,1.178,0,0,1,.317-.869,1.157,1.157,0,0,1,.843-.366h35.4c1.166,1.034.456,2.344-.559,2.344Z" transform="translate(-85.155 -69.932)"/><path class="e" d="M354.061,172.811H343.448a1.314,1.314,0,0,1-1.307-1.318V158.861a1.314,1.314,0,0,1,1.307-1.318h10.614a1.314,1.314,0,0,1,1.307,1.318v12.632a1.314,1.314,0,0,1-1.307,1.318Z" transform="translate(-85.978 -70.433)"/><path class="d" d="M394.128,205H383.514a1.314,1.314,0,0,1-1.307-1.318V196.4a1.314,1.314,0,0,1,1.307-1.318h10.614a1.314,1.314,0,0,1,1.307,1.318v7.286A1.314,1.314,0,0,1,394.128,205Z" transform="translate(-84.081 -68.322)"/><path class="e" d="M396.264,180.732H343.187a1.21,1.21,0,0,1-1.226-1.109,1.178,1.178,0,0,1,.317-.869,1.157,1.157,0,0,1,.843-.366h53.7c1.166,1.034.456,2.344-.559,2.344Z" transform="translate(-85.986 -69.261)"/><path class="e" d="M396.264,186.558H343.187a1.21,1.21,0,0,1-1.226-1.109,1.178,1.178,0,0,1,.317-.869,1.157,1.157,0,0,1,.843-.366h53.7c1.166,1.034.456,2.344-.559,2.344Z" transform="translate(-85.986 -68.933)"/><path class="e" d="M396.264,192.38H343.187a1.21,1.21,0,0,1-1.226-1.109,1.178,1.178,0,0,1,.317-.869,1.157,1.157,0,0,1,.843-.366h53.7c1.166,1.034.456,2.344-.559,2.344Z" transform="translate(-85.986 -68.605)"/><path class="e" d="M368.435,198.206H343.187a1.21,1.21,0,0,1-1.226-1.109,1.177,1.177,0,0,1,.317-.869,1.157,1.157,0,0,1,.843-.366h25.872c1.166,1.034.456,2.344-.559,2.344Z" transform="translate(-85.986 -68.278)"/><path class="e" d="M368.435,204.029H343.187a1.21,1.21,0,0,1-1.226-1.109,1.177,1.177,0,0,1,.317-.869,1.157,1.157,0,0,1,.843-.366h25.872c1.166,1.034.456,2.344-.559,2.344Z" transform="translate(-85.986 -67.95)"/><path class="g" d="M388.9,152.871H350.03a2.221,2.221,0,0,1-2.209-2.227v-7.128a2.221,2.221,0,0,1,2.209-2.227H388.9a2.221,2.221,0,0,1,2.209,2.227v7.128a2.221,2.221,0,0,1-2.209,2.227Z" transform="translate(-85.709 -71.348)"/><path class="d" d="M266.292,304.557H98a.446.446,0,0,1,0-.891h168.3a.446.446,0,0,1,0,.891Z" transform="translate(-97.555 -62.213)"/><ellipse class="i" cx="2.857" cy="2.881" rx="2.857" ry="2.881" transform="translate(39.886 7.51)"/><ellipse class="i" cx="2.857" cy="2.881" rx="2.857" ry="2.881" transform="translate(39.886 18.991)"/><ellipse class="i" cx="2.857" cy="2.881" rx="2.857" ry="2.881" transform="translate(39.886 30.473)"/><ellipse class="i" cx="2.857" cy="2.881" rx="2.857" ry="2.881" transform="translate(39.886 41.954)"/><ellipse class="i" cx="2.857" cy="2.881" rx="2.857" ry="2.881" transform="translate(51.813 7.51)"/><ellipse class="i" cx="2.857" cy="2.881" rx="2.857" ry="2.881" transform="translate(51.813 18.991)"/><ellipse class="i" cx="2.857" cy="2.881" rx="2.857" ry="2.881" transform="translate(51.813 30.473)"/><ellipse class="i" cx="2.857" cy="2.881" rx="2.857" ry="2.881" transform="translate(51.813 41.954)"/><ellipse class="i" cx="2.857" cy="2.881" rx="2.857" ry="2.881" transform="translate(63.739 7.51)"/><ellipse class="i" cx="2.857" cy="2.881" rx="2.857" ry="2.881" transform="translate(63.739 18.991)"/><ellipse class="i" cx="2.857" cy="2.881" rx="2.857" ry="2.881" transform="translate(63.739 30.473)"/><ellipse class="i" cx="2.857" cy="2.881" rx="2.857" ry="2.881" transform="translate(63.739 41.954)"/><ellipse class="i" cx="2.857" cy="2.881" rx="2.857" ry="2.881" transform="translate(75.666 7.51)"/><ellipse class="i" cx="2.857" cy="2.881" rx="2.857" ry="2.881" transform="translate(75.666 18.991)"/><ellipse class="i" cx="2.857" cy="2.881" rx="2.857" ry="2.881" transform="translate(75.666 30.473)"/><ellipse class="i" cx="2.857" cy="2.881" rx="2.857" ry="2.881" transform="translate(75.666 41.954)"/><ellipse class="i" cx="2.857" cy="2.881" rx="2.857" ry="2.881" transform="translate(87.592 7.51)"/><ellipse class="i" cx="2.857" cy="2.881" rx="2.857" ry="2.881" transform="translate(87.592 18.991)"/><ellipse class="i" cx="2.857" cy="2.881" rx="2.857" ry="2.881" transform="translate(87.592 30.473)"/><ellipse class="i" cx="2.857" cy="2.881" rx="2.857" ry="2.881" transform="translate(87.592 41.954)"/><ellipse class="i" cx="2.857" cy="2.881" rx="2.857" ry="2.881" transform="translate(99.518 7.51)"/><ellipse class="i" cx="2.857" cy="2.881" rx="2.857" ry="2.881" transform="translate(99.518 18.991)"/><ellipse class="i" cx="2.857" cy="2.881" rx="2.857" ry="2.881" transform="translate(99.518 30.473)"/><ellipse class="i" cx="2.857" cy="2.881" rx="2.857" ry="2.881" transform="translate(99.518 41.954)"/><ellipse class="i" cx="2.857" cy="2.881" rx="2.857" ry="2.881" transform="translate(262.955 166.993)"/><ellipse class="i" cx="2.857" cy="2.881" rx="2.857" ry="2.881" transform="translate(262.955 178.475)"/><ellipse class="i" cx="2.857" cy="2.881" rx="2.857" ry="2.881" transform="translate(262.955 189.956)"/><ellipse class="i" cx="2.857" cy="2.881" rx="2.857" ry="2.881" transform="translate(274.882 166.993)"/><ellipse class="i" cx="2.857" cy="2.881" rx="2.857" ry="2.881" transform="translate(274.882 178.475)"/><ellipse class="i" cx="2.857" cy="2.881" rx="2.857" ry="2.881" transform="translate(274.882 189.956)"/><ellipse class="i" cx="2.857" cy="2.881" rx="2.857" ry="2.881" transform="translate(286.808 166.993)"/><ellipse class="i" cx="2.857" cy="2.881" rx="2.857" ry="2.881" transform="translate(286.808 178.475)"/><ellipse class="i" cx="2.857" cy="2.881" rx="2.857" ry="2.881" transform="translate(286.808 189.956)"/><ellipse class="i" cx="2.857" cy="2.881" rx="2.857" ry="2.881" transform="translate(298.735 166.993)"/><ellipse class="i" cx="2.857" cy="2.881" rx="2.857" ry="2.881" transform="translate(298.735 178.475)"/><ellipse class="i" cx="2.857" cy="2.881" rx="2.857" ry="2.881" transform="translate(298.735 189.956)"/></g></g></g></svg>