<svg xmlns="http://www.w3.org/2000/svg" xmlns:xlink="http://www.w3.org/1999/xlink" width="149" height="149" viewBox="0 0 149 149"><defs><style>.a{fill:rgba(241,246,231,0.51);}.b{fill:#2fb268;}.c{filter:url(#c);}.d{filter:url(#a);}</style><filter id="a" x="0" y="0" width="149" height="149" filterUnits="userSpaceOnUse"><feOffset dy="3" input="SourceAlpha"/><feGaussianBlur stdDeviation="14" result="b"/><feFlood flood-color="#f1f6e7" flood-opacity="0.4"/><feComposite operator="in" in2="b"/><feComposite in="SourceGraphic"/></filter><filter id="c" x="19.5" y="20.375" width="110" height="108.172" filterUnits="userSpaceOnUse"><feOffset dy="3" input="SourceAlpha"/><feGaussianBlur stdDeviation="11.5" result="d"/><feFlood flood-color="#f1f6e7"/><feComposite operator="in" in2="d"/><feComposite in="SourceGraphic"/></filter></defs><g transform="translate(-66 2669)"><g class="d" transform="matrix(1, 0, 0, 1, 66, -2669)"><circle class="a" cx="32.5" cy="32.5" r="32.5" transform="translate(42 39)"/></g><g class="c" transform="matrix(1, 0, 0, 1, 66, -2669)"><path class="b" d="M23.875,3.375c-11.324,0-20.5,8.767-20.5,19.586s9.176,19.586,20.5,19.586,20.5-8.767,20.5-19.586S35.2,3.375,23.875,3.375Zm8.919,21.093H25.452v7.015a1.548,1.548,0,0,1-1.577,1.507,1.61,1.61,0,0,1-1.114-.443,1.469,1.469,0,0,1-.463-1.064V24.468H14.956a1.61,1.61,0,0,1-1.114-.443,1.469,1.469,0,0,1-.463-1.064,1.548,1.548,0,0,1,1.577-1.507H22.3V14.439a1.579,1.579,0,0,1,3.154,0v7.015h7.343a1.508,1.508,0,1,1,0,3.013Z" transform="translate(50.63 48.5)"/></g></g></svg>