<svg xmlns="http://www.w3.org/2000/svg" width="526.212" height="42" viewBox="0 0 526.212 42"><defs><style>.a,.b{fill:#343433;}.a{font-size:34px;font-family:CenturyGothic-Bold, Century Gothic;font-weight:700;letter-spacing:0.033em;}</style></defs><g transform="translate(-782.788 -4920)"><text class="a" transform="translate(829 4954)"><tspan x="0" y="0">All Rights Reserved | DIKWE</tspan></text><path class="b" d="M18,.563A17.438,17.438,0,1,0,35.438,18,17.437,17.437,0,0,0,18,.563Zm8.236,24.381a10.5,10.5,0,0,1-7.724,3.215A9.9,9.9,0,0,1,8.353,17.924,9.9,9.9,0,0,1,18.461,7.841a10.126,10.126,0,0,1,7.272,2.735A.844.844,0,0,1,25.82,11.6l-1.574,2.437a.844.844,0,0,1-1.282.161,7.153,7.153,0,0,0-4.351-1.679,5.032,5.032,0,0,0-5.2,5.35c0,2.785,1.794,5.6,5.223,5.6a6.894,6.894,0,0,0,4.609-2.013.844.844,0,0,1,1.3.074L26.275,23.9a.844.844,0,0,1-.039,1.045Z" transform="translate(782.225 4924)"/></g></svg>