<svg xmlns="http://www.w3.org/2000/svg" xmlns:xlink="http://www.w3.org/1999/xlink" width="653" height="718" viewBox="0 0 653 718"><defs><style>.a{fill:#e0eec4;stroke:#74a112;}.b{fill:rgba(47,178,104,0.19);}.c{clip-path:url(#a);}.d{fill:#f2f2f2;}.e{fill:#fff;}.f{fill:#ccc;}.g{fill:#e6e6e6;}.h{fill:#2fb268;}.i{fill:#74a112;}.j{fill:#3f3d56;}.k{fill:#a0616a;}.l{fill:#2f2e41;}</style><clipPath id="a"><rect class="a" width="311" height="353" rx="16" transform="translate(220 3304)"/></clipPath></defs><g transform="translate(-49 -1853)"><rect class="b" width="359" height="424" rx="90" transform="translate(196 2000)"/><g class="c" transform="translate(0 -1268)"><g transform="translate(219.998 3313.182)"><path class="d" d="M364.615,264.672,230.18,299.291a17.776,17.776,0,0,1-21.623-12.767L167.9,128.641a17.776,17.776,0,0,1,12.767-21.623l125.07-32.207L337.75,89.142l39.633,153.908a17.776,17.776,0,0,1-12.767,21.623Z" transform="translate(-167.338 -74.811)"/><path class="e" d="M181.943,111.968a12.659,12.659,0,0,0-9.092,15.4l40.657,157.883a12.659,12.659,0,0,0,15.4,9.092l134.435-34.619a12.659,12.659,0,0,0,9.092-15.4L333.414,92.8,305.281,80.207Z" transform="translate(-167.338 -74.811)"/><path class="d" d="M337.408,89.956,316.6,95.314a5.914,5.914,0,0,1-7.2-4.252l-3.957-15.367a.37.37,0,0,1,.508-.43l31.514,14a.37.37,0,0,1-.058.7Z" transform="translate(-167.338 -74.811)"/><path class="f" d="M326.462,224.785l-61.206,15.762a2.957,2.957,0,0,1-1.475-5.727l61.206-15.761a2.957,2.957,0,1,1,1.475,5.727Z" transform="translate(-167.338 -74.811)"/><path class="f" d="M340.763,231.407l-73.018,18.8a2.957,2.957,0,1,1-1.475-5.727l73.018-18.8a2.957,2.957,0,1,1,1.475,5.727Z" transform="translate(-167.338 -74.811)"/><circle class="g" cx="10.451" cy="10.451" r="10.451" transform="translate(62.486 163.816)"/><path class="e" d="M319.954,197.434l-81.288,20.925a9.157,9.157,0,0,1-11.138-6.578L210.493,145.6a9.157,9.157,0,0,1,6.578-11.139l81.288-20.925a9.157,9.157,0,0,1,11.139,6.578L326.532,186.3a9.157,9.157,0,0,1-6.578,11.139Z" transform="translate(-167.338 -74.811)"/><path class="g" d="M319.954,197.434l-81.288,20.925a9.157,9.157,0,0,1-11.138-6.578L210.493,145.6a9.157,9.157,0,0,1,6.578-11.139l81.288-20.925a9.157,9.157,0,0,1,11.139,6.578L326.532,186.3a9.157,9.157,0,0,1-6.578,11.139ZM217.339,135.507a8.08,8.08,0,0,0-5.8,9.828l17.035,66.177a8.08,8.08,0,0,0,9.828,5.8l81.288-20.925a8.08,8.08,0,0,0,5.8-9.828l-17.035-66.177a8.08,8.08,0,0,0-9.828-5.8Z" transform="translate(-167.338 -74.811)"/><path class="d" d="M294.235,135.792l-41.025,10.56a1.469,1.469,0,0,1-1.78-.925,1.415,1.415,0,0,1,1-1.8l41.761-10.75c1.687.855,1.243,2.6.047,2.911Z" transform="translate(-167.338 -74.811)"/><path class="d" d="M296.087,142.988l-41.025,10.56a1.469,1.469,0,0,1-1.78-.925,1.416,1.416,0,0,1,1-1.8l41.761-10.75c1.687.855,1.243,2.6.047,2.911Z" transform="translate(-167.338 -74.811)"/><path class="g" d="M247.248,159.928l-12.52,3.223a1.594,1.594,0,0,1-1.939-1.145l-3.8-14.775a1.594,1.594,0,0,1,1.145-1.939l12.52-3.223a1.594,1.594,0,0,1,1.939,1.145l3.8,14.775a1.594,1.594,0,0,1-1.145,1.939Z" transform="translate(-167.338 -74.811)"/><path class="d" d="M299.761,157.753,237.149,173.87a1.469,1.469,0,0,1-1.78-.925,1.415,1.415,0,0,1,1-1.8l63.348-16.307c1.687.855,1.243,2.6.047,2.911Z" transform="translate(-167.338 -74.811)"/><path class="d" d="M301.614,164.951,239,181.068a1.469,1.469,0,0,1-1.78-.925,1.415,1.415,0,0,1,1-1.8l63.348-16.307c1.687.855,1.243,2.6.047,2.911Z" transform="translate(-167.338 -74.811)"/><path class="d" d="M303.465,172.144l-62.611,16.117a1.469,1.469,0,0,1-1.78-.925,1.415,1.415,0,0,1,1-1.8l63.348-16.307c1.687.855,1.243,2.6.047,2.911Z" transform="translate(-167.338 -74.811)"/><path class="d" d="M305.318,179.342l-62.612,16.117a1.469,1.469,0,0,1-1.78-.925,1.415,1.415,0,0,1,1-1.8l63.348-16.307c1.687.855,1.243,2.6.047,2.911Z" transform="translate(-167.338 -74.811)"/><path class="d" d="M307.17,186.536l-62.611,16.117a1.469,1.469,0,0,1-1.78-.925,1.415,1.415,0,0,1,1-1.8l63.348-16.307c1.687.855,1.243,2.6.047,2.911Z" transform="translate(-167.338 -74.811)"/><path class="e" d="M241.046,252.741a1.084,1.084,0,0,1-.686-.047l-.013-.006-2.847-1.207a1.091,1.091,0,1,1,.854-2.009l1.845.785,2.417-5.687a1.091,1.091,0,0,1,1.431-.577h0l-.015.037.015-.037a1.092,1.092,0,0,1,.577,1.431l-2.844,6.687a1.092,1.092,0,0,1-.735.629Z" transform="translate(-167.338 -74.811)"/><path class="g" d="M416.18,324.838H277.359A17.776,17.776,0,0,1,259.6,307.082V144.048a17.776,17.776,0,0,1,17.756-17.756h129.15l27.427,21.861V307.082a17.776,17.776,0,0,1-17.756,17.756Z" transform="translate(-167.338 -74.811)"/><path class="e" d="M277.358,131.4a12.659,12.659,0,0,0-12.645,12.645V307.082a12.659,12.659,0,0,0,12.645,12.645H416.179a12.659,12.659,0,0,0,12.645-12.645V150.615L404.72,131.4Z" transform="translate(-167.338 -74.811)"/><path class="h" d="M389.179,178.809h-63.2a2.957,2.957,0,1,1,0-5.914h63.2a2.957,2.957,0,1,1,0,5.914Z" transform="translate(-167.338 -74.811)"/><path class="h" d="M401.376,188.789h-75.4a2.957,2.957,0,1,1,0-5.914h75.4a2.957,2.957,0,1,1,0,5.914Z" transform="translate(-167.338 -74.811)"/><path class="f" d="M389.179,217.617h-63.2a2.957,2.957,0,1,0,0,5.913h63.2a2.957,2.957,0,0,0,0-5.913Z" transform="translate(-167.338 -74.811)"/><path class="f" d="M401.377,227.6h-75.4a2.957,2.957,0,0,0,0,5.913h75.4a2.957,2.957,0,0,0,0-5.913Z" transform="translate(-167.338 -74.811)"/><path class="f" d="M389.179,268.254h-63.2a2.957,2.957,0,1,1,0-5.914h63.2a2.957,2.957,0,1,1,0,5.914Z" transform="translate(-167.338 -74.811)"/><path class="f" d="M401.376,278.234h-75.4a2.957,2.957,0,1,1,0-5.914h75.4a2.957,2.957,0,0,1,0,5.914Z" transform="translate(-167.338 -74.811)"/><circle class="h" cx="10.451" cy="10.451" r="10.451" transform="translate(121.868 95.58)"/><path class="e" d="M298.621,184.828a1.084,1.084,0,0,1-.652-.217l-.012-.009-2.456-1.879a1.091,1.091,0,0,1,1.328-1.732l1.591,1.22,3.759-4.9a1.091,1.091,0,0,1,1.53-.2h0l-.023.032.024-.032a1.092,1.092,0,0,1,.2,1.53L299.49,184.4a1.092,1.092,0,0,1-.868.426Z" transform="translate(-167.338 -74.811)"/><path class="f" d="M311.181,225.564a10.451,10.451,0,0,1-10.449,10.455,2.25,2.25,0,0,1-.269-.011,10.45,10.45,0,1,1,10.718-10.444Z" transform="translate(-167.338 -74.811)"/><circle class="f" cx="10.451" cy="10.451" r="10.451" transform="translate(121.868 185.025)"/><path class="f" d="M433.4,148.856H411.917A5.914,5.914,0,0,1,406,142.942V127.074a.37.37,0,0,1,.6-.29L433.631,148.2a.37.37,0,0,1-.229.659Z" transform="translate(-167.338 -74.811)"/><path class="i" d="M311.181,225.564a10.451,10.451,0,0,1-10.449,10.455,2.25,2.25,0,0,1-.269-.011,22.626,22.626,0,0,1,2.029-20.748A10.456,10.456,0,0,1,311.181,225.564Z" transform="translate(-167.338 -74.811)"/><path class="h" d="M323.019,220.576a2.965,2.965,0,0,1,2.959-2.959h15.749a22.369,22.369,0,0,1,1.942,5.913H325.978a2.96,2.96,0,0,1-2.959-2.953Z" transform="translate(532.662 239.189)"/><path class="h" d="M344.035,227.6a22.559,22.559,0,0,1-.786,5.913H325.978a2.957,2.957,0,0,1,0-5.913Z" transform="translate(532.662 239.189)"/><path class="j" d="M383,264.066a3.228,3.228,0,0,1-4.437,1.075L340.9,242.166a3.228,3.228,0,1,1,3.362-5.512l37.667,22.976A3.228,3.228,0,0,1,383,264.066Z" transform="translate(-167.338 -74.811)"/><path class="j" d="M345.336,241.091a25.827,25.827,0,1,1-8.6-35.5,25.827,25.827,0,0,1,8.6,35.5ZM306.75,217.555a19.37,19.37,0,1,0,26.624-6.45,19.37,19.37,0,0,0-26.624,6.45Z" transform="translate(-167.338 -74.811)"/><circle class="k" cx="13.215" cy="13.215" r="13.215" transform="translate(247.532 130.541)"/><path class="k" d="M427.232,292.654a5.92,5.92,0,0,1,4.478-7.614,5.632,5.632,0,0,1,.785-.1L446.415,262.6,433.7,250.512a5.075,5.075,0,1,1,7.06-7.292l17.557,17.312.035.043a4.6,4.6,0,0,1-.32,5.48l-19.5,23.068a5.552,5.552,0,0,1,.145.563,5.92,5.92,0,0,1-5.313,7.057q-.252.022-.5.022A5.938,5.938,0,0,1,427.232,292.654Z" transform="translate(-167.338 -74.811)"/><path class="k" d="M238.982,327.682h-6.6l-3.138-25.444h9.736Z"/><path class="l" d="M408,408.887h-21.27v-.269a8.279,8.279,0,0,1,8.279-8.279H408Z" transform="translate(-167.338 -74.811)"/><path class="k" d="M304.548,318.561l-5.668,3.375L283.166,301.68l8.365-4.981Z"/><path class="l" d="M476.6,398.006l-18.276,10.881-.138-.231a8.279,8.279,0,0,1,2.878-11.349h0l11.162-6.646Z" transform="translate(-167.338 -74.811)"/><path class="l" d="M395.753,391.288c-4.419-52.034-7.048-100.373,9.106-120.092l.125-.153,27.186,10.875.045.1c.092.2,9.133,20.088,7.024,33.465l6.706,30.846,21.865,36.61a2.422,2.422,0,0,1-1.1,3.459l-9.5,4.181a2.433,2.433,0,0,1-3.039-.95L430.38,350.841l-13.434-29.747a.807.807,0,0,0-1.538.247l-7.447,70a2.417,2.417,0,0,1-2.408,2.165h-7.387a2.438,2.438,0,0,1-2.414-2.218Z" transform="translate(-167.338 -74.811)"/><path class="h" d="M404.951,271.608l-.13-.062-.02-.142c-1.016-7.108.187-15.005,3.573-23.473A18.637,18.637,0,0,1,430,236.769h0a18.614,18.614,0,0,1,11.87,9.128,18.413,18.413,0,0,1,1.277,14.756c-4.269,12.483-9.807,24.163-9.862,24.28l-.116.244Z" transform="translate(-167.338 -74.811)"/><path class="k" d="M375.289,253.9a5.92,5.92,0,0,1,8.7,1.528,5.636,5.636,0,0,1,.366.7l25.8,5.215,6.87-16.144a5.075,5.075,0,1,1,9.3,4.059L416.264,271.77l-.028.048a4.6,4.6,0,0,1-5.245,1.619l-28.438-10.191a5.553,5.553,0,0,1-.476.333,5.92,5.92,0,0,1-8.471-2.505q-.109-.228-.2-.462a5.938,5.938,0,0,1,1.881-6.709Z" transform="translate(-167.338 -74.811)"/><path class="l" d="M475.827,232.719a10.774,10.774,0,0,0-5.579-5.155c-3.166-1.077-6.595.07-9.85.835a18.251,18.251,0,0,1-7.657.453,8.6,8.6,0,0,1-6.117-4.274c-1.692-3.392-.267-7.436-.37-11.225a13.632,13.632,0,0,0-17.177-12.812c-3.117-.9-5.94-.983-7.868,1.414a9.147,9.147,0,0,0-9.147,9.147h8.746a8.69,8.69,0,0,0,1.32,6.42c1.544,2.268,4.229,3.909,4.746,6.6.5,2.612-1.274,5.089-3.136,6.988s-4.022,3.779-4.6,6.374a7.9,7.9,0,0,0,1.132,5.684,18.511,18.511,0,0,0,3.974,4.378,58.327,58.327,0,0,0,24.233,12.4c6.3,1.516,13.186,1.909,19.032-.88a18.9,18.9,0,0,0,8.321-26.347Z" transform="translate(-167.338 -74.811)"/><path class="f" d="M477.8,409.447H375.57a.538.538,0,0,1,0-1.076H477.8a.538.538,0,0,1,0,1.076Z" transform="translate(-167.338 -74.811)"/></g></g></g></svg>