<svg xmlns="http://www.w3.org/2000/svg" xmlns:xlink="http://www.w3.org/1999/xlink" width="187" height="216" viewBox="0 0 187 216"><defs><style>.a{fill:#fff;stroke:#707070;}.b{fill:#0fb7ed;}.c{clip-path:url(#a);}.d,.e,.w{fill:#f1f6e7;}.d{opacity:0.53;}.e{opacity:0.41;}.f{fill:url(#b);}.g{fill:#ffc5d3;}.h{fill:#3a3768;}.i,.v{fill:#1ab2e7;}.j{fill:#e6e8ec;}.k{fill:#5f5570;}.l{opacity:0.15;}.m{fill:#bc8487;}.n,.o,.u,.v{opacity:0.1;}.o{stroke:#000;stroke-miterlimit:10;stroke-width:0.142px;}.p{fill:#433a59;}.q{fill:#7b728f;}.r{fill:#e5e8ef;}.s{fill:#8f7080;}.t{fill:#c3bbc8;}.x{fill:#ffd037;}.y{fill:#a8a8a8;}.z{opacity:0.2;}</style><clipPath id="a"><rect class="a" width="162" height="216" transform="translate(1314.464 765.661)"/></clipPath><linearGradient id="b" x1="0.5" y1="1" x2="0.5" gradientUnits="objectBoundingBox"><stop offset="0" stop-color="gray" stop-opacity="0.251"/><stop offset="0.54" stop-color="gray" stop-opacity="0.122"/><stop offset="1" stop-color="gray" stop-opacity="0.102"/></linearGradient></defs><g transform="translate(-695 -3793)"><rect class="b" width="187" height="201" rx="34" transform="translate(695 3800)"/><g class="c" transform="translate(-607.465 3027.339)"><g transform="translate(1314 795.658)"><path class="d" d="M111.865,29.139c-8.918-.323-17.412-3.332-25.518-6.621S70.2,15.579,61.493,13.827c-5.6-1.122-12-1.281-16.512,1.856-4.34,3.02-5.744,8.234-6.5,13.071-.559,3.64-.9,7.47.654,10.876,1.078,2.366,3,4.354,4.319,6.621,4.612,7.883,1.352,17.6-3.645,25.3-2.343,3.611-5.063,7.056-6.871,10.906s-2.647,8.247-1.064,12.169c1.568,3.895,5.307,6.8,9.356,8.859,8.225,4.169,17.917,5.363,27.368,6.037,20.921,1.5,41.952.849,62.929.195a177.152,177.152,0,0,0,23.2-1.739c4.241-.7,8.62-1.8,11.7-4.479a10.558,10.558,0,0,0,2.258-13.381c-4.394-7.13-16.538-8.9-19.61-16.553-1.689-4.212.047-8.9,2.5-12.808,5.269-8.374,14.1-15.731,14.566-25.317.32-6.576-3.926-13.165-10.49-16.279-6.881-3.262-16.423-2.851-21.5,2.549C128.925,27.287,119.738,29.426,111.865,29.139Z" transform="translate(-20.716 -4.733)"/><ellipse class="e" cx="56.619" cy="8.008" rx="56.619" ry="8.008" transform="translate(16.816 140.055)"/><path class="f" d="M102.453,47.812s-1.753-3.616-1.516-4.691S99.7,39.75,99.7,39.75l.095-3.809s-.2.389-1.261.73c-.089-.123-.186-.243-.287-.358a7.6,7.6,0,0,0-1.27-1.108L95.118,31l-1.8-2.884s-2.841-6.037-5.774-7.369l-.462-.945a.076.076,0,0,0,.028-.1l-.469-.96a.071.071,0,0,0-.091-.035l-.449-.919a7.568,7.568,0,0,0-1.3-3.289c-.047-.068-.1-.13-.145-.195l.73-.027a2.373,2.373,0,0,0,1.786-.584,1.733,1.733,0,0,0,.333-.643,2.835,2.835,0,0,0,.108-.571c0-.029,0-.058,0-.086v-.475a1.632,1.632,0,0,0-.032-.195.139.139,0,0,0-.015-.076q-.023-.114-.058-.226a.314.314,0,0,1-.013-.045c-.026-.078-.054-.156-.086-.232a.222.222,0,0,1-.013-.031c-.034-.076-.071-.15-.11-.222l-.011-.023h0a.79.79,0,0,0-.047-.088,5.3,5.3,0,0,0-2.235-1.753,25.315,25.315,0,0,0-2.421-1.168,12.511,12.511,0,0,0-9.5.14,3.709,3.709,0,0,0-.846.471A4.522,4.522,0,0,0,71.3,9.612l-1.444,2.23a3.2,3.2,0,0,0-.468.9c-.27,1.059.577,2.121.482,3.213-.048.543-.328,1.042-.382,1.585a3.9,3.9,0,0,0,.546,2.01L72.1,23.834c-.11.563-.231,1.139-.363,1.7h0a5.749,5.749,0,0,0-1.36,1.893l-.028.016h0a1.714,1.714,0,0,0-.477.487l-1.963,1.994s-3.412.927-4.122,2.1c0,0-5.355-.245-5.309,7.574,0,0-.237,2.933-.373,3.324s0,4.349,0,4.349l-.063,8.016a52.038,52.038,0,0,0,0,5.766c.2,1.515.441,7.281.441,7.281s1.28,5.62.807,7.624c-.454,1.918,0,6.113.745,6.131.142.306.3.456.481.37a2,2,0,0,1,.237-.09v4.789s-.922,6.709.112,7.984a26.5,26.5,0,0,0-1.695,3.219l-7.246-.407L51,98.222h0l-.846.247-.512,12.321.2.016-.015.376.484.037-.674,12.409,10.03.863a9.523,9.523,0,0,1-1.153,2.249c-.373.195-1.185-.389-1.375-.148a1.5,1.5,0,0,1-1.421.389c-.663-.148-1.09.635-1.09.635s.1.09.242.255a6.165,6.165,0,0,0-3.178.857c-.332.175-.538.306-.538.306H49.208l1.075,7.168.758.541.186,5.648s3.032,9.774,4.422,9.71a.619.619,0,0,0,.468-.245c.745-.9.229-3.99.229-3.99V142.72s1.136-.522,1.01-.913,1.833-4.674,2.008-5.063a.034.034,0,0,0,.015-.031c0-.44.853-.929.8-1.124s2.086-1.418,2.235-2.493,1.563-.489,1.563-.489l1.8-2.162a27.343,27.343,0,0,0,.333,4.946A27.493,27.493,0,0,1,67.3,141.16s-.522,2.687,0,3.568a9.226,9.226,0,0,0,1.583,1.591,23.154,23.154,0,0,0-.462,5.332v2.084L72.4,154.9s.125-1.042.315-1.042a33.7,33.7,0,0,1,2.718,2.019s9.73.13,12.193,0c.931-.049,1.185-.467,1.041-.974a3.512,3.512,0,0,0-2.746-2.02c-1.9-.13-4.3-2.214-4.3-2.214s.186-.458-.821-1.108c-.7-.448-2.624-2.261-3.817-3.322.056-.08.114-.16.168-.245,0,0-1.611-2.337-1.278-3.373a5.069,5.069,0,0,0-.143-2.532,20.915,20.915,0,0,1-.9-4.351c0-.929-.134-6.212-.231-9.959l.831.072.017-.374.373.035,3.522.339-.108-3.936a23.2,23.2,0,0,0,3.694-1.963,7.346,7.346,0,0,1,3.7-1.661s4.027-2.247,4.644-3.176.559-7.673.559-7.673L91.5,92.993v-.012s-.283-6.987-.853-8.5c-.209-.561-.725-2.43-1.289-4.565a3.229,3.229,0,0,1,.972.043c.02.522.034.88.034,1,0,.83,1.136,1.535,1.136,1.535l-.8-18.7V51.08c2.481.826,8.481,1.083,8.481,1.083C103.495,51.925,102.453,47.812,102.453,47.812ZM79.051,31.75h-.013a13.455,13.455,0,0,1,.345-1.451ZM62.768,95.873c1.47.253,3.167.179,3.3-.119.013-.029.03-.082.052-.15.047.086.091.173.138.263l-.143,2.82v.064l-4.843-.273A4.061,4.061,0,0,1,62.768,95.873ZM78.912,110.1l-.125-4.567c.216-.841.41-1.6.576-2.259.075.543.138,1.044.186,1.505C80.007,109.113,79.331,109.959,78.912,110.1ZM92.7,41.633c-.278.111-1.334-.584-2.336-1.3,0-.132.009-.263.015-.389.142-2.982-4.5-4.837-5.923-5.18a4.968,4.968,0,0,1-1-.389,23.025,23.025,0,0,1-2.205-1.3l.019-.056s-1.833-1.213-1.872-2.726a26.561,26.561,0,0,1,1.576-4c.035-.076.075-.156.112-.232a7.211,7.211,0,0,0,2.384-1.32c.285,3.895,5.675,7.246,5.675,7.246l.576.974.136.23c-.291.179-.43.323-.332.407a17.8,17.8,0,0,1,1.81,3.1c.112.222.186.36.186.36s.881,2.506,1.386,4.6a.358.358,0,0,0-.212-.023Z" transform="translate(-15.045 -6.999)"/><path class="g" d="M86.662,27.722l-.063.088-.216.3-4.144,3.061-.879-1.511-.559-.974s-8.261-5.18-4.709-10.173,8.8,6.329,8.8,6.329Z" transform="translate(-6.93 -3.189)"/><path class="h" d="M.105,0a.069.069,0,0,1,.07.072L.157,1.135a.076.076,0,0,1-.073.075.069.069,0,0,1-.07-.072L.033.076A.076.076,0,0,1,.105,0Z" transform="translate(71.208 12.348) rotate(-26.73)"/><path class="h" d="M.05,0h0A.038.038,0,0,1,.091.04L.085.357A.042.042,0,0,1,.045.4h0A.038.038,0,0,1,0,.358L.01.042A.042.042,0,0,1,.05,0Z" transform="translate(66.621 13.695) rotate(-26.73)"/><path class="h" d="M.064,0A.044.044,0,0,1,.109.046L.1.647A.048.048,0,0,1,.052.694.044.044,0,0,1,.008.648l.011-.6A.048.048,0,0,1,.064,0Z" transform="translate(66.926 14.355) rotate(-26.73)"/><path class="h" d="M.063,0A.042.042,0,0,1,.105.044L.094.654A.046.046,0,0,1,.05.7.042.042,0,0,1,.008.656L.019.046A.046.046,0,0,1,.063,0Z" transform="translate(67.332 15.197) rotate(-26.73)"/><path class="h" d="M.706.127,4.639.055A.409.409,0,0,1,5.052.48l-.161,9.1a.446.446,0,0,1-.429.44l-3.933.071a.409.409,0,0,1-.413-.425L.278.567A.446.446,0,0,1,.706.127Z" transform="translate(65.784 12.493) rotate(-26.73)"/><path class="i" d="M76.839,15.065a.173.173,0,0,0-.085.1.182.182,0,0,0,.01.135l.015.033a.185.185,0,0,1,.011.136.175.175,0,0,1-.085.1l-1.792.943a.161.161,0,0,1-.129.011.17.17,0,0,1-.1-.089l-.017-.033a.166.166,0,0,0-.227-.08l-.348.185a.331.331,0,0,0-.163.2.349.349,0,0,0,.019.258l3.807,7.9a.319.319,0,0,0,.436.15l3.126-1.646a.348.348,0,0,0,.143-.456l-3.809-7.9a.329.329,0,0,0-.188-.169.311.311,0,0,0-.248.02Z" transform="translate(-7.333 -4.088)"/><path class="j" d="M.07.017.6.007A.066.066,0,0,1,.668.075.072.072,0,0,1,.6.146L.068.156A.066.066,0,0,1,0,.088.072.072,0,0,1,.07.017Z" transform="translate(67.925 11.84) rotate(-26.73)"/><ellipse class="j" cx="0.076" cy="0.08" rx="0.076" ry="0.08" transform="translate(68.633 11.439)"/><path class="k" d="M78.465,37.089,77.3,69.752s3.912-1.363,4.517-.341-.652-16.358-.652-16.358Z" transform="translate(-6.276 4.192)"/><path class="l" d="M78.465,37.089,77.3,69.752s3.912-1.363,4.517-.341-.652-16.358-.652-16.358Z" transform="translate(-6.276 4.192)"/><path class="m" d="M82.821,118.411c-2.421.13-11.982,0-11.982,0a33.244,33.244,0,0,0-2.671-2.012c-.186,0-.309,1.038-.309,1.038l-3.912-1.168v-2.076s-.125-5.91,1.054-6.168a52.088,52.088,0,0,1,6.4,0c.186-.064,3.725,3.441,4.718,4.09s.807,1.1.807,1.1,2.36,2.076,4.223,2.206a3.449,3.449,0,0,1,2.7,2.012C83.985,117.946,83.733,118.363,82.821,118.411Z" transform="translate(-10.446 30.529)"/><path class="n" d="M82.82,116.7c-2.421.13-11.982,0-11.982,0a33.244,33.244,0,0,0-2.671-2.012c-.186,0-.309,1.038-.309,1.038l-3.912-1.168V112.52l3.662,1.387,2.919,1.817H83.842C83.984,116.232,83.732,116.649,82.82,116.7Z" transform="translate(-10.445 32.243)"/><path class="o" d="M70.044,113.964s2.98-2.985,4.973-2.142" transform="translate(-8.541 31.928)"/><path class="m" d="M57.569,109.115c.125.389-.993.909-.993.909v5.128s.507,3.079-.225,3.977a.6.6,0,0,1-.458.243c-1.365.064-4.346-9.673-4.346-9.673l-.186-5.626-.745-.539L49.56,96.392h1.926s.2-.13.529-.306c.931-.5,2.882-1.363,3.941-.537l3.6,8.481S57.446,108.725,57.569,109.115Z" transform="translate(-14.935 25.805)"/><path class="n" d="M56.351,118.89a.6.6,0,0,1-.458.243c-1.365.064-4.346-9.673-4.346-9.673l-.186-5.626-.745-.539L49.56,96.154h1.926s.2-.13.529-.306l.464,7.316.248,6.3S55.066,116.315,56.351,118.89Z" transform="translate(-14.935 26.043)"/><path class="p" d="M89.625,93.138c-.605.925-4.563,3.165-4.563,3.165a7.109,7.109,0,0,0-3.632,1.655,52.5,52.5,0,0,1-7.683,3.762c-2.949,1.268-5.588,2.323-5.588,2.323l-3.04,3.7L62.8,110.561s-1.4-.584-1.537.487-2.235,2.288-2.189,2.483-.792.682-.792,1.12-3.12-3.165-3.073-5.355a5.365,5.365,0,0,0-1.583-3.7s.419-.779,1.071-.633a1.457,1.457,0,0,0,1.4-.389c.186-.243.978.341,1.35.146s1.863-4.041,1.863-4.041l5.806-4.072,11.548-8.094.533-.374s1.537.736.913-5.3c-.121-1.168-.324-2.588-.633-4.317-1.909-10.662,4.936-11.879,4.936-11.879L88.42,68.74l1.444,2.337v.012l.326,14.4S90.231,92.213,89.625,93.138Z" transform="translate(-13.665 15.184)"/><path class="n" d="M70.975,94.026s.019.691.047,1.766c-2.949,1.268-5.588,2.323-5.588,2.323l-3.04,3.7c-.05-3.067-.039-7.052,0-11.135l11.548-8.093C72.513,88.123,70.975,94.026,70.975,94.026Z" transform="translate(-10.94 21.111)"/><path class="n" d="M84.266,71.081v.012l-9.034.183s-1.583,6.475-1.816,7.838c-.058.335-.408,1.766-.9,3.733-.121-1.168-.324-2.588-.633-4.317-1.909-10.662,4.936-11.879,4.936-11.879l6.007,2.093Z" transform="translate(-8.073 15.185)"/><path class="p" d="M63.471,57.911,62.307,81.28s-.838,34.323,0,36.563a27.712,27.712,0,0,1,1.164,5.745s-.512,2.678,0,3.554,2.142,1.85,2.1,2.337,4.983,3.116,7.59-1.071c0,0-1.583-2.337-1.257-3.359a5.2,5.2,0,0,0-.14-2.532,21.049,21.049,0,0,1-.885-4.339c0-1.466-.326-13.729-.326-13.729s5.076-19.474,5.309-20.837,1.816-7.838,1.816-7.838l9.593-.195s-.279-6.962-.838-8.471-3.306-12.561-3.306-12.561Z" transform="translate(-11.073 10.683)"/><path class="q" d="M27.938,66.7l-.833.249-.034.861,24.963.337V67.81Z" transform="translate(8.451 24.801)"/><path class="g" d="M75.863,23.235c-3.632,7.7-1.376,9.313-1.017,9.511-.769-.374-10.768-5.285-9.453-6.532.855-.812,1.587-4.345,2.017-6.876.255-1.511.4-2.666.4-2.666l10.492,2.012C77.29,20.4,76.482,21.907,75.863,23.235Z" transform="translate(-10.03 -3.401)"/><path class="n" d="M85.142,25.024l-.216.3-4.152,3.061L79.9,26.876a43.925,43.925,0,0,1,5.117-2.142Z" transform="translate(-5.466 -0.403)"/><path class="r" d="M89.023,31.987c-.373,1.363-6.659,0-6.659,0l-.652-1.071s-.065-.136-.175-.358a17.867,17.867,0,0,0-1.779-3.091c-.512-.438,5.495-2.58,5.495-2.58l1.84,4.187a7.512,7.512,0,0,1,1.248,1.1A2.1,2.1,0,0,1,89.023,31.987Z" transform="translate(-5.518 -0.346)"/><path class="k" d="M78.862,30.52s3.725,3.073,4.284,2.851,9.593,6.156,9.593,6.156,1.024,4.09-3.213,4.333c0,0-8.987-.389-9.36-1.753S78.862,30.52,78.862,30.52Z" transform="translate(-5.788 1.749)"/><path class="n" d="M72.089,26.019,68.038,30.4l5.681,37.78,2.235-1.363s5.774,2.678,6.24.195.337-12.269.337-12.269l-.756-17.679s-2.654-6.183-2.654-6.378-3.828-3.213-3.828-3.213l-1.807-1.461Z" transform="translate(-9.167 0.072)"/><path class="r" d="M72.089,25.593l-4.051,4.382,5.681,37.78,2.235-1.363s5.774,2.678,6.24.195.337-12.269.337-12.269l-.756-17.679s-2.654-6.183-2.654-6.378-3.828-3.213-3.828-3.213l-1.807-1.461Z" transform="translate(-9.167 -0.086)"/><path class="n" d="M71.569,26.279l-1.118,2.386L71.569,29.9s4,8.456,3.213,13.47l.838,16.5,2.7,2.775,2.142-2.586-1.024-15S76.691,32.7,73.8,28.853l-.838-3.408Z" transform="translate(-8.414 -0.139)"/><path class="m" d="M71.569,25.995,70.451,28.38l1.118,1.233s4,8.456,3.213,13.47l.838,16.5,2.7,2.775,2.142-2.586-1.024-15S76.691,32.415,73.8,28.569l-.838-3.408Z" transform="translate(-8.414 -0.244)"/><path class="n" d="M77.8,18.687c-1.017,1.714-1.818,3.223-2.444,4.551a6.873,6.873,0,0,1-2.03.306c-2.3,0-3.628-1.665-4.932-3.433-.3-.4-1.278-.308-1.49-.779.255-1.511.4-2.666.4-2.666Z" transform="translate(-9.522 -3.404)"/><path class="g" d="M80.635,18.118a7.372,7.372,0,0,1-6.025,7.373A7.124,7.124,0,0,1,66.7,20.42a7.6,7.6,0,0,1,3.557-8.956,6.949,6.949,0,0,1,9.016,2.275A7.7,7.7,0,0,1,80.635,18.118Z" transform="translate(-9.693 -5.64)"/><path class="n" d="M71.474,30.828l-5.867-7.4S65.065,23.2,66.9,21.2c0,0,6.724,5.48,7.141,6.411S71.474,30.828,71.474,30.828Z" transform="translate(-9.949 -1.719)"/><path class="r" d="M71.332,30.544l-5.867-7.4s-.542-.228,1.289-2.232c0,0,6.724,5.48,7.141,6.411S71.332,30.544,71.332,30.544Z" transform="translate(-9.994 -1.824)"/><path class="k" d="M84.009,75.9s-1.118-.7-1.118-1.529-.559-12.512-.559-12.512-.82-6.974-1.676-12.516h0c-.5-3.266-1.019-6.037-1.384-6.586l-.015-.023c-.978-1.315-.792-7.741-6.892-17.137a33.475,33.475,0,0,0,3.725,2.376,4.972,4.972,0,0,0,.982.389c1.4.341,5.96,2.191,5.821,5.161s.326,9.786.326,9.786V57.278Z" transform="translate(-7.816 -0.082)"/><path class="n" d="M88.594,30.553c-.373,1.363-6.659,0-6.659,0l-.652-1.071s-.065-.136-.175-.358A.133.133,0,0,1,81.1,29.1a19.487,19.487,0,0,0,6.814-.356A2.1,2.1,0,0,1,88.594,30.553Z" transform="translate(-5.09 1.088)"/><path class="k" d="M81.24,29.585s1.956,5.648,1.676,7.059,4.517,6.962,4.517,6.962L92,40.3s-1.723-3.6-1.49-4.674S89.3,32.262,89.3,32.262l.093-3.794S88.55,30.114,81.24,29.585Z" transform="translate(-5.046 0.986)"/><path class="n" d="M79.26,13.714l-3.539.14a3.779,3.779,0,0,0-1.024.134A3.205,3.205,0,0,0,72.8,17.066c-.047,1.264-.745,2.68-2.1,2.791a.506.506,0,0,1-.386-.09.678.678,0,0,1-.164-.345,7.71,7.71,0,0,0-.89-2.08,1.6,1.6,0,0,0-1.118,1.241,7.29,7.29,0,0,0-.1,1.794,12.121,12.121,0,0,1-.21,2.277,7.689,7.689,0,0,1,1.442-10.448,6.937,6.937,0,0,1,9.993,1.508Z" transform="translate(-9.676 -5.615)"/><path class="s" d="M75.066,15.011a3.779,3.779,0,0,1,1.024-.134l4.3-.167a2.343,2.343,0,0,0,1.755-.573,1.742,1.742,0,0,0,.328-.641,2.875,2.875,0,0,0-.278-2.265,5.288,5.288,0,0,0-2.2-1.753A25.071,25.071,0,0,0,77.614,8.31a12.155,12.155,0,0,0-9.332.14,3.715,3.715,0,0,0-.831.465,4.447,4.447,0,0,0-.905,1.13l-1.414,2.228a3.119,3.119,0,0,0-.445.9c-.266,1.057.559,2.115.473,3.2-.048.541-.322,1.038-.373,1.579a3.928,3.928,0,0,0,.538,2L67.811,25.2a12.091,12.091,0,0,0,.6-3.8,7.028,7.028,0,0,1,.1-1.794,1.614,1.614,0,0,1,1.118-1.241,7.683,7.683,0,0,1,.892,2.08.67.67,0,0,0,.164.345.5.5,0,0,0,.386.09c1.362-.111,2.049-1.513,2.1-2.791A3.2,3.2,0,0,1,75.066,15.011Z" transform="translate(-10.23 -6.832)"/><path class="q" d="M27.1,67.025l1.74-.52L55.069,68l-2.887.389Z" transform="translate(8.459 24.728)"/><path class="n" d="M27.1,67.025l1.74-.52L55.069,68l-2.887.389Z" transform="translate(8.459 24.728)"/><path class="q" d="M50.07,93.884l-3.461-.337L45.4,93.43V73.305l.32-4.672.071-1.04h3.571Z" transform="translate(14.17 25.133)"/><path class="n" d="M49.124,92.993l-2.76-.319-.969-.111V73.482l.255-4.428.056-.987h2.848Z" transform="translate(14.17 25.308)"/><path class="q" d="M56.983,75s1.723-3.951,2.446-4.074a10.634,10.634,0,0,1,2.049,0L61.36,72.07s-1.77.146-2.328,3.237Z" transform="translate(-12.618 16.754)"/><path class="n" d="M56.983,75s1.723-3.951,2.446-4.074a10.634,10.634,0,0,1,2.049,0L61.36,72.07s-1.77.146-2.328,3.237Z" transform="translate(-12.618 16.754)"/><path class="q" d="M62.3,70.609s4.632,2.409,4.027,5.233L63.815,75.7s-1.211-4.21-2.164-4.43S62.3,70.609,62.3,70.609Z" transform="translate(-11.255 16.657)"/><path class="k" d="M81.045,50.45v.142l-.093,16.216s-2.375,13.632-3.027,14.168-14.948-.925-14.948-.925L56.5,34.433c-.047-7.79,5.215-7.546,5.215-7.546.7-1.168,4.051-2.093,4.051-2.093l1.863-1.9.06-.088a1.694,1.694,0,0,1,.469-.485h0c.384-.232.628.074.767.376a2.335,2.335,0,0,1,.145.442C76.621,28.925,81.045,50.45,81.045,50.45Z" transform="translate(-12.768 -1.331)"/><path class="n" d="M78.7,50.57v.142c-2.341-4.479-11.362-21.449-13.83-22.294l.95-.682s.633-.389-.531-.779c0,0-1.816.243-1.863-2.045l1.922-1.986.469-.485h0l.767.376a2.336,2.336,0,0,1,.145.442C74.274,29.045,78.7,50.57,78.7,50.57Z" transform="translate(-10.607 -1.256)"/><path class="p" d="M78.84,50.428v.142C76.5,46.091,67.478,29.121,65.01,28.276l.95-.682s.633-.389-.531-.779c0,0-1.816.243-1.863-2.045l1.922-1.986.469-.485h0l.767.376a2.336,2.336,0,0,1,.145.442C74.416,28.9,78.84,50.428,78.84,50.428Z" transform="translate(-10.563 -1.309)"/><path class="n" d="M79.416,42.894l-.015-.023c-.978-1.315-.792-7.741-6.892-17.137a33.472,33.472,0,0,0,3.725,2.376l-.43,1.484.931.52Z" transform="translate(-7.771 -0.032)"/><path class="p" d="M79.274,42.752l-.015-.023c-.978-1.315-.792-7.741-6.892-17.137a33.474,33.474,0,0,0,3.725,2.376l-.43,1.484.931.52Z" transform="translate(-7.816 -0.084)"/><path class="n" d="M72.254,24.5l-.382,1.686a2.239,2.239,0,0,0,1.954,1.834l.27-.8S72.289,26,72.254,24.5Z" transform="translate(-7.97 -0.491)"/><path class="r" d="M72.254,24.356l-.382,1.686a2.239,2.239,0,0,0,1.954,1.834l.27-.8S72.289,25.862,72.254,24.356Z" transform="translate(-7.97 -0.544)"/><path class="n" d="M47.7,67.792l-1.1,25.681L45.4,93.356V73.232l.32-4.672Z" transform="translate(14.17 25.207)"/><path class="q" d="M27.465,77.711,26.72,91.6,52.052,93.81l1.11-26.018Z" transform="translate(8.341 25.207)"/><path class="n" d="M26.862,79.437l.5-12.269L53.3,68.414l-1.235,12.97Z" transform="translate(8.385 24.974)"/><path class="q" d="M26.72,79.153l.5-12.269L53.162,68.13,51.927,81.1Z" transform="translate(8.341 24.869)"/><rect class="t" width="3.12" height="3.797" transform="translate(45.972 104.037)"/><path class="g" d="M58.762,64.7,58.3,66.014s-.978,7.205.233,8.082,4.8.925,4.983.487,1.49-5.4,1.49-5.4,1.164,3.651,1.77,3.359-1.4-7.233-1.4-7.233Z" transform="translate(-12.325 14.459)"/><path class="n" d="M58.208,61.435V68.4s4.936.974,7.078-.709c0,0-2-6.74-1.257-8.444S58.208,61.435,58.208,61.435Z" transform="translate(-12.236 12.27)"/><path class="r" d="M58.208,61.293v6.962s4.936.974,7.078-.709c0,0-2-6.74-1.257-8.444S58.208,61.293,58.208,61.293Z" transform="translate(-12.236 12.218)"/><path class="n" d="M58.217,31.67l-1.3.73s-.233,2.921-.373,3.311,0,4.333,0,4.333l-.063,7.984a52.6,52.6,0,0,0,0,5.745c.2,1.509.427,7.254.427,7.254s1.259,5.6.793,7.595.047,6.475.838,6.086,8.1-1.9,8.475-2.191.186-3.019,0-3.359A30.149,30.149,0,0,1,65.8,63.121c.093-1.071-.326-10.467-.326-10.467s.7-10.029.978-12.366-.559-9.2-1.3-9.3S62.222,25.584,58.217,31.67Z" transform="translate(-12.804 1.091)"/><path class="k" d="M57.933,31.386l-1.3.73s-.233,2.921-.373,3.311,0,4.333,0,4.333l-.063,7.984a52.608,52.608,0,0,0,0,5.745c.2,1.509.427,7.254.427,7.254s1.259,5.6.793,7.595.047,6.475.838,6.086,8.1-1.9,8.475-2.191.186-3.019,0-3.359a30.149,30.149,0,0,1-1.211-6.037c.093-1.071-.326-10.467-.326-10.467s.7-10.029.978-12.366-.559-9.2-1.3-9.3S61.938,25.3,57.933,31.386Z" transform="translate(-12.892 0.986)"/><g class="u" transform="translate(54.669 4.482)"><path d="M69.291,14.872a1.6,1.6,0,0,0-1.118,1.241,7.29,7.29,0,0,0-.1,1.794,12.089,12.089,0,0,1-.6,3.8l-2.487-5.241c-.048-.1-.1-.21-.147-.317a7.259,7.259,0,0,0,.427,1.048l2.487,5.241a12.089,12.089,0,0,0,.6-3.8,7.114,7.114,0,0,1,.1-1.794A1.611,1.611,0,0,1,69.57,15.6a7.932,7.932,0,0,1,.482.921A7.748,7.748,0,0,0,69.291,14.872Z" transform="translate(-64.836 -8.553)"/><path d="M80.864,10.266a2.879,2.879,0,0,1-.045,1.451,1.745,1.745,0,0,1-.33.641,2.333,2.333,0,0,1-1.755.573l-4.3.167a3.792,3.792,0,0,0-1.026.134,3.208,3.208,0,0,0-1.894,3.077c-.047,1.264-.745,2.68-2.1,2.791a.505.505,0,0,1-.386-.09h0c.043.127.084.255.119.389a.654.654,0,0,0,.162.345.505.505,0,0,0,.386.09c1.363-.111,2.049-1.513,2.1-2.791a3.2,3.2,0,0,1,1.894-3.077,3.792,3.792,0,0,1,1.026-.134l4.3-.167a2.343,2.343,0,0,0,1.755-.573,1.746,1.746,0,0,0,.33-.641,2.877,2.877,0,0,0-.237-2.185Z" transform="translate(-63.525 -10.266)"/></g><path class="n" d="M72.72,68.713a7.059,7.059,0,0,1,2.235-.828c.622.049,6.208,7.476,6.208,7.476Z" transform="translate(-7.706 15.643)"/><path class="n" d="M60.793,31.847s-2.949,1.316-2.87,2.226S60.793,31.847,60.793,31.847Z" transform="translate(-12.325 2.242)"/><path class="n" d="M59.612,34.984s-3.094,4.136-2.41,4.275S59.612,34.984,59.612,34.984Z" transform="translate(-12.581 3.409)"/><path class="n" d="M67.375,39.5s.283,9.25-1.986,10.419Z" transform="translate(-9.994 5.089)"/><path class="n" d="M57.917,57.8S60.1,56.5,60.6,56.759,57.917,57.8,57.917,57.8Z" transform="translate(-12.327 11.494)"/><path class="n" d="M58.208,58.893A5.611,5.611,0,0,0,60.24,58.7C60.894,58.4,58.208,58.893,58.208,58.893Z" transform="translate(-12.236 12.192)"/><path class="n" d="M83.284,33.985s1.71,5.135,2.7,5.135" transform="translate(-4.408 3.037)"/><path class="n" d="M64.753,105.786s3.207-.909,3.681,0S64.753,105.786,64.753,105.786Z" transform="translate(-10.193 29.589)"/><path class="n" d="M57.052,95.848s-.8,1.279.257,1.669S57.052,95.848,57.052,95.848Z" transform="translate(-12.687 26.043)"/><path class="n" d="M73.219,82.834s2.421,2.255,3.565,2.321S73.219,82.834,73.219,82.834Z" transform="translate(-7.55 21.203)"/><path class="e" d="M149.232,15.494s-15.682-1-13.834,10.495a2.851,2.851,0,0,0,1.393,2.954s.028-.853,1.609-.563a7.026,7.026,0,0,0,1.7.086,3.474,3.474,0,0,0,2.081-.894h0s4.409-1.9,6.123-9.437c0,0,1.268-1.644,1.218-2.066l-2.647,1.182a5.137,5.137,0,0,1,.186,3.655s-.086-3.583-.594-3.505c-.1.018-1.376.691-1.376.691s1.557,3.478.382,6c0,0,.447-4.284-.866-5.753l-1.863,1.137s1.82,3.591.587,6.522c0,0,.317-4.495-.978-6.245l-1.688,1.377s1.708,3.54.667,5.971c0,0-.136-5.233-1.034-5.628a10.675,10.675,0,0,0-1.7,1.92s1.17,2.571.443,3.926c0,0-.445-3.486-.81-3.505a11.828,11.828,0,0,0-1.624,3.895,8.681,8.681,0,0,1,1.268-4.115,4.351,4.351,0,0,0-2.254,1.221s.229-1.634,2.608-1.776a10.588,10.588,0,0,1,1.54-1.86,9.3,9.3,0,0,0-3.815.46s1.268-1.54,4.251-.839l1.676-1.422s-3.127-.448-4.452.047c0,0,1.525-1.363,4.9-.37l1.814-1.135a15.948,15.948,0,0,0-4.252-.389s1.676-.945,4.783.08l1.3-.61s-1.952-.4-2.524-.463-.6-.23-.6-.23a6.505,6.505,0,0,1,3.669.426A16.684,16.684,0,0,0,149.232,15.494Z" transform="translate(11.812 -3.847)"/><path class="e" d="M123.686,13.886s-7.078-.446-6.251,4.746a1.292,1.292,0,0,0,.63,1.334s.013-.389.726-.255a3.04,3.04,0,0,0,.771.039,1.57,1.57,0,0,0,.931-.405h0s1.991-.861,2.766-4.265c0,0,.574-.742.559-.933l-1.2.534a2.339,2.339,0,0,1,.088,1.651s-.039-1.618-.27-1.581c-.047,0-.62.314-.62.314a3.847,3.847,0,0,1,.171,2.713s.2-1.936-.391-2.6l-.84.514a4.04,4.04,0,0,1,.264,2.946,5.75,5.75,0,0,0-.441-2.822l-.762.623a3.949,3.949,0,0,1,.3,2.7s-.061-2.364-.466-2.543a4.8,4.8,0,0,0-.769.869s.529,1.168.2,1.774c0,0-.2-1.575-.373-1.583a5.358,5.358,0,0,0-.734,1.753,3.9,3.9,0,0,1,.574-1.858,1.968,1.968,0,0,0-1.019.551s.1-.738,1.183-.8a4.735,4.735,0,0,1,.7-.839,4.182,4.182,0,0,0-1.725.206,1.9,1.9,0,0,1,1.92-.389l.745-.643a6.152,6.152,0,0,0-2.012.021,2.358,2.358,0,0,1,2.213-.167l.821-.512a7.151,7.151,0,0,0-1.922-.173,2.833,2.833,0,0,1,2.163.035l.585-.275s-.881-.181-1.14-.21-.272-.1-.272-.1a2.951,2.951,0,0,1,1.658.195A7.363,7.363,0,0,0,123.686,13.886Z" transform="translate(6.232 -4.441)"/><ellipse class="v" cx="5.016" cy="0.886" rx="5.016" ry="0.886" transform="translate(152.675 139.885)"/><ellipse class="v" cx="5.016" cy="0.886" rx="5.016" ry="0.886" transform="translate(0 126.695)"/><ellipse class="v" cx="5.016" cy="0.886" rx="5.016" ry="0.886" transform="translate(149.185 122.723)"/><ellipse class="v" cx="5.016" cy="0.886" rx="5.016" ry="0.886" transform="translate(19.401 131.449)"/><ellipse class="v" cx="5.016" cy="0.886" rx="5.016" ry="0.886" transform="translate(126.826 132.21)"/><ellipse class="w" cx="7.49" cy="1.324" rx="7.49" ry="1.324" transform="translate(139.223 148.943)"/><path class="e" d="M138.99,115.932a2.284,2.284,0,0,0,.713-1.126,1.02,1.02,0,0,0-.5-1.147c-.458-.183-.948.148-1.319.483s-.8.719-1.283.648a2.1,2.1,0,0,0,.605-1.912.822.822,0,0,0-.169-.389c-.253-.284-.715-.162-1.019.062a4.07,4.07,0,0,0-1.244,3.326,6.669,6.669,0,0,1-.019-1.363,1.153,1.153,0,0,0-1.237-1.4,1.505,1.505,0,0,0-1.216.362,1.3,1.3,0,0,0,.047,1.558,4.862,4.862,0,0,0,1.261,1.056,2.831,2.831,0,0,1,.9.9.765.765,0,0,1,.067.16h2.731a7.619,7.619,0,0,0,1.682-1.219Z" transform="translate(10.819 32.17)"/><path class="i" d="M42.648,87.585s1.024,1.4-.471,3.505-2.729,3.895-2.235,5.211c0,0,2.258-3.922,4.1-3.977S44.669,89.949,42.648,87.585Z" transform="translate(-17.972 22.97)"/><path class="n" d="M42.634,87.585a1.713,1.713,0,0,1,.209.438c1.792,2.2,2.747,4.255,1.024,4.308-1.6.047-3.528,3.046-3.99,3.8q.023.088.054.173s2.258-3.922,4.1-3.977S44.655,89.949,42.634,87.585Z" transform="translate(-17.958 22.97)"/><path class="x" d="M43.483,88.974c0,.493-.052.892-.117.892s-.117-.389-.117-.892.065-.261.13-.261S43.483,88.482,43.483,88.974Z" transform="translate(-16.905 23.368)"/><path class="x" d="M44.118,89.408c-.414.236-.775.378-.8.319s.278-.3.691-.536.251-.064.281,0S44.531,89.174,44.118,89.408Z" transform="translate(-16.886 23.523)"/><path class="i" d="M38.407,87.585s-1.024,1.4.471,3.505,2.729,3.895,2.235,5.211c0,0-2.256-3.922-4.1-3.977S36.386,89.949,38.407,87.585Z" transform="translate(-19.134 22.97)"/><path class="n" d="M38.408,87.585a1.749,1.749,0,0,0-.21.438c-1.792,2.2-2.746,4.255-1.024,4.308,1.606.047,3.53,3.046,3.992,3.8a1.439,1.439,0,0,1-.056.173s-2.256-3.922-4.1-3.977S36.387,89.949,38.408,87.585Z" transform="translate(-19.135 22.97)"/><path class="x" d="M36.409,88.974c0,.493.054.892.119.892s.117-.389.117-.892-.065-.261-.13-.261S36.409,88.482,36.409,88.974Z" transform="translate(-19.04 23.368)"/><path class="x" d="M35.974,89.408c.414.236.773.378.8.319s-.279-.3-.693-.536-.25-.064-.281,0S35.559,89.174,35.974,89.408Z" transform="translate(-19.255 23.523)"/><path class="y" d="M36.658,94.252s2.861-.092,3.725-.734,4.4-1.408,4.614-.378,4.3,5.12,1.071,5.147-7.506-.526-8.367-1.075S36.658,94.252,36.658,94.252Z" transform="translate(-18.963 24.848)"/><path class="z" d="M46.124,97.492c-3.23.027-7.506-.526-8.367-1.075-.654-.417-.916-1.914-1-2.606h-.095s.186,2.413,1.041,2.96,5.137,1.1,8.367,1.075c.931,0,1.254-.354,1.237-.869C47.173,97.291,46.817,97.486,46.124,97.492Z" transform="translate(-18.963 25.285)"/></g></g></g></svg>