<svg xmlns="http://www.w3.org/2000/svg" xmlns:xlink="http://www.w3.org/1999/xlink" width="60" height="44" viewBox="0 0 60 44"><defs><style>.a,.e{fill:#2fb268;}.a{stroke:#707070;}.b{fill:#eaf7f0;}.c{clip-path:url(#a);}.d{fill:none;}</style><clipPath id="a"><rect class="a" width="57" height="44" transform="translate(522 261)"/></clipPath></defs><g transform="translate(-1523 -452)"><rect class="b" width="60" height="43" rx="8" transform="translate(1523 452)"/><g class="c" transform="translate(1003 191)"><g transform="translate(527.704 261)"><path class="d" d="M37.466,0H8.163A7.96,7.96,0,0,0,0,7.721V35.438a7.96,7.96,0,0,0,8.163,7.721h29.3a7.96,7.96,0,0,0,8.163-7.721V7.721A7.96,7.96,0,0,0,37.466,0Zm5.489,35.437a5.353,5.353,0,0,1-5.489,5.192H8.163a5.353,5.353,0,0,1-5.489-5.192V7.721A5.353,5.353,0,0,1,8.163,2.529h29.3a5.353,5.353,0,0,1,5.489,5.192Z" transform="translate(0 0)"/><path class="e" d="M36.352,7.1H15.992a4.28,4.28,0,0,0-7.962,0H4.851a1.266,1.266,0,1,0,0,2.529H8.03a4.28,4.28,0,0,0,7.962,0h20.36a1.266,1.266,0,1,0,0-2.529ZM12.011,9.81a1.489,1.489,0,0,1-1.527-1.444,1.529,1.529,0,0,1,3.054,0A1.489,1.489,0,0,1,12.011,9.81Z" transform="translate(2.213 2.378)"/><path class="e" d="M36.352,14.131H33.174a4.28,4.28,0,0,0-7.962,0H4.851a1.266,1.266,0,1,0,0,2.529h20.36a4.28,4.28,0,0,0,7.962,0h3.178a1.266,1.266,0,1,0,0-2.529ZM29.193,16.84A1.446,1.446,0,1,1,30.72,15.4,1.489,1.489,0,0,1,29.193,16.84Z" transform="translate(2.213 6.184)"/><path class="e" d="M36.352,21.16H21.719a4.28,4.28,0,0,0-7.962,0H4.851a1.266,1.266,0,1,0,0,2.529h8.906a4.28,4.28,0,0,0,7.962,0H36.352a1.266,1.266,0,1,0,0-2.529ZM17.738,23.869a1.446,1.446,0,1,1,1.527-1.444A1.489,1.489,0,0,1,17.738,23.869Z" transform="translate(2.213 9.989)"/></g></g></g></svg>