<svg xmlns="http://www.w3.org/2000/svg" width="58" height="58" viewBox="0 0 58 58"><defs><style>.a{fill:rgba(53,118,164,0.16);}.b{fill:#2fb268;}</style></defs><g transform="translate(-284 -2570)"><circle class="a" cx="29" cy="29" r="29" transform="translate(284 2570)"/><path class="b" d="M6.258,28.081H.462V9.333h5.8Zm-2.9-21.3A3.388,3.388,0,0,1,3.357,0a3.388,3.388,0,0,1,0,6.775Zm24.595,21.3H22.168V18.954c0-2.175-.044-4.964-3.014-4.964-3.014,0-3.475,2.363-3.475,4.808v9.283H9.889V9.333h5.559V11.89h.081a6.086,6.086,0,0,1,5.484-3.027c5.866,0,6.945,3.88,6.945,8.919v10.3Z" transform="translate(301.108 2582.25)"/></g></svg>