<svg xmlns="http://www.w3.org/2000/svg" xmlns:xlink="http://www.w3.org/1999/xlink" width="653" height="718" viewBox="0 0 653 718"><defs><style>.a{fill:#e0eec4;stroke:#74a112;}.b{fill:rgba(47,178,104,0.19);}.c{clip-path:url(#a);}.d{fill:#3f3d56;}.e{fill:#2fb268;}.f{fill:#ccc;}.g{fill:#f2f2f2;}.h{fill:#ffb8b8;}.i{fill:#2f2e41;}</style><clipPath id="a"><rect class="a" width="311" height="353" rx="16" transform="translate(1390 3304)"/></clipPath></defs><g transform="translate(-1219 -1853)"><rect class="b" width="359" height="424" rx="90" transform="translate(1366 2000)"/><g class="c" transform="translate(0 -1268)"><g transform="translate(1390 3368.715)"><path class="d" d="M404.438,303.681h-186.6a7.267,7.267,0,0,1-7.259-7.259V87.621a7.267,7.267,0,0,1,7.259-7.259h186.6a7.267,7.267,0,0,1,7.259,7.259v208.8a7.267,7.267,0,0,1-7.259,7.259ZM217.841,81.217a6.412,6.412,0,0,0-6.4,6.4v208.8a6.412,6.412,0,0,0,6.4,6.4h186.6a6.412,6.412,0,0,0,6.4-6.4V87.621a6.412,6.412,0,0,0-6.4-6.4Z" transform="translate(-100.697 -80.362)"/><rect class="d" width="200.261" height="0.854" transform="translate(110.312 17.759)"/><circle class="e" cx="3.416" cy="3.416" r="3.416" transform="translate(116.717 5.978)"/><circle class="e" cx="3.416" cy="3.416" r="3.416" transform="translate(127.392 5.978)"/><circle class="e" cx="3.416" cy="3.416" r="3.416" transform="translate(138.067 5.978)"/><path class="d" d="M377.751,129.467H244.528a5.551,5.551,0,1,1,0-11.1H377.751a5.551,5.551,0,1,1,0,11.1ZM244.528,119.219a4.7,4.7,0,0,0,0,9.394H377.751a4.7,4.7,0,1,0,0-9.394Z" transform="translate(-100.697 -80.362)"/><path class="f" d="M344.81,173.272H284.177a3.416,3.416,0,0,1,0-6.832H344.81a3.416,3.416,0,0,1,0,6.832Z" transform="translate(-100.697 -80.362)"/><path class="f" d="M379.824,184.8H284.177a3.416,3.416,0,0,1,0-6.832h95.647a3.416,3.416,0,0,1,0,6.832Z" transform="translate(-100.697 -80.362)"/><path class="f" d="M261.457,185.442H243.1a4.061,4.061,0,0,1-4.056-4.056V169.856A4.061,4.061,0,0,1,243.1,165.8h18.361a4.061,4.061,0,0,1,4.056,4.056v11.529a4.061,4.061,0,0,1-4.056,4.056ZM243.1,166.654a3.206,3.206,0,0,0-3.2,3.2v11.529a3.206,3.206,0,0,0,3.2,3.2h18.361a3.206,3.206,0,0,0,3.2-3.2V169.856a3.206,3.206,0,0,0-3.2-3.2Z" transform="translate(-100.697 -80.362)"/><path class="f" d="M344.81,213.837H284.177a3.416,3.416,0,0,1,0-6.832H344.81a3.416,3.416,0,0,1,0,6.832Z" transform="translate(-100.697 -80.362)"/><path class="f" d="M379.824,225.366H284.177a3.416,3.416,0,1,1,0-6.832h95.647a3.416,3.416,0,0,1,0,6.832Z" transform="translate(-100.697 -80.362)"/><path class="f" d="M261.457,226.006H243.1a4.061,4.061,0,0,1-4.056-4.056V210.421a4.061,4.061,0,0,1,4.056-4.056h18.361a4.061,4.061,0,0,1,4.056,4.056V221.95A4.061,4.061,0,0,1,261.457,226.006ZM243.1,207.218a3.206,3.206,0,0,0-3.2,3.2V221.95a3.206,3.206,0,0,0,3.2,3.2h18.361a3.206,3.206,0,0,0,3.2-3.2V210.421a3.206,3.206,0,0,0-3.2-3.2Z" transform="translate(-100.697 -80.362)"/><path class="g" d="M344.81,254.4H284.177a3.416,3.416,0,0,1,0-6.832H344.81a3.416,3.416,0,0,1,0,6.832Z" transform="translate(-100.697 -80.362)"/><path class="g" d="M379.824,265.93H284.177a3.416,3.416,0,0,1,0-6.832h95.647a3.416,3.416,0,0,1,0,6.832Z" transform="translate(-100.697 -80.362)"/><path class="g" d="M261.457,266.571H243.1a4.061,4.061,0,0,1-4.056-4.056V250.985a4.061,4.061,0,0,1,4.056-4.056h18.361a4.061,4.061,0,0,1,4.056,4.056v11.529a4.061,4.061,0,0,1-4.056,4.056Z" transform="translate(-100.697 -80.362)"/><path class="e" d="M252.277,181.914l-.989-.892c-3.511-3.224-5.829-5.316-5.829-7.922a3.708,3.708,0,0,1,3.75-3.772,4.033,4.033,0,0,1,3.068,1.44,4.033,4.033,0,0,1,3.068-1.44,3.708,3.708,0,0,1,3.75,3.772c0,2.606-2.318,4.7-5.829,7.922Z" transform="translate(-100.697 -80.362)"/><path class="e" d="M252.277,222.479l-.989-.892c-3.511-3.224-5.829-5.316-5.829-7.922a3.708,3.708,0,0,1,3.75-3.772,4.033,4.033,0,0,1,3.068,1.44,4.033,4.033,0,0,1,3.068-1.44,3.708,3.708,0,0,1,3.75,3.772c0,2.606-2.318,4.7-5.829,7.922Z" transform="translate(-100.697 -80.362)"/><path class="d" d="M174.708,215.655H156.347a4.061,4.061,0,0,1-4.056-4.056V200.069a4.061,4.061,0,0,1,4.056-4.056h18.361a4.061,4.061,0,0,1,4.056,4.056V211.6A4.061,4.061,0,0,1,174.708,215.655Zm-18.361-18.788a3.206,3.206,0,0,0-3.2,3.2V211.6a3.206,3.206,0,0,0,3.2,3.2h18.361a3.206,3.206,0,0,0,3.2-3.2V200.069a3.206,3.206,0,0,0-3.2-3.2Z" transform="translate(-100.697 -80.362)"/><path class="e" d="M165.528,212.127l-.989-.892c-3.511-3.224-5.829-5.316-5.829-7.922a3.708,3.708,0,0,1,3.75-3.772,4.033,4.033,0,0,1,3.068,1.44,4.033,4.033,0,0,1,3.068-1.44,3.708,3.708,0,0,1,3.75,3.772c0,2.606-2.318,4.7-5.829,7.922Z" transform="translate(-100.697 -80.362)"/><path class="h" d="M54.213,218.667l4.749-1.13-2.1-18.855-7.009,1.667Z"/><path class="i" d="M154.047,296.057h15.342v5.928h-9.414a5.927,5.927,0,0,1-5.927-5.927h0Z" transform="translate(287.549 472.141) rotate(166.619)"/><path class="i" d="M150.249,286.888l-10.314-35.349,12.889-3.2,7.561,37.437a1.921,1.921,0,0,1-1.826,2.3l-6.408.19h-.058a1.922,1.922,0,0,1-1.844-1.383Z" transform="translate(-100.697 -80.362)"/><path class="h" d="M24.8,218.785h4.881l2.322-18.829H24.8Z"/><path class="i" d="M124.455,297.753H139.8v5.928h-9.414a5.928,5.928,0,0,1-5.927-5.927h0Z" transform="translate(163.582 521.058) rotate(179.995)"/><path class="i" d="M124.644,291.832a1.885,1.885,0,0,1-.574-1.336l-4.447-35.263a1.924,1.924,0,0,1,1.908-1.931l9.927-.072h.014a1.927,1.927,0,0,1,1.921,1.892l.528,34.738a1.92,1.92,0,0,1-1.877,1.95l-6.026.573h-.028a1.908,1.908,0,0,1-1.345-.55Z" transform="translate(-100.697 -80.362)"/><circle class="h" cx="10.487" cy="10.487" r="10.487" transform="translate(15.587 73.779)"/><path class="e" d="M112.955,253.39c-6.823-5.331-6.751-11.551-4.423-19.86.656-2.34,1.364-4.712,2.113-7.224,3.482-11.668,7.429-24.892,5.93-35.811l.212-.029-.212.029a10.756,10.756,0,0,1,19.185-8.2c2.088,2.6,3.085,11.728,3.38,13.036a113.989,113.989,0,0,1,2.762,15.416c.694,6.838,9.011,27.281,11.661,30.709a8.113,8.113,0,0,1,1.57,6.462,7.6,7.6,0,0,1-3.61,5.182,43.4,43.4,0,0,1-13.965,5.5,34.232,34.232,0,0,1-6.5.626A29.47,29.47,0,0,1,112.955,253.39Z" transform="translate(-100.697 -80.362)"/><path class="h" d="M156.567,213.88a4,4,0,0,0-6-1.308l-7.947-4.535-3.934,4.157L150,218.441a4.026,4.026,0,0,0,6.567-4.561Z" transform="translate(-100.697 -80.362)"/><path class="i" d="M144.452,216.953l-14.243-4.475a9.8,9.8,0,0,1-6.836-8.893l-.613-13.839a5.795,5.795,0,1,1,11.581-.078L133.95,202.4l15.159,6.182a1.922,1.922,0,0,1,.845,2.887l-3.355,4.758a1.917,1.917,0,0,1-2.146.726Z" transform="translate(-100.697 -80.362)"/><path class="i" d="M109.87,177.679a51.486,51.486,0,0,0,.444-8.734c0-.782-.009-1.564,0-2.344.022-3.627.247-7.471,1.73-11.01,1.614-3.851,4.6-6.632,7.994-7.439,3.824-.911,7.973,1.1,9.222,4.417a6.408,6.408,0,1,1,3.906,11.943l-.16.014-1.25-3.247c-.007.057-.014.114-.021.172a2.342,2.342,0,0,1-.718,1.772h0a4.434,4.434,0,0,0-1.306,3.828,14.434,14.434,0,0,0,.7,2.511,13.783,13.783,0,0,1,.744,2.767,4.725,4.725,0,0,1-.885,3.422,2.642,2.642,0,0,1-1.81,1.039l-14.086,1.457-.63-4.7-4.007,4.935Z" transform="translate(-100.697 -80.362)"/><path class="f" d="M183.107,303.933H101.124a.427.427,0,0,1,0-.854h81.983a.427.427,0,0,1,0,.854Z" transform="translate(-100.697 -80.362)"/></g></g></g></svg>