<svg xmlns="http://www.w3.org/2000/svg" xmlns:xlink="http://www.w3.org/1999/xlink" width="653" height="718" viewBox="0 0 653 718"><defs><style>.a{fill:#e0eec4;stroke:#74a112;}.b{fill:rgba(47,178,104,0.19);}.c{clip-path:url(#a);}.d{fill:#f2f2f2;}.e{fill:#fff;}.f{fill:#ccc;}.g{fill:#74a112;}.h{fill:#3f3d56;}.i{fill:#2fb268;}.j{fill:#ffb8b8;}.k{fill:#2f2e41;}.l{opacity:0.2;}.m{fill:#e6e6e6;}</style><clipPath id="a"><rect class="a" width="311" height="353" rx="16" transform="translate(805 3304)"/></clipPath></defs><g transform="translate(-634 -1853)"><rect class="b" width="359" height="424" rx="90" transform="translate(781 2000)"/><g class="c" transform="translate(0 -1268)"><g transform="translate(805 3339.736)"><path class="d" d="M296.934,141.89H192.925a6.742,6.742,0,0,1-6.734-6.734V53.466a4.939,4.939,0,0,1,4.933-4.934H298.649a5.025,5.025,0,0,1,5.019,5.019v81.6a6.742,6.742,0,0,1-6.734,6.734Z" transform="translate(-89.382 -42.898)"/><path class="e" d="M199.455,135.156H290.4a6.53,6.53,0,0,0,6.53-6.53V65.957a6.53,6.53,0,0,0-6.53-6.53H199.455a6.53,6.53,0,0,0-6.53,6.53v62.669A6.53,6.53,0,0,0,199.455,135.156Z" transform="translate(-89.382 -42.898)"/><path class="f" d="M303.574,53.081H186.1V49.653a6.764,6.764,0,0,1,6.759-6.755H296.815a6.764,6.764,0,0,1,6.759,6.755Z" transform="translate(-89.382 -42.898)"/><circle class="e" cx="1.748" cy="1.748" r="1.748" transform="translate(107.249 3.353)"/><circle class="e" cx="1.748" cy="1.748" r="1.748" transform="translate(113.885 3.353)"/><circle class="e" cx="1.748" cy="1.748" r="1.748" transform="translate(120.52 3.353)"/><path class="g" d="M206.148,88.795h-4.5a.922.922,0,0,1-.921-.921v-4.5a.922.922,0,0,1,.921-.921h4.5a.922.922,0,0,1,.921.921v4.5a.922.922,0,0,1-.921.921Z" transform="translate(-89.382 -42.898)"/><path class="h" d="M206.148,100.465h-4.5a.922.922,0,0,1-.921-.921v-4.5a.922.922,0,0,1,.921-.921h4.5a.922.922,0,0,1,.921.921v4.5a.922.922,0,0,1-.921.921Z" transform="translate(-89.382 -42.898)"/><path class="f" d="M206.148,112.135h-4.5a.922.922,0,0,1-.921-.921v-4.5a.922.922,0,0,1,.921-.921h4.5a.922.922,0,0,1,.921.921v4.5A.922.922,0,0,1,206.148,112.135Z" transform="translate(-89.382 -42.898)"/><path class="f" d="M235.63,86.543h-21.7a.921.921,0,1,1,0-1.843h21.7a.921.921,0,1,1,0,1.843Z" transform="translate(-89.382 -42.898)"/><path class="f" d="M235.63,98.213h-21.7a.921.921,0,1,1,0-1.843h21.7a.921.921,0,1,1,0,1.843Z" transform="translate(-89.382 -42.898)"/><path class="f" d="M235.63,109.883h-21.7a.921.921,0,1,1,0-1.843h21.7a.921.921,0,1,1,0,1.843Z" transform="translate(-89.382 -42.898)"/><path class="i" d="M289.1,97.584c.023-.387.036-.777.036-1.17A19.312,19.312,0,0,0,269.824,77.1V97.584Z" transform="translate(-89.382 -42.898)"/><path class="h" d="M268.361,99.34V78.857A19.312,19.312,0,1,0,287.637,99.34Z" transform="translate(-89.382 -42.898)"/><path class="f" d="M399.974,324.425H89.79a.408.408,0,1,1,0-.816H399.974a.408.408,0,1,1,0,.816Z" transform="translate(-89.382 -42.898)"/><path class="j" d="M295.364,211.428a4.37,4.37,0,0,1,.363.584l20.453,2.3,2.975-4.019,6.652,3.7-5.856,9.763-25.058-6.576a4.356,4.356,0,1,1,.47-5.748Z" transform="translate(-89.382 -42.898)"/><path class="j" d="M191,206.147a4.1,4.1,0,0,1-5.928-2.112l-14.582.3,4.04-6.413,13.228.694A4.126,4.126,0,0,1,191,206.147Z" transform="translate(-89.382 -42.898)"/><path class="h" d="M184.594,204.311a1.84,1.84,0,0,1-1.807,1.312l-26.687-.678-24.164-7.155a5.232,5.232,0,1,1,3.115-9.989l21.831,7.159,26.2,2.529a1.846,1.846,0,0,1,1.66,1.859l-.076,4.469a1.845,1.845,0,0,1-.075.494Z" transform="translate(-89.382 -42.898)"/><path class="j" d="M56.511,276.146h5l2.381-19.3H56.51Z"/><path class="k" d="M144.616,317.409h9.854a6.28,6.28,0,0,1,6.28,6.28v.2H144.617Z" transform="translate(-89.382 -42.898)"/><path class="j" d="M41.818,276.146h5l2.381-19.3H41.817Z"/><path class="k" d="M129.923,317.409h9.854a6.28,6.28,0,0,1,6.28,6.28v.2H129.924Z" transform="translate(-89.382 -42.898)"/><path class="k" d="M127.842,241.045l1.195,70.891a1.633,1.633,0,0,0,1.78,1.6l5.855-.532a1.633,1.633,0,0,0,1.48-1.5l3.428-44.22a.408.408,0,0,1,.815.016l1.713,45.232a1.633,1.633,0,0,0,1.631,1.571h6.279a1.633,1.633,0,0,0,1.63-1.533l4.4-71.932-26.121-6.53Z" transform="translate(-89.382 -42.898)"/><circle class="j" cx="10.024" cy="10.024" r="10.024" transform="translate(47.382 111.533)"/><path class="h" d="M157.66,243.673h-.029l-23.44-.361a1.836,1.836,0,0,1-1.8-1.654L132.126,239a.2.2,0,0,0-.406,0l-.274,2.741a1.834,1.834,0,0,1-1.687,1.648l-1.656.128a1.836,1.836,0,0,1-1.917-2.3l1.426-5.438a74.093,74.093,0,0,0,.693-34.553l-.709-3.224a11.643,11.643,0,0,1,5.5-12.577l4.6-2.7,2.089-3.133a4.524,4.524,0,0,1,3.664-2.009c2.914-.064,7.912.47,8.851,4.731a11.632,11.632,0,0,1,7.87,11.2l-.676,48.34a1.837,1.837,0,0,1-1.836,1.811Z" transform="translate(-89.382 -42.898)"/><path class="k" d="M146,170.233c-.041,1.417-1.025,2.237-2.233,2.979a12.918,12.918,0,0,1-4,1.374,1.224,1.224,0,0,1-1.8-1.071L136.7,168.69a30.546,30.546,0,0,1-.977-4.709,10.815,10.815,0,0,1,2.56-8.578c2.139-2.216,5.849-3,8.412-1.3,3.042-3.885,16.947,4.7,13.517,7.4-.61.481-1.543-.128-2.318-.186a2.473,2.473,0,0,0-2.135.678c-.643.785-.363,1.955-.628,2.935a2.74,2.74,0,0,1-3.463,1.775,9.425,9.425,0,0,1-1.8-1.154,2.31,2.31,0,0,0-2.014-.439c-.882.329-1.195,1.408-1.274,2.346a21.731,21.731,0,0,1-.584,2.77Z" transform="translate(-89.382 -42.898)"/><path class="l" d="M58.963,154.2l1.633,20,8.571,20.815L56.514,174.609Z"/><path class="d" d="M253.787,306.614l-89.451-53.069a6.742,6.742,0,0,1-2.356-9.228l41.681-70.256a4.939,4.939,0,0,1,6.76-1.726L302.9,227.2a5.025,5.025,0,0,1,1.756,6.877l-41.637,70.183A6.742,6.742,0,0,1,253.787,306.614Z" transform="translate(-89.382 -42.898)"/><path class="e" d="M173.388,251.085l78.219,46.4a6.53,6.53,0,0,0,8.948-2.284l31.975-53.9a6.53,6.53,0,0,0-2.284-8.948l-78.219-46.4a6.53,6.53,0,0,0-8.948,2.284l-31.975,53.9A6.53,6.53,0,0,0,173.388,251.085Z" transform="translate(-89.382 -42.898)"/><path class="f" d="M304.811,233.622,203.776,173.681l1.749-2.949a6.764,6.764,0,0,1,9.259-2.361l89.41,53.044a6.764,6.764,0,0,1,2.366,9.258Z" transform="translate(-89.382 -42.898)"/><circle class="e" cx="1.748" cy="1.748" r="1.748" transform="translate(125.803 130.932)"/><circle class="e" cx="1.748" cy="1.748" r="1.748" transform="translate(131.51 134.318)"/><circle class="e" cx="1.748" cy="1.748" r="1.748" transform="translate(137.217 137.704)"/><rect class="m" width="0.223" height="1.337" transform="translate(192.836 201.147) rotate(-59.321)"/><path class="m" d="M279.894,242.668l-2.323-1.378.114-.192,2.323,1.378Zm-4.646-2.757-2.323-1.378.114-.192,2.323,1.378Zm-4.646-2.757-2.323-1.378.114-.192,2.323,1.378Zm-4.646-2.757-2.323-1.378.114-.192,2.323,1.378Zm-4.646-2.757-2.323-1.378.114-.192,2.323,1.378Zm-4.646-2.757-2.323-1.378.114-.192,2.323,1.378Zm-4.646-2.757-2.323-1.378.114-.192,2.323,1.378Zm-4.646-2.757-2.323-1.378.114-.192,2.323,1.378Zm-4.646-2.757-2.323-1.378.114-.192,2.323,1.378Zm-4.646-2.757-2.323-1.378.114-.192,2.323,1.378ZM233.43,215.1l-2.323-1.378.114-.192,2.323,1.378Zm-4.646-2.757-2.323-1.378.114-.192,2.323,1.378Zm-4.646-2.757-2.323-1.378.114-.192,2.323,1.378Zm-4.646-2.757-2.323-1.378.114-.192,2.323,1.378Zm-4.646-2.757-2.323-1.378.114-.192,2.323,1.378Zm-4.646-2.757-2.323-1.378.114-.192,2.323,1.378Z" transform="translate(-89.382 -42.898)"/><rect class="m" width="0.223" height="1.337" transform="translate(115.021 154.982) rotate(-59.321)"/><rect class="m" width="0.223" height="1.337" transform="translate(144.503 196.571) rotate(-59.321)"/><path class="m" d="M231.6,238.113l-2.289-1.358.114-.192,2.289,1.358Zm-4.577-2.716-2.289-1.358.114-.192,2.289,1.358Zm-4.578-2.715-2.289-1.358.114-.192,2.289,1.358Zm-4.577-2.716-2.289-1.358.114-.192,2.289,1.358Zm-4.577-2.716L211,225.892l.114-.192,2.289,1.358Zm-4.577-2.716-2.289-1.358.114-.192,2.289,1.358Zm-4.577-2.716-2.289-1.358.114-.192,2.289,1.358Zm-4.577-2.716-2.289-1.358.114-.192,2.289,1.358Z" transform="translate(-89.382 -42.898)"/><rect class="m" width="0.223" height="1.337" transform="translate(104.446 172.807) rotate(-59.321)"/><rect class="m" width="0.223" height="1.337" transform="translate(117.075 191.701) rotate(-59.321)"/><path class="m" d="M204.1,233.2l-2.355-1.4.114-.192,2.355,1.4Zm-4.709-2.794-2.355-1.4.114-.192,2.355,1.4Zm-4.709-2.794-2.355-1.4.114-.192,2.355,1.4Z" transform="translate(-89.382 -42.898)"/><rect class="m" width="0.223" height="1.337" transform="translate(99.442 181.24) rotate(-59.321)"/><rect class="m" width="0.223" height="1.337" transform="translate(108.538 206.093) rotate(-59.321)"/><path class="m" d="M195.564,247.594l-2.355-1.4.114-.192,2.355,1.4Zm-4.709-2.794-2.355-1.4.114-.192,2.355,1.4Zm-4.709-2.794-2.355-1.4.114-.192,2.355,1.4Z" transform="translate(-89.382 -42.898)"/><rect class="m" width="0.223" height="1.337" transform="translate(90.904 195.631) rotate(-59.321)"/><path class="i" d="M186.682,242.524l66.285,39.325a7.047,7.047,0,0,0,9.645-2.462l19.367-32.645-.133-.074L237.9,257.883l-3.481-13.629a1.683,1.683,0,0,0-.974-1.137,1.794,1.794,0,0,0-1.15-.065l-23.028,5.877-2.545-9.965a1.69,1.69,0,0,0-2.056-1.219C204.515,237.786,189.531,241.757,186.682,242.524Z" transform="translate(-89.382 -42.898)"/><path class="h" d="M186.286,242.548l-.055-.216,18.427-4.7a1.9,1.9,0,0,1,2.3,1.367l2.494,9.769,22.9-5.846a1.9,1.9,0,0,1,2.3,1.367l3.429,13.433,44.171-11.276.055.216-44.387,11.331-3.484-13.649a1.671,1.671,0,0,0-2.033-1.206l-23.116,5.9-2.549-9.985a1.673,1.673,0,0,0-2.033-1.206Z" transform="translate(-89.382 -42.898)"/><circle class="h" cx="1.56" cy="1.56" r="1.56" transform="translate(116.722 190.729)"/><circle class="h" cx="1.56" cy="1.56" r="1.56" transform="translate(144.15 195.599)"/><circle class="h" cx="1.56" cy="1.56" r="1.56" transform="translate(191.934 199.356)"/><path class="j" d="M160.552,245.664a4.1,4.1,0,0,1-.13-6.292l-5.46-13.524,7.429,1.5,4.046,12.613a4.126,4.126,0,0,1-5.885,5.7Z" transform="translate(-89.382 -42.898)"/><path class="h" d="M160.462,239.805a1.84,1.84,0,0,1-1.868-1.224l-8.839-25.19-1.889-25.13a5.232,5.232,0,1,1,10.444-.633l1.057,22.951,6.937,25.394a1.846,1.846,0,0,1-1.149,2.212L160.95,239.7a1.847,1.847,0,0,1-.488.105Z" transform="translate(-89.382 -42.898)"/><path class="g" d="M324.354,217.486a1.872,1.872,0,0,1-.456-.284l-8.22-6.925a1.867,1.867,0,0,1-.12-2.746l7.459-7.49a1.858,1.858,0,0,1,2.42-.193l5.641,4.1a1.868,1.868,0,0,1,.591,2.309l-4.88,10.318a1.869,1.869,0,0,1-2.436.914Z" transform="translate(-89.382 -42.898)"/><path class="j" d="M267.034,272.525l-4.909,1.336-7.489-18.3,7.246-1.971Z"/><path class="k" d="M348.262,315.724h9.915V321.9H342.187v-.1A6.076,6.076,0,0,1,348.262,315.724Z" transform="translate(-160.799 60.222) rotate(-15.221)"/><path class="j" d="M225.063,276.271h-5.088l-2.421-19.625h7.51Z"/><path class="k" d="M216.238,274.817h9.915V281h-15.99v-.1A6.076,6.076,0,0,1,216.238,274.817Z"/><circle class="j" cx="10.193" cy="10.193" r="10.193" transform="translate(222.535 126.309)"/><path class="k" d="M314.134,305.176h-6.953a1.873,1.873,0,0,1-1.866-1.752c-2.072-32.936-.86-56.562,3.814-74.351a1.942,1.942,0,0,1,.076-.229l.372-.931a1.859,1.859,0,0,1,1.734-1.174h14.3a1.865,1.865,0,0,1,1.418.652l1.942,2.266c.038.044.073.089.108.137,8.757,12.212,16.605,36.087,25.695,68.178a1.861,1.861,0,0,1-1.228,2.289l-7.472,2.391a1.878,1.878,0,0,1-2.251-.968l-19.391-40.218a1.453,1.453,0,0,0-2.747.434l-5.7,41.662A1.875,1.875,0,0,1,314.134,305.176Z" transform="translate(-89.382 -42.898)"/><path class="i" d="M328.185,229.822h-.059l-17.368-.548a1.861,1.861,0,0,1-1.8-1.641c-2.2-17.821,3.836-22.6,6.535-23.821a1.436,1.436,0,0,0,.835-1.138l.233-1.868a1.86,1.86,0,0,1,.369-.907,21.342,21.342,0,0,1,13.074-7.793,1.865,1.865,0,0,1,2.179,1.6l.35,2.682a1.477,1.477,0,0,0,.3.7c8.823,11.534-1.006,28.564-3.066,31.861h0a1.871,1.871,0,0,1-1.582.875Z" transform="translate(-89.382 -42.898)"/><path class="k" d="M333.325,173.061a42.266,42.266,0,0,1-1.67-7.041,4.769,4.769,0,0,1,1.259-3.85c1.9-1.8,5.12-.941,7.1.76,2.867,2.458,4.3,6.236,4.837,9.973s.3,7.538.433,11.312.67,7.655,2.594,10.9,5.495,5.744,9.261,5.467a6.517,6.517,0,0,0,4.08-1.729,4.731,4.731,0,0,0,1.421-4.108,9.22,9.22,0,0,1-1.922,10.828,11.471,11.471,0,0,1-11.062,2.319,15.289,15.289,0,0,1-8.737-7.542,23.157,23.157,0,0,1-2.437-11.457c.076-3.031.591-6.086.079-9.074s-2.382-6.022-5.331-6.726Z" transform="translate(-89.382 -42.898)"/><path class="k" d="M320.082,176.989a3.772,3.772,0,0,1-4.156,2.431,4.873,4.873,0,0,1-3.678-3.381,6.961,6.961,0,0,1,.544-5.1,7.947,7.947,0,0,1,4.547-4.05,6.525,6.525,0,0,1,5.933.948,2.182,2.182,0,0,1,1.525-1.595,4.17,4.17,0,0,1,2.288.034,9.428,9.428,0,0,1,5.247,3.817,15.342,15.342,0,0,1,2.378,6.131c.585,3.286.37,6.877-1.476,9.659s-5.622,4.424-8.685,3.1a4.047,4.047,0,0,1,.785-2.806,8.557,8.557,0,0,0,1.345-2.645,2.135,2.135,0,0,0-1.127-2.485c-.8-.272-1.662.169-2.509.222a2.749,2.749,0,0,1-2.637-3.961Z" transform="translate(-89.382 -42.898)"/><path class="j" d="M294.248,218.982a4.371,4.371,0,0,1,.467.505l20.52-1.6,2.164-4.508,7.23,2.376-3.91,10.691-25.848-1.735a4.356,4.356,0,1,1-.622-5.733Z" transform="translate(-89.382 -42.898)"/><path class="i" d="M324.517,222.879a1.873,1.873,0,0,1-.49-.22l-9.087-5.74a1.867,1.867,0,0,1-.493-2.7l6.369-8.437a1.858,1.858,0,0,1,2.372-.521l6.147,3.289a1.868,1.868,0,0,1,.9,2.207l-3.428,10.887a1.869,1.869,0,0,1-2.289,1.238Z" transform="translate(-89.382 -42.898)"/></g></g></g></svg>