<svg xmlns="http://www.w3.org/2000/svg" width="175.485" height="32.513" viewBox="0 0 175.485 32.513"><defs><style>.a,.b{fill:#b2b4ad;}.a{font-size:24px;font-family:CenturyGothic-Bold, Century Gothic;font-weight:700;letter-spacing:0.012em;}</style></defs><g transform="translate(-169.515 -855.487)"><text class="a" transform="translate(232 883)"><tspan x="0" y="0">NETWORK</tspan></text><path class="b" d="M5.321,13.532A3.662,3.662,0,0,0,8.868,9.771,3.662,3.662,0,0,0,5.321,6.011,3.662,3.662,0,0,0,1.774,9.771,3.662,3.662,0,0,0,5.321,13.532Zm24.83,0A3.662,3.662,0,0,0,33.7,9.771a3.553,3.553,0,1,0-7.094,0A3.662,3.662,0,0,0,30.15,13.532Zm1.774,1.88H28.377a3.438,3.438,0,0,0-2.5,1.093,8.61,8.61,0,0,1,4.162,6.428H33.7a1.827,1.827,0,0,0,1.774-1.88v-1.88A3.662,3.662,0,0,0,31.924,15.412Zm-14.188,0a6.4,6.4,0,0,0,6.207-6.581A6.4,6.4,0,0,0,17.735,2.25a6.4,6.4,0,0,0-6.207,6.581A6.4,6.4,0,0,0,17.735,15.412Zm4.257,1.88h-.46a8.136,8.136,0,0,1-7.593,0h-.46a6.587,6.587,0,0,0-6.385,6.769v1.692a2.745,2.745,0,0,0,2.66,2.82H25.716a2.745,2.745,0,0,0,2.66-2.82V24.061A6.587,6.587,0,0,0,21.992,17.292ZM9.594,16.5a3.438,3.438,0,0,0-2.5-1.093H3.547A3.662,3.662,0,0,0,0,19.172v1.88a1.827,1.827,0,0,0,1.774,1.88H5.426A8.631,8.631,0,0,1,9.594,16.5Z" transform="translate(169.515 853.237)"/></g></svg>