<svg xmlns="http://www.w3.org/2000/svg" xmlns:xlink="http://www.w3.org/1999/xlink" width="653" height="718" viewBox="0 0 653 718"><defs><style>.a{fill:#e0eec4;stroke:#74a112;}.b{fill:rgba(47,178,104,0.19);}.c{clip-path:url(#a);}.d{fill:#e6e6e6;}.e{opacity:0.1;}.f{fill:#2f2e41;}.g{fill:#9f616a;}.h{fill:#d0cde1;}.i{fill:#2fb268;}.j{fill:#3f3d56;}.k{fill:#ff6584;}</style><clipPath id="a"><rect class="a" width="311" height="368" rx="16" transform="translate(220 1912)"/></clipPath></defs><g transform="translate(-48 -775)"><rect class="b" width="359" height="424" rx="90" transform="translate(195 922)"/><g class="c" transform="translate(-1 -954)"><g transform="translate(220 1985.804)"><path class="d" d="M58.487,187.662H54.635v33.984s24.866,8.4,49.031,0V187.662Z" transform="translate(-54.635 -45.945)"/><ellipse class="d" cx="24.165" cy="3.837" rx="24.165" ry="3.837" transform="translate(0 138.063)"/><ellipse class="e" cx="24.165" cy="3.837" rx="24.165" ry="3.837" transform="translate(0 138.063)"/><path class="f" d="M87.3,108.513s14.831.421,17.28,1.35,3.545,7.578,3.545,7.578l-11.515,3.776L88,120.709l-6.482.478,3.619-9.89Z" transform="translate(-54.635 -49.379)"/><path class="g" d="M87.943,103.647s.976,3.932-1.19,6.716,9.31,12.705,9.31,12.705l6.054-1.086s-1.334-12.082.458-15.142S87.943,103.647,87.943,103.647Z" transform="translate(-54.635 -49.59)"/><path class="g" d="M73.569,162,60.212,180.478l9.116,5.553,12.545-21.416Z" transform="translate(0 7.026)"/><path class="f" d="M118.834,232.046s-4.919-5.963-4.7-4.633-3.5,12.607-.04,13.7,33.131,3.984,33.54.488-8.852-5.942-8.852-5.942-5.5-5.516-6.721-4.955S118.834,232.046,118.834,232.046Z" transform="translate(-54.635 -44.23)"/><path class="g" d="M70.572,178.973l10.669,18.965L89.3,193.07,78.537,177.544Z" transform="translate(0 7.701)"/><path class="h" d="M142.049,187.562l-3.166,4.675s-15.094,21.873-13.491,23.64,8.279,8.441,11.674,7.147,15.458-23.65,15.458-23.65l-3.146-13.126Z" transform="translate(-54.635 -46.007)"/><path class="h" d="M77.025,184.326a19.336,19.336,0,0,0,11.948,8.81c8.568,2.228,17.519,6.784,17.838,6.727s1.22-.561,1.439.769,2.569,3.646,2.569,3.646,9.464,33.555,13.078,33.592,11.042-2.665,11.2-3.719-11.067-35.322-11.177-35.986l-1.314-7.979s14.841,2.472,16.225,2.909,13.7,7.469,13.7,7.469,12.551-9.438.811-18.97-31.917-16.523-31.917-16.523l-7.239-2.124-6.309-.393-.929-3.717-14.941.9-15.592,6.9Z" transform="translate(-54.635 -47.196)"/><ellipse class="g" cx="11.638" cy="12.143" rx="11.638" ry="12.143" transform="translate(30.471 37.597)"/><path class="i" d="M86.216,108.874l1.4-.251s2.528,10.157,10.349,11.834c0,0,3.859-4.824,3.694-5.638s3.056-5.156,4.769-2.725-.418,45.253,1.021,46.022,4.525,1.584,2.041,4.426-12.351,6.664-14.537,5.345-6.651-12.5-8.583-16.258-5.023-16.554-5.023-16.554-3.948-14.009-1.518-17.183S86.216,108.874,86.216,108.874Z" transform="translate(-54.635 -49.374)"/><path class="f" d="M97.354,161.592a72.056,72.056,0,0,1-1.333,8.868c-.571,2.378-1.235,3.814-1.994,3.753-1.935-.151-2.815,2.811-3.268,6.225-.485,3.622-.485,7.754-.751,9.215-.352,1.929-2.6,3.4-7.1,2.97a30.669,30.669,0,0,1-7.827-2c-6.075-2.3-5.9-20.995-4.879-34.864.622-8.5,1.556-15.195,1.556-15.195a78.089,78.089,0,0,1-2.436-9.68,13.411,13.411,0,0,1-.176-2.174c.09-3.439,6.021-7.835,9.657-13.623s8.69-6.438,8.69-6.438l-1.728,5.441s2.678,4.312,2.7,8.415,6.412,7.065,8.706,9.051C98.609,132.8,98.574,149.465,97.354,161.592Z" transform="translate(-54.635 -49.373)"/><path class="f" d="M102.408,110.509s.419.517,2.34.265c2.3-.3,5.47.529,6.206,2.823,1.349,4.207,5.153,21.323,5.153,21.323s1.583,19.567,2.3,23.889.358,8.15,1.06,10.42-6.93-4.233-9.743-3.387-4.62-10.124-4.267-13.952.652-7.989-.324-11.921.754-14.339.689-16.723S99.616,114.852,102.408,110.509Z" transform="translate(-54.635 -49.292)"/><path class="g" d="M110.643,168.8s12.323,7.014,13.5,17-16.482-9.667-16.482-9.667Z" transform="translate(-54.635 -46.764)"/><path class="g" d="M117.677,162.057s3.776,19.858,9.658,18.8-3.286-19.946-3.286-19.946Z" transform="translate(-54.635 -47.106)"/><path class="f" d="M137.822,245.1s-3.012,3.62-3.759,3.07-2.464,6.945-.916,8.378,7.512,3.787,7.577,6.171,16.06,1.911,16.633-.587-2.006-8.2-3.818-9.241-8.513-10.653-8.513-10.653S139.779,243.04,137.822,245.1Z" transform="translate(-54.635 -43.578)"/><path class="e" d="M108.68,182.7c-2.858-2.1-10.837-2.627-17.921-3.112-3.108-.208-6.044-.412-8.3-.742-2.174-.314-4.128-2.386-5.864-5.474-2.631-4.679-4.758-11.695-6.4-18.466.622-8.5,1.556-15.195,1.556-15.195a78.091,78.091,0,0,1-2.436-9.68,5.045,5.045,0,0,1,1.572-1.477c7.514-3.365,14.688,29.753,15.6,34.95.016.086.027.167.039.237.442,2.676,5.215,4.964,9.492,5.87,2.635.559,5.086.6,6.216-.131,2.967-1.9,12.092,5.707,12.784,5.923S112.785,185.727,108.68,182.7Z" transform="translate(-54.635 -48.52)"/><path class="f" d="M70.892,126.6s-5.461,2.691-3.062,15.266,7.234,33.955,14.627,35.025,22.114.826,26.221,3.854,7.034-7.08,6.342-7.3-9.817-7.823-12.785-5.922-14.995-1.418-15.707-5.74S78.529,123.174,70.892,126.6Z" transform="translate(-54.635 -48.605)"/><path class="f" d="M110.246,120.807l6,14.531s.6-.315,1.306,1.955,1.031,4.265,2.26,5.755,6.7,22.756,6.865,23.754-7.557,4.436-9.282,1.665S110.246,120.807,110.246,120.807Z" transform="translate(-54.635 -48.845)"/><path class="f" d="M90.123,99.983c.446-.124.512-.742.527-1.224.08-2.578,1.568-5.224,3.933-5.974a6.347,6.347,0,0,1,2.787-.16,10.261,10.261,0,0,1,3.775,1.314,5.774,5.774,0,0,0,1.919.907c.461.073,2.46.679,2.919.764,1.01.188,1.949,1.131,2.919.78.928-.336,1.133-1.589,1.155-2.613.051-2.333-2.7-4.466-4.192-6.2a7.672,7.672,0,0,0-4.513-2.241,28.817,28.817,0,0,0-5.9-.375c-2.673.05-2.968-.831-5.378.375a7.892,7.892,0,0,0-4.55,6.394c-.024.58.033,1.163-.013,1.742-.114,1.412-1.183,2.322-1.52,3.7a7.7,7.7,0,0,0,.995,5.938c.894,1.373,1.145,2.391,2.222,3.881.646-.7.268-.639.915-1.337a1.708,1.708,0,0,0,.474-2.03l-.686-2.794a2.624,2.624,0,0,1-.059-1.555C88.584,97.374,89.379,100.19,90.123,99.983Z" transform="translate(-54.635 -50.412)"/><path class="j" d="M365.588,136.863c-2.418-19.481-5.14-39.107-8.134-58.618q-2.017-13.118-4.188-26.143l-.044-.265-.257.012q-4.437.171-8.906.222-2.424.032-4.845.034c-5.323.012-10.635-.052-15.846-.114-5.335-.065-10.738-.129-16.167-.111-3.536.012-7.084.058-10.629.163-5.5.163-10.994.465-16.447.994-5.63.545-11.328,1.342-16.84,2.114-6.276.88-12.764,1.788-19.178,2.326-11.791.991-23.811.772-35.437.563-6.273-.114-12.758-.231-19.137-.157-.277,0-.661-.022-1.1-.055-1.625-.117-3.852-.28-4.512.837-.451.757.08,3.071.761,5.791.177.7.33,1.311.375,1.609.7,4.5,1.253,9.1,1.654,13.644a212.374,212.374,0,0,1,.6,28.109,209.974,209.974,0,0,1-3.722,30.989l-.065.329.319.04a682.222,682.222,0,0,0,70.208,4.939c3.583.071,6.957.111,10.163.114.31,0,.616,0,.92,0,2.527,0,4.952-.022,7.29-.062q2.252-.042,4.4-.108c2.61-.083,5.12-.194,7.565-.335.2-.009.392-.022.587-.034q1.04-.06,2.067-.132,1.659-.111,3.288-.243c7.541-.609,15.176-1.594,22.62-2.585q1.252-.171,2.495-.335c.56-.074,1.121-.151,1.684-.225,11.219-1.5,22.685-2.976,34.142-3.268.442-.012.888-.025,1.33-.031q3.45-.065,6.9.037,2.893.083,5.78.3l.36.025Zm-6.4-.578q-3.322-.092-6.644-.025c-.513.006-1.023.018-1.536.034-11.979.323-23.953,1.929-35.644,3.5l-1.247.166-.95.129c-7.529,1.006-15.259,2.006-22.885,2.622-.867.071-1.737.135-2.616.2-.905.065-1.817.123-2.74.178l-.59.037c-2.457.138-4.984.249-7.609.329q-2.57.083-5.273.123c-2.339.037-4.766.052-7.3.043-3.188-.006-6.544-.043-10.1-.114a682.166,682.166,0,0,1-69.83-4.9,210.959,210.959,0,0,0,3.669-30.755,212.665,212.665,0,0,0-.6-28.2c-.4-4.563-.958-9.167-1.657-13.687-.053-.329-.2-.92-.386-1.668-.386-1.529-1.186-4.717-.832-5.311.475-.8,2.578-.646,3.973-.545.454.031.843.058,1.147.055,6.37-.074,12.852.043,19.122.157,11.637.209,23.673.428,35.493-.566,6.429-.538,12.926-1.449,19.211-2.329,5.5-.769,11.195-1.566,16.816-2.111.431-.043.858-.083,1.289-.12.2-.018.4-.037.59-.052,4.722-.412,9.476-.665,14.23-.809,3.657-.111,7.314-.16,10.959-.172,5.409-.018,10.8.046,16.114.111,5.2.065,10.487.126,15.793.114,1.637,0,3.274-.012,4.91-.037q4.344-.051,8.665-.209,2.092,12.554,4.04,25.223c3.014,19.592,5.757,39.3,8.187,58.87q-2.881-.212-5.767-.283Z" transform="translate(-54.635 -51.837)"/><path class="j" d="M230.7,142.08c-1.016-7.572-.105-15.3.776-22.771.471-3.993.957-8.122,1.145-12.181.4-8.555-.523-17.24-1.411-25.639a190.729,190.729,0,0,1-1.5-23.167l.59.011A190.247,190.247,0,0,0,231.8,81.422c.89,8.422,1.811,17.132,1.414,25.736-.188,4.081-.677,8.222-1.149,12.226-.876,7.433-1.782,15.119-.777,22.61Z" transform="translate(-54.635 -51.556)"/><path class="j" d="M284.44,144.435c-2.285-30.269-3.284-61.011-2.97-91.372l.59.007c-.314,30.342.684,61.066,2.968,91.317Z" transform="translate(-54.635 -51.784)"/><path class="j" d="M195.747,66.794l-.062-.612a154.472,154.472,0,0,1,21.6-.86l-.017.615a153.842,153.842,0,0,0-21.52.857Z" transform="translate(-54.635 -51.255)"/><path class="j" d="M246.378,64.349l-.017-.615A92.585,92.585,0,0,0,257.088,63a93.1,93.1,0,0,0,11.747-2.793l.155.594A93.54,93.54,0,0,1,257.17,63.61,93.1,93.1,0,0,1,246.378,64.349Z" transform="translate(-54.635 -51.474)"/><path class="j" d="M331.961,60.138c-.437,0-.871,0-1.3-.008l-33.63-.291,0-.615,33.63.291a27.833,27.833,0,0,0,6.981-.528l.137.6a23.939,23.939,0,0,1-5.82.552Z" transform="translate(-54.635 -51.527)"/><path class="i" d="M205.8,96.659H192.533c1.493-6.39,2.927-12.356,0-16.616H205.8A19.359,19.359,0,0,1,205.8,96.659Z" transform="translate(-54.635 -50.613)"/><path class="i" d="M267.62,126.235H254.349c-.83-7.7,1-13.444,0-16.616H267.62a90.431,90.431,0,0,0,0,16.616Z" transform="translate(-54.635 -49.331)"/><path class="i" d="M252.105,103.737H238.834c.5-6.389,2.1-12.355,0-16.616h13.271A19.353,19.353,0,0,1,252.105,103.737Z" transform="translate(-54.635 -50.306)"/><path class="k" d="M265.672,90.17h13.271c.83-6.39-1-12.356,0-16.616H265.672A19.353,19.353,0,0,0,265.672,90.17Z" transform="translate(-54.635 -50.895)"/><path class="j" d="M205.509,123.791H218.78c.83-6.39-1-12.356,0-16.616H205.509A19.353,19.353,0,0,0,205.509,123.791Z" transform="translate(-54.635 -49.437)"/></g></g></g></svg>