<svg xmlns="http://www.w3.org/2000/svg" xmlns:xlink="http://www.w3.org/1999/xlink" width="543" height="498" viewBox="0 0 543 498"><defs><style>.a{fill:#fff;stroke:#707070;}.b{fill:rgba(47,178,104,0.38);}.c{clip-path:url(#a);}.d{fill:#a0616a;}.e{fill:#2f2e41;}.f{fill:#575a89;}.g{opacity:0.5;}.h{fill:url(#b);}.i{fill:#f5f5f5;}.j{fill:#333;}.k{fill:#2fb268;}.l{opacity:0.1;}.m{fill:#fda57d;}.n{fill:#72351c;}.o{fill:#be7c5e;}.p{fill:#ccc;}</style><clipPath id="a"><rect class="a" width="334" height="279" transform="translate(1061 244)"/></clipPath><linearGradient id="b" x1="0.5" y1="1" x2="0.5" gradientUnits="objectBoundingBox"><stop offset="0" stop-color="gray" stop-opacity="0.251"/><stop offset="0.535" stop-color="gray" stop-opacity="0.122"/><stop offset="1" stop-color="gray" stop-opacity="0.102"/></linearGradient></defs><g transform="translate(-35 -2914)"><ellipse class="b" cx="181.5" cy="159" rx="181.5" ry="159" transform="translate(125 3004)"/><g class="c" transform="translate(-915 2819)"><g transform="translate(1085.466 243.983)"><path class="d" d="M216.926,96.189l11.43-10.936s12.572-17.186,21.716-12.5-13.144,15.624-13.144,15.624L225.5,105.563Z" transform="translate(-164.324 -48.701)"/><path class="e" d="M160.277,462.967s-8.572,15.1-2.286,16.145,37.146,2.6,37.717,1.042,5.143-6.77,1.714-8.853-17.144-3.646-17.144-3.646l-4.572-4.166Z" transform="translate(-143.679 -203.516)"/><path class="e" d="M151.011,218.408s-18.287,20.832-3.429,42.184l3.429,35.935s-6.286,49.475,1.714,66.14l1.143,5.729h20l-5.143-43.746s.572-5.208,2.286-6.25,29.717-57.287,29.717-57.287-4.572-7.812-2.857-9.374-1.714-32.81-3.429-33.851S151.011,218.408,151.011,218.408Z" transform="translate(-138.985 -106.342)"/><path class="d" d="M57.112,420.345,59.4,432.324l-22.287-1.041,2.857-13.02Z" transform="translate(-12.511 -165.582)"/><ellipse class="d" cx="17.144" cy="15.624" rx="17.144" ry="15.624" transform="translate(23.456 11.033)"/><path class="d" d="M174.672,81.906l-1.714,18.749,18.287,7.812s-3.143-17.446-.857-22.134Z" transform="translate(-149.501 -52.645)"/><path class="f" d="M181.6,114.934l-1.715-6.249-23.431-7.812s-2.286,0-1.714,3.646.571,3.125.571,3.125-8,3.125-8.572,8.333-9.715,6.77-9.144,14.582,3.429,11.978,3.429,11.978-2.857,6.25,1.714,9.9c0,0,4.572,7.291,2.286,12.5s-5.143,14.061,1.143,12.5,49.719-4.166,49.719-4.166,6.286-21.352-.571-29.164c0,0,0-4.687-5.143-14.061S181.6,114.934,181.6,114.934Z" transform="translate(-137.571 -60.154)"/><path class="d" d="M158.3,218.84s7.429,28.643,16.573,31.768c0,0,1.714,20.832,11.43,19.79s0-19.79,0-19.79l-10.858-35.935Z" transform="translate(-144.56 -105.211)"/><path class="f" d="M202.269,119.756s8.572-12.5,10.858-10.416,13.715,8.333,13.144,12.5-5.715,4.166-5.715,4.166l-12,8.333Z" transform="translate(-159.383 -63.414)"/><path class="e" d="M203.8,281.058l6.858,4.492,4.572,44.462s-16.573,60.412-21.145,60.933-23.431.521-22.859-1.042,3.429-7.812,3.429-9.374,5.96-14.057,5.96-14.057l7.755-29.169-1.714-22.915Z" transform="translate(-148.913 -131.494)"/><path class="e" d="M192.769,464.573s-24-6.77-25.145-5.208-8.767,17.309,1.9,19.07,48.958,4.886,48.958.2-1.143-7.812-4.572-7.812-18.859-6.77-20-8.333S192.769,464.573,192.769,464.573Z" transform="translate(-146.454 -201.997)"/><path class="e" d="M171.682,62.326a1.622,1.622,0,0,1,2.29-2.062l.03.016a2.626,2.626,0,0,1,1.394,2.7c2.061-1.874.542-5.632,2.769-7.341,1.031-.791,2.7-.965,3.233-2.094.308-.657.1-1.437.37-2.107.4-1,1.692-1.412,2.845-1.568,3.623-.492,7.287.345,10.835,1.177a7.954,7.954,0,0,1,3.626,1.515c1,.916,1.349,2.248,1.963,3.414s4.639,1.06,6.046.9c.489-1.266-3.124-1.362-3.419-2.677-.806-3.6,2-7.418.624-10.866-.83-2.078-3-3.453-5.18-4.419A29.949,29.949,0,0,0,179.655,37.4a4.506,4.506,0,0,0-1.8.792c-.831.707-.985,1.841-1.538,2.746-1.26,2.061-4.249,2.551-6.265,4.031-3.052,2.243-3.4,6.292-3.5,9.864a11.145,11.145,0,0,0,.724,5.31,4.614,4.614,0,0,0,4.663,2.635A4.938,4.938,0,0,1,171.682,62.326Z" transform="translate(-147.337 -34.643)"/><path class="f" d="M167.227,133.84a13.117,13.117,0,0,0-14.863.688c-3.939,3.05-8.176,7.42-7.865,11.944.571,8.333,4,42.7,8.572,43.226s21.145-3.646,21.145-6.25-4-5.729-4-5.729l4.857-26.558a16.857,16.857,0,0,0-7.589-17.155Z" transform="translate(-139.901 -72.423)"/><g class="g" transform="translate(89.02 10.906)"><ellipse class="h" cx="29.426" cy="26.816" rx="29.426" ry="26.816"/></g><ellipse class="i" cx="28.806" cy="26.251" rx="28.806" ry="26.251" transform="translate(89.698 11.3)"/><path class="j" d="M323.787,89.549c0,8.732-6.885,13.029-15.823,13.029s-16.546-4.3-16.546-13.029a16.189,16.189,0,0,1,32.37,0Z" transform="translate(-189.438 -49.411)"/><path class="k" d="M307.967,132.764a30.709,30.709,0,0,0,15.834-4.318c-1.061-5.286-5.1-5.588-5.1-5.588H296.427s-3.812.285-5,5.148A30.637,30.637,0,0,0,307.967,132.764Z" transform="translate(-189.44 -68.859)"/><path class="l" d="M171.583,78.687h8.909v6.721a4.033,4.033,0,0,1-4.206,3.833h-.5a4.033,4.033,0,0,1-4.206-3.833V78.687Z" transform="translate(-57.846 -31.136)"/><path class="m" d="M172.385,78.189h7.3a.769.769,0,0,1,.8.731v5.99a4.033,4.033,0,0,1-4.206,3.833h-.5a4.033,4.033,0,0,1-4.206-3.833v-5.99a.769.769,0,0,1,.8-.731Z" transform="translate(-57.846 -30.939)"/><path class="l" d="M309.179,116.619a14,14,0,0,0,8.909.022v-1h-8.909Z" transform="translate(-195.426 -66.003)"/><ellipse class="m" cx="12.769" cy="11.637" rx="12.769" ry="11.637" transform="translate(105.455 27.886)"/><path class="l" d="M293.72,91.344A23.589,23.589,0,0,0,307.7,83.438s7.952,7.979,13.494,7.1c0,0,3.213-3.074,0-6.149s-5.7-6.954-9.96-6.441-9.478.732-11.727,2.562S293.72,91.344,293.72,91.344Z" transform="translate(-190.214 -51.06)"/><path class="j" d="M293.72,91.1A23.589,23.589,0,0,0,307.7,83.2s7.952,7.979,13.494,7.1c0,0,3.213-3.074,0-6.149s-5.7-6.954-9.96-6.441-9.478.732-11.727,2.562S293.72,91.1,293.72,91.1Z" transform="translate(-190.214 -50.964)"/><ellipse class="m" cx="1.188" cy="2.03" rx="1.188" ry="2.03" transform="translate(104.262 37.482)"/><ellipse class="m" cx="1.188" cy="2.03" rx="1.188" ry="2.03" transform="translate(129.804 37.482)"/><g class="g" transform="translate(213.639 12.819)"><ellipse class="h" cx="29.426" cy="26.816" rx="29.426" ry="26.816"/></g><ellipse class="i" cx="28.806" cy="26.251" rx="28.806" ry="26.251" transform="translate(214.317 13.213)"/><path class="k" d="M495.967,135.93a30.709,30.709,0,0,0,15.834-4.318c-1.061-5.286-5.1-5.588-5.1-5.588H484.428s-3.812.285-5,5.148a30.637,30.637,0,0,0,16.542,4.758Z" transform="translate(-252.821 -70.113)"/><ellipse class="n" cx="13.904" cy="12.671" rx="13.904" ry="12.671" transform="translate(228.94 26.24)"/><path class="l" d="M359.583,81.853h8.909v6.721a4.033,4.033,0,0,1-4.206,3.833h-.5a4.033,4.033,0,0,1-4.206-3.833Z" transform="translate(-121.227 -32.39)"/><path class="m" d="M360.386,81.355h7.3a.769.769,0,0,1,.8.731v5.99a4.033,4.033,0,0,1-4.206,3.833h-.5a4.033,4.033,0,0,1-4.206-3.833v-5.99a.769.769,0,0,1,.8-.731Z" transform="translate(-121.227 -32.193)"/><path class="l" d="M497.179,119.786a14,14,0,0,0,8.909.022v-1h-8.909Z" transform="translate(-258.807 -67.257)"/><ellipse class="m" cx="12.769" cy="11.637" rx="12.769" ry="11.637" transform="translate(230.074 29.799)"/><path class="l" d="M490.2,82.619s5.382,9.955,20.562,4.172l-3.534-5.051-6.265-2.05Z" transform="translate(-256.454 -51.768)"/><path class="n" d="M490.2,82.377s5.382,9.955,20.562,4.172L507.23,81.5l-6.265-2.05Z" transform="translate(-256.454 -51.672)"/><path class="n" d="M489.995,77.919a6.655,6.655,0,0,1,1.828-2.71c2.512-2.263,6.629-2.74,8.741-5.32A1.389,1.389,0,0,1,500.7,71.1a1.565,1.565,0,0,1-.9.909c2.021-.012,4.369-.173,5.512-1.692a3.214,3.214,0,0,1-.638,3.642c1.794.074,3.707,1.183,3.823,2.816a3.192,3.192,0,0,1-1.652,2.741,9.748,9.748,0,0,1-3.336,1.145C500.107,81.352,487.77,84.223,489.995,77.919Z" transform="translate(-256.295 -47.887)"/><path class="n" d="M510.2,102.229h-.339l-6.586,5.343c-6.345-2.708-11,0-11,0l-6.908-5.124-.7.08c.089,6.426,5.879,11.569,12.931,11.486s12.694-5.359,12.6-11.785Zm-12.788,7.393c-2.484,0-4.5-.459-4.5-1.025s2.014-1.025,4.5-1.025,4.5.459,4.5,1.025-2.014,1.025-4.5,1.025Z" transform="translate(-254.589 -60.692)"/><ellipse class="m" cx="1.188" cy="2.03" rx="1.188" ry="2.03" transform="translate(228.881 39.395)"/><ellipse class="m" cx="1.188" cy="2.03" rx="1.188" ry="2.03" transform="translate(254.424 39.395)"/><g class="g" transform="translate(151.333 56.814)"><ellipse class="h" cx="29.426" cy="26.816" rx="29.426" ry="26.816"/></g><ellipse class="i" cx="28.806" cy="26.251" rx="28.806" ry="26.251" transform="translate(151.954 57.233)"/><path class="j" d="M390.736,172.053s-3.267,14.662-5.048,13.85c0,0,17.191,13.531,32.369,0,0,0-2.673-10.332-6.533-13.85Z" transform="translate(-221.219 -88.337)"/><path class="k" d="M401.972,208.76a30.709,30.709,0,0,0,15.834-4.318c-1.061-5.286-5.1-5.588-5.1-5.588H390.433s-3.812.285-5,5.148A30.636,30.636,0,0,0,401.972,208.76Z" transform="translate(-221.132 -98.948)"/><ellipse class="j" cx="12.769" cy="11.637" rx="12.769" ry="11.637" transform="translate(167.768 71.268)"/><path class="l" d="M265.589,154.684H274.5v6.721a4.033,4.033,0,0,1-4.206,3.833h-.5a4.033,4.033,0,0,1-4.206-3.833v-6.721Z" transform="translate(-89.538 -61.225)"/><path class="o" d="M266.391,154.186h7.3a.769.769,0,0,1,.8.731v5.99a4.033,4.033,0,0,1-4.206,3.833h-.5a4.033,4.033,0,0,1-4.206-3.833v-5.99a.769.769,0,0,1,.8-.731Z" transform="translate(-89.538 -61.028)"/><path class="l" d="M403.185,192.616a14,14,0,0,0,8.909.022v-1h-8.909Z" transform="translate(-227.118 -96.092)"/><ellipse class="o" cx="12.769" cy="11.637" rx="12.769" ry="11.637" transform="translate(167.768 73.794)"/><path class="j" d="M391.512,162.058h24.351s-2.079-8.961-11.285-8.389A16.305,16.305,0,0,0,391.512,162.058Z" transform="translate(-223.183 -81.047)"/><ellipse class="o" cx="1.188" cy="2.03" rx="1.188" ry="2.03" transform="translate(166.844 82.905)"/><ellipse class="o" cx="1.188" cy="2.03" rx="1.188" ry="2.03" transform="translate(191.789 82.905)"/><path class="l" d="M391.512,162.556h24.351s-2.079-8.961-11.285-8.389A16.305,16.305,0,0,0,391.512,162.556Z" transform="translate(-223.183 -81.244)"/><path class="p" d="M393.254,127.492c14.813,0,26.82,10.943,26.82,24.442s-12.008,24.442-26.82,24.442-26.82-10.943-26.82-24.442,12.008-24.442,26.82-24.442m0-6.036c-18.471,0-33.444,13.645-33.444,30.478s14.973,30.478,33.444,30.478S426.7,168.766,426.7,151.934c-.021-16.824-14.982-30.459-33.444-30.478Z" transform="translate(-212.495 -68.304)"/><rect class="p" width="7.84" height="7.521" transform="translate(175.808 46.027)"/><path class="p" d="M0,0,7.715.323l.307,7.655L.307,7.655Z" transform="translate(193.38 55.52) rotate(-59)"/><path class="p" d="M0,0,8.08.31l.295,7.308-8.08-.31Z" transform="translate(207.111 65.036) rotate(-29)"/><path class="p" d="M0,0,7.34.312l.329,8.047L.329,8.047Z" transform="translate(207.225 101.677) rotate(-58)"/><path class="p" d="M0,0,7.308.295l.31,8.08L.31,8.08Z" transform="translate(143.389 67.639) rotate(-61)"/><path class="p" d="M0,0,8.047.329l.312,7.34L.312,7.34Z" transform="translate(143.141 99.604) rotate(-32)"/><path class="p" d="M0,0,7.655.307l.323,7.715L.323,7.715Z" transform="translate(157.17 52.753) rotate(-31)"/><rect class="p" width="7.84" height="7.521" transform="translate(175.808 113.712)"/><path class="p" d="M0,0,7.655.307l.323,7.715L.323,7.715Z" transform="translate(193.38 111.739) rotate(-31)"/><path class="p" d="M0,0,7.715.323l.307,7.655L.307,7.655Z" transform="translate(157.17 114.505) rotate(-59)"/><rect class="p" width="9.49" height="6.392" transform="translate(138.672 80.621)"/><rect class="p" width="9.49" height="6.392" transform="translate(222.847 87.014) rotate(180)"/><path class="p" d="M487.249,54.661c14.813,0,26.82,10.943,26.82,24.442s-12.008,24.442-26.82,24.442S460.429,92.6,460.429,79.1s12.008-24.442,26.82-24.442m0-6.036c-18.47,0-33.444,13.645-33.444,30.478s14.973,30.478,33.444,30.478S520.693,95.936,520.693,79.1C520.672,62.279,505.711,48.645,487.249,48.626Z" transform="translate(-244.184 -39.468)"/><rect class="p" width="7.84" height="7.521" transform="translate(238.114 2.032)"/><path class="p" d="M0,0,7.715.323l.307,7.655L.307,7.655Z" transform="translate(255.685 11.525) rotate(-59)"/><path class="p" d="M0,0,8.08.31l.295,7.308-8.08-.31Z" transform="translate(269.417 21.041) rotate(-29)"/><path class="p" d="M0,0,7.34.312l.329,8.047L.329,8.047Z" transform="translate(269.531 57.682) rotate(-58)"/><path class="p" d="M0,0,7.308.295l.31,8.08L.31,8.08Z" transform="translate(205.695 23.644) rotate(-61)"/><path class="p" d="M0,0,8.047.329l.312,7.34L.312,7.34Z" transform="translate(205.447 55.609) rotate(-32)"/><path class="p" d="M0,0,7.655.307l.323,7.715L.323,7.715Z" transform="translate(219.476 8.758) rotate(-31)"/><rect class="p" width="7.84" height="7.521" transform="translate(238.114 69.717)"/><path class="p" d="M0,0,7.655.307l.323,7.715L.323,7.715Z" transform="translate(255.686 67.744) rotate(-31)"/><path class="p" d="M0,0,7.715.323l.307,7.655L.307,7.655Z" transform="translate(219.476 70.51) rotate(-59)"/><rect class="p" width="9.49" height="6.392" transform="translate(200.978 36.627)"/><rect class="p" width="9.49" height="6.392" transform="translate(285.153 43.019) rotate(180)"/><path class="p" d="M298.944,51.546q.472,0,.947.015c14.811.226,26.612,11.354,26.36,24.851s-12.463,24.252-27.273,24.022c-.315,0-.631-.009-.947-.019-14.811-.226-26.612-11.354-26.36-24.851s12.463-24.252,27.274-24.022m0-6.032v0c-18.468-.293-33.7,13.117-34.012,29.947s14.4,30.707,32.867,31c.391.008.787.014,1.177.014,18.468.292,33.7-13.118,34.011-29.948s-14.4-30.707-32.867-30.994c-.391-.008-.787-.014-1.175-.014Z" transform="translate(-180.507 -38.233)"/><path class="p" d="M0,0,7.521.025l.024,7.839L.024,7.839Z" transform="matrix(0.035, -0.999, 0.999, 0.035, 114.649, 7.533)"/><path class="p" d="M0,0,7.738.334l.318,7.634L.318,7.634Z" transform="translate(132.136 10.062) rotate(-57.012)"/><path class="p" d="M0,0,8.1.3l.281,7.288-8.1-.3Z" transform="translate(145.496 20.006) rotate(-27.012)"/><path class="p" d="M0,0,7.362.322,7.7,8.346.339,8.024Z" transform="translate(144.215 56.629) rotate(-56.012)"/><path class="p" d="M0,0,7.329.307l.323,8.058L.323,8.058Z" transform="translate(81.714 20.592) rotate(-59.012)"/><path class="p" d="M0,0,8.069.317l.3,7.318L.3,7.318Z" transform="translate(80.249 52.529) rotate(-30.012)"/><path class="p" d="M0,0,7.676.295l.31,7.693L.31,7.693Z" transform="translate(96.053 6.151) rotate(-29.012)"/><path class="p" d="M0,0,7.521.025l.024,7.839L.024,7.839Z" transform="matrix(0.035, -0.999, 0.999, 0.035, 112.072, 75.177)"/><path class="p" d="M0,0,7.676.295l.31,7.693L.31,7.693Z" transform="translate(129.995 66.246) rotate(-29.012)"/><path class="p" d="M0,0,7.738.334l.318,7.634L.318,7.634Z" transform="translate(93.702 67.867) rotate(-57.012)"/><path class="p" d="M.015.02,9.5-.009,9.483,6.384l-9.489.029Z" transform="matrix(0.999, 0.035, -0.035, 0.999, 76.492, 33.396)"/><path class="p" d="M.015.02,9.5-.009,9.483,6.384l-9.489.029Z" transform="matrix(-0.999, -0.035, 0.035, -0.999, 160.4, 42.489)"/></g></g></g></svg>