<svg xmlns="http://www.w3.org/2000/svg" xmlns:xlink="http://www.w3.org/1999/xlink" width="653" height="718" viewBox="0 0 653 718"><defs><style>.a,.h{fill:#fff;}.a{stroke:#707070;}.b{fill:rgba(47,178,104,0.19);}.c{clip-path:url(#a);}.d{fill:#ffb8b8;}.e{fill:#2f2e41;}.f{fill:#2fb268;}.g{fill:#e6e6e6;}.i{fill:#ccc;}</style><clipPath id="a"><rect class="a" width="305" height="337" transform="translate(811 1920)"/></clipPath></defs><g transform="translate(-633 -775)"><rect class="b" width="359" height="424" rx="90" transform="translate(780 922)"/><g class="c" transform="translate(-4 -954)"><g transform="translate(811 1986.866)"><path class="d" d="M41.632,197.821h5.573l2.651-21.5H41.63Z"/><path class="e" d="M180.436,313.945h17.516v6.767H187.2a6.767,6.767,0,0,1-6.767-6.767Z" transform="translate(238.419 516.923) rotate(179.995)"/><path class="d" d="M86.482,197.821h5.573l2.651-21.5H86.48Z"/><path class="e" d="M225.286,313.945H242.8v6.767H232.053a6.767,6.767,0,0,1-6.767-6.768Z" transform="translate(328.118 516.919) rotate(179.995)"/><path class="e" d="M180.425,307.62a2.191,2.191,0,0,1-2.152-1.772l-3.579-44.969c-3.853-38.082,2.742-51.5,2.809-51.629l.072-.142.159.009,30.933,1.78,6.566,21.479L232.59,255.7a21.124,21.124,0,0,1,4.154,12.815l-.439,34a2.207,2.207,0,0,1-2.041,2.16l-9.061.63a2.187,2.187,0,0,1-2.333-1.954l-2.245-36.915a.19.19,0,0,0-.052-.1l-25.742-23.993a.732.732,0,0,0-1.217.24l-2.6,62.495a2.168,2.168,0,0,1-.538,1.649,2.2,2.2,0,0,1-1.6.742l-8.408.153Z" transform="translate(-139.998 -117.716)"/><circle class="e" cx="15.62" cy="15.62" r="15.62" transform="matrix(0.877, -0.48, 0.48, 0.877, 33.482, 25.088)"/><path class="d" d="M261.774,179.679a4.571,4.571,0,0,0-6.56,2.468l-10.43.585-1.191,6.425,14.717-1.032a4.6,4.6,0,0,0,3.464-8.445Z" transform="translate(-139.998 -117.716)"/><path class="d" d="M175.591,232.691a4.571,4.571,0,0,0-2.9-6.382l-1.278-10.368-6.49-.76,2.01,14.616a4.6,4.6,0,0,0,8.657,2.894Z" transform="translate(-139.998 -117.716)"/><circle class="d" cx="11.973" cy="11.973" r="11.973" transform="translate(42.024 24.11)"/><path class="f" d="M196.356,215.129c-6.367,0-11.7-.515-16.993-2.407-2.178-.779-2.411-1.744-2.717-2.952-.481-1.9-.744-24.31,1.738-31.748a11.165,11.165,0,0,1,9.249-7.521c2.363-.279,9.433-1.278,13.437-1.849a7.565,7.565,0,0,1,5.58,1.367,3.441,3.441,0,0,1,1.638,2.544l1.088,37.9a4.224,4.224,0,0,1-3.944,4.351C202.985,214.978,199.805,215.129,196.356,215.129Z" transform="translate(-139.998 -117.716)"/><path class="f" d="M164.686,224.411a2.194,2.194,0,0,1-2.192-2.278l.38-17.382a12.377,12.377,0,0,1,1.861-6.062l14.754-23.668a5.133,5.133,0,0,1,4.355-2.406,5.077,5.077,0,0,1,4.336,2.438h0a5.12,5.12,0,0,1,.121,5.133L173.99,206.2l.985,15.965a2.194,2.194,0,0,1-2.189,2.233l-8.1.016Z" transform="translate(-139.998 -117.716)"/><path class="f" d="M252.127,191.746a2.172,2.172,0,0,1-1.553.731l-17.37.921a12.374,12.374,0,0,1-6.18-1.4l-24.7-12.943a5.109,5.109,0,0,1-.618-8.669l.142.2-.142-.2a5.119,5.119,0,0,1,5.11-.5l27.009,12.326,15.858-2.178a2.194,2.194,0,0,1,2.379,2.017l.621,8.072q0,.061.006.121a2.173,2.173,0,0,1-.557,1.509Z" transform="translate(-139.998 -117.716)"/><path class="e" d="M45.128,34.388,42.022,26,55.99,21.956l9.983,3.068v9.363Z"/><path class="e" d="M199.809,133.192a17.017,17.017,0,0,0-30.092-9.317c-2.936,3.569-4.293,8.16-5.286,12.674s-1.712,9.146-3.64,13.347-5.328,8.016-9.816,9.119-9.939-1.38-10.977-5.884a22.837,22.837,0,0,0,7.75,15.966c3.889,3.372,10.238,2.18,14.066-1.261s5.723-8.491,7.362-13.37,3.255-9.967,6.732-13.763,13.331-7.83,17.8-5.27C197.209,137.44,198.465,136.164,199.809,133.192Z" transform="translate(-139.998 -117.716)"/><path class="g" d="M436.954,233.038H267.305a8.053,8.053,0,0,1-8.044-8.044V138.708a8.053,8.053,0,0,1,8.044-8.044H436.954A8.053,8.053,0,0,1,445,138.708v86.287a8.053,8.053,0,0,1-8.044,8.044Z" transform="translate(-139.998 -117.716)"/><path class="h" d="M435,227.188H269.255a4.148,4.148,0,0,1-4.144-4.144V140.657a4.148,4.148,0,0,1,4.144-4.144H435a4.148,4.148,0,0,1,4.144,4.144v82.387A4.148,4.148,0,0,1,435,227.188Z" transform="translate(-139.998 -117.716)"/><path class="g" d="M416.967,215.245H287.293a3.9,3.9,0,0,1,0-7.8H416.967a3.9,3.9,0,0,1,0,7.8Z" transform="translate(-139.998 -117.716)"/><path class="g" d="M416.967,198.67H287.293a3.9,3.9,0,0,1,0-7.8H416.967a3.9,3.9,0,0,1,0,7.8Z" transform="translate(-139.998 -117.716)"/><path class="f" d="M315.568,179.475H287.293a4.148,4.148,0,0,1-4.144-4.144v-20.6a4.148,4.148,0,0,1,4.144-4.144h28.275a4.148,4.148,0,0,1,4.144,4.144v20.6a4.148,4.148,0,0,1-4.144,4.144Z" transform="translate(-139.998 -117.716)"/><path class="i" d="M417.111,177.22H351.3a3.9,3.9,0,1,1,0-7.8h65.812a3.9,3.9,0,1,1,0,7.8Z" transform="translate(-139.998 -117.716)"/><path class="i" d="M389.811,160.645H351.3a3.9,3.9,0,1,1,0-7.8h38.512a3.9,3.9,0,1,1,0,7.8Z" transform="translate(-139.998 -117.716)"/><path class="i" d="M262.028,321.031H165.5a.487.487,0,1,1,0-.975h96.524a.487.487,0,0,1,0,.975Z" transform="translate(-139.998 -117.716)"/></g></g></g></svg>