<svg xmlns="http://www.w3.org/2000/svg" xmlns:xlink="http://www.w3.org/1999/xlink" width="653" height="718" viewBox="0 0 653 718"><defs><style>.a{fill:#e0eec4;stroke:#74a112;}.b{fill:rgba(47,178,104,0.19);}.c{clip-path:url(#a);}.d{fill:#f2f2f2;}.e{fill:#fff;}.f{fill:#ccc;}.g{fill:#2fb268;}.h{fill:#3f3d56;}.i{fill:#ffb8b8;}.j{fill:#2f2e41;}</style><clipPath id="a"><rect class="a" width="311" height="353" rx="16" transform="translate(805 2608)"/></clipPath></defs><g transform="translate(-634 -1300)"><rect class="b" width="359" height="424" rx="90" transform="translate(781 1447)"/><g class="c" transform="translate(0 -1125)"><g transform="translate(805 2702.848)"><path class="d" d="M394.994,217.5c-1.629,10.355-6.676,20.405-15.006,26.765-8.2,6.264-18.7,8.489-28.838,10.4q-18.24,3.446-36.58,6.3-2.6.414-5.2.8H238.153c-.072-.1-.148-.2-.22-.3-.116-.168-.232-.336-.344-.5-.064-.1-.128-.2-.192-.3h44.669a4.787,4.787,0,0,0,4.783-4.779V196.27c.288-.9.556-1.813.8-2.734a72.068,72.068,0,0,0,2.213-13.092c.24-3.082.312-6.164.26-9.25a205.163,205.163,0,0,0-2.462-25.384c-.088-.62-.18-1.245-.268-1.865-.849-5.852-1.621-12.22,1.329-17.347,3.374-5.868,10.863-8.313,17.607-7.713,12.132,1.085,22.35,10.375,27.662,21.338s6.5,23.423,6.98,35.591a111.9,111.9,0,0,1-.672,19.665q4.563-10.435,9.134-20.869c1.625-3.71,3.334-7.541,6.344-10.255,6.292-5.68,16.7-4.535,23.419.636s10.4,13.353,12.848,21.466C395.078,196.49,396.627,207.145,394.994,217.5Z" transform="translate(-84.654 -98.464)"/><path class="e" d="M368.156,161.258a51.588,51.588,0,0,1,6.37,25.644,62.074,62.074,0,0,1-5.736,25.588,64.284,64.284,0,0,1-13.8,19.332,58.57,58.57,0,0,1-19.825,12.664,51.808,51.808,0,0,1-26.9,2.556q-1.883-.324-3.738-.784c-.75-.185-1.07.973-.319,1.158a53.145,53.145,0,0,0,28.515-.82,58.748,58.748,0,0,0,20.886-11.882,65.2,65.2,0,0,0,14.98-19.1,63.839,63.839,0,0,0,7.035-25.562,54.334,54.334,0,0,0-4.907-26.472q-.711-1.492-1.527-2.931a.6.6,0,0,0-1.037.606Z" transform="translate(-84.654 -98.464)"/><path class="e" d="M304.431,118.725a130.222,130.222,0,0,1,11.326,28.411,137.222,137.222,0,0,1,2.334,60.663,129.73,129.73,0,0,1-9.121,29.213c-4.17,9.265-10.174,19.027-20.43,22.271a21.39,21.39,0,0,1-3.546.793c-.762.1-.438,1.262.319,1.158,10.609-1.456,17.98-10.27,22.6-19.254A123.267,123.267,0,0,0,318.371,212.4a138.3,138.3,0,0,0-.472-61.688,132.251,132.251,0,0,0-10.619-29.137q-.88-1.74-1.813-3.452c-.369-.679-1.406-.074-1.037.606Z" transform="translate(-84.654 -98.464)"/><path class="f" d="M254.219,116.979H182.333a5.511,5.511,0,0,0-5.5,5.5V158.5h11.063a4.755,4.755,0,0,1,4.047,2.237l3.835,6.1,3.666,5.832.688,1.1,4.195,6.672.048.076h55.352V122.482a5.511,5.511,0,0,0-5.5-5.5Z" transform="translate(-84.654 -98.464)"/><path class="e" d="M225.725,127.99H190.106a3.56,3.56,0,0,0,0,7.121h35.619a3.56,3.56,0,1,0,0-7.121Z" transform="translate(-84.654 -98.464)"/><path class="e" d="M245.477,145.473H190.43a3.886,3.886,0,1,0,0,7.773h55.047a3.887,3.887,0,0,0,0-7.773Z" transform="translate(-84.654 -98.464)"/><path class="e" d="M248.992,161.311a3.884,3.884,0,0,0-3.514-2.237H190.43c-.084,0-.164,0-.248.008a4.768,4.768,0,0,1,1.757,1.657l3.835,6.1h49.7a3.881,3.881,0,0,0,3.514-5.532Z" transform="translate(-84.654 -98.464)"/><path class="e" d="M249.324,176.037a3.886,3.886,0,0,0-3.847-3.362H199.44l.688,1.1,4.195,6.672h41.154a3.842,3.842,0,0,0,2.254-.724,3.881,3.881,0,0,0,1.629-3.162,3.7,3.7,0,0,0-.036-.52Z" transform="translate(-84.654 -98.464)"/><path class="g" d="M293.264,148l-5.6-2.189-27.938-10.9L226.3,121.862a5.513,5.513,0,0,0-7.129,3.13l-1.169,3-2.782,7.121-4.043,10.363-3.034,7.773-2.274,5.828-3.034,7.769-2.277,5.832-.064.168-.364.929,4.195,6.672.048.076h77.694a4.77,4.77,0,0,1,3.718,1.777l.328-.833,4.011-10.271,6.268-16.062A5.514,5.514,0,0,0,293.264,148Z" transform="translate(-84.654 -98.464)"/><path class="e" d="M262.717,147.895l-2.994-1.169-30.187-11.78a3.562,3.562,0,1,0-2.59,6.636l9.971,3.891,12.332,4.811,10.475,4.091.4.156a3.562,3.562,0,0,0,2.59-6.636Z" transform="translate(-84.654 -98.464)"/><path class="e" d="M274.756,171.366,259.723,165.5l-10.731-4.187-5.732-2.237-14.93-5.828-4.851-1.893a3.886,3.886,0,0,0-4.9,1.893c-.048.1-.1.2-.136.312a3.884,3.884,0,0,0,2.206,5.031l1.241.484,19.9,7.769,17.927,7,12.208,4.767a3.886,3.886,0,1,0,2.826-7.241Z" transform="translate(-84.654 -98.464)"/><path class="e" d="M259.723,180.1l-.965-.376-9.434-3.682-8.618-3.362-14.946-5.832-7.229-2.822a3.886,3.886,0,1,0-2.822,7.241l3.618,1.413,18.051,7.045,1.857.724.192.076h21.378Z" transform="translate(-84.654 -98.464)"/><path class="e" d="M223.207,180.443l-1.857-.724-7.761-3.03a3.88,3.88,0,0,0-5.251,3.03,3.682,3.682,0,0,0-.044.724.445.445,0,0,0,0,.076H223.4Z" transform="translate(-84.654 -98.464)"/><path class="h" d="M239.238,180.443l-1.857-.724H208.337a3.682,3.682,0,0,0-.044.724h-3.971l.048.076h35.058Zm0,0H204.323l.048.076H239.43Zm0,0H204.323l.048.076H239.43Zm.192.076-.192-.076H204.323l.048.076Zm-70.049,80.152a4.786,4.786,0,0,1-4.779-4.779V163.284a4.787,4.787,0,0,1,4.779-4.783h7.449v-.8h-7.449a5.59,5.59,0,0,0-5.58,5.584v92.607a5.584,5.584,0,0,0,3.27,5.075h70.517c-.064-.1-.128-.2-.192-.3Zm116.731-79.207a5.555,5.555,0,0,0-4.047-1.745h-77.25l-4.323-6.876-.1-.168-3.666-5.832-4.107-6.532a5.594,5.594,0,0,0-4.723-2.61H169.381a5.59,5.59,0,0,0-5.58,5.584v92.607a5.584,5.584,0,0,0,3.27,5.075,5.5,5.5,0,0,0,2.309.5H282.065a5.524,5.524,0,0,0,2.314-.5,5.584,5.584,0,0,0,3.27-5.075V185.3a5.552,5.552,0,0,0-1.537-3.839Zm.737,74.428a4.787,4.787,0,0,1-4.783,4.779H169.381a4.786,4.786,0,0,1-4.779-4.779V163.284a4.787,4.787,0,0,1,4.779-4.783h18.512a4.755,4.755,0,0,1,4.047,2.237l3.834,6.1,3.666,5.832.688,1.1,4.195,6.672.048.076h77.694a4.787,4.787,0,0,1,4.783,4.783Zm-47.611-75.448H204.323l.048.076H239.43Zm0,0H204.323l.048.076H239.43Zm0,0H204.323l.048.076H239.43Zm0,0-1.857-.724H204.816l-4.323-6.876-.364.929,4.195,6.672.048.076H239.43Z" transform="translate(-84.654 -98.464)"/><path class="i" d="M62.812,115.182l-2.293,4.793-19.579-6.562,3.383-7.075Z"/><path class="j" d="M143.5,217.661h10.741v6.452h-16.7v-.493a5.959,5.959,0,0,1,5.959-5.959Z" transform="matrix(0.431, -0.902, 0.902, 0.431, -200.978, 158.73)"/><path class="i" d="M67.427,157.987l-5.31-.179-.224-20.671,6.225.367Z"/><path class="j" d="M142.425,254.689h10.741v6.452h-16.7v-.493a5.959,5.959,0,0,1,5.959-5.959Z" transform="translate(-75.872 -103.202) rotate(1.933)"/><path class="j" d="M160.633,169.941s-16.252-4.117-23.62,1.95L132.9,183.81l-16.469,23.4,23.837,14.3L144.6,210.68l-10.4-5.2,12.569-10.835L144.6,251.853l8.235,1.3S171.034,182.51,160.633,169.941Z" transform="translate(-84.654 -98.464)"/><path class="g" d="M135.976,173.654l.2-.352c2.088-3.712,1.75-9.757,1.1-14.175a109.719,109.719,0,0,1-.419-15.039,7.161,7.161,0,0,1,5.708-6.893,81.23,81.23,0,0,1,14.192-1.285l0,.217,0-.217a3.3,3.3,0,0,1,3.312,3.219c.1,5.189.067,14.651-1.221,19.728-1.911,7.535,1.077,12.655,1.108,12.706l.18.3Z" transform="translate(-84.654 -98.464)"/><path class="i" d="M127.616,194.434a4.012,4.012,0,0,0,1.525-5.961l9.172-39.553h-6.935l-8.095,38.773a4.034,4.034,0,0,0,4.332,6.74Z" transform="translate(-84.654 -98.464)"/><path class="i" d="M183.386,155.5l-15.307-14.479-4.137,5.792,10.342,9.1-13.564,10.771c-.1-.007-.2-.015-.3-.015a4.344,4.344,0,1,0,4.3,4.922l.043.043Z" transform="translate(-84.654 -98.464)"/><path class="g" d="M141.587,137.7s-9.559-1.568-10.425,5.8-1.3,7.368-1.3,7.368,6.934-1.3,8.668.433S141.587,137.7,141.587,137.7Z" transform="translate(-84.654 -98.464)"/><path class="g" d="M155.865,136.569s7.8-1.3,11.268,2.167,5.2,4.334,5.2,4.334-7.8,4.334-4.767,8.235c0,0-8.235-3.9-9.535-2.6S155.865,136.569,155.865,136.569Z" transform="translate(-84.654 -98.464)"/><path class="j" d="M149.023,111.407a7.13,7.13,0,0,1-1.68-8.565,8.481,8.481,0,0,1,7.8-4.372,10.51,10.51,0,0,1,7.935,4.5c2.561,3.607,3.1,8.621,6.5,11.445,3.076,2.551,7.481,2.478,11.472,2.275a9.927,9.927,0,0,0,3.941-.745,3.385,3.385,0,0,0,2.038-3.2,4.267,4.267,0,0,1-.924,5.121,8.674,8.674,0,0,1-5.124,2.076,19.04,19.04,0,0,1-17.272-7.578c-1.388-1.915-2.46-4.146-4.365-5.548s-5.082-1.5-6.252.556c-.578,1.017-.522,2.293-1.054,3.335s-2.259,1.6-2.772.552" transform="translate(-84.654 -98.464)"/><circle class="j" cx="12.008" cy="12.008" r="12.008" transform="translate(51.985 9.829)"/><circle class="i" cx="9.831" cy="9.831" r="9.831" transform="translate(54.09 15.123)"/><path class="j" d="M139.61,116.2c1.336.292.9,2.533,1.955,3.4.952.784,2.324-.022,3.522-.314a6.782,6.782,0,0,1,4.494.86,18.718,18.718,0,0,0,4.269,1.863,4.007,4.007,0,0,0,4.186-1.343,4.456,4.456,0,0,0-.123-4.269,9.914,9.914,0,0,0-17.788-.247" transform="translate(-84.654 -98.464)"/><path class="h" d="M371.238,261.367a.4.4,0,0,1-.4.4H85.055a.4.4,0,1,1,0-.8H370.838A.4.4,0,0,1,371.238,261.367Z" transform="translate(-84.654 -98.464)"/></g></g></g></svg>