<svg xmlns="http://www.w3.org/2000/svg" width="29.64" height="26.964" viewBox="0 0 29.64 26.964"><defs><style>.a{fill:#b2b4ad;}</style></defs><path class="a" d="M18.908,9.764a7.5,7.5,0,0,1,.021,11.3l-.021.019-3.89,3.539a9.44,9.44,0,0,1-12.444,0,7.512,7.512,0,0,1,0-11.321l2.148-1.954a.943.943,0,0,1,1.58.559,8.927,8.927,0,0,0,.561,2.777.794.794,0,0,1-.219.875l-.758.689a3.582,3.582,0,0,0-.067,5.37,4.47,4.47,0,0,0,5.924.027l3.89-3.539a3.554,3.554,0,0,0,0-5.363,4.277,4.277,0,0,0-.6-.451.829.829,0,0,1-.4-.664,2,2,0,0,1,.677-1.57l1.219-1.109a1,1,0,0,1,1.192-.091,8.686,8.686,0,0,1,1.188.906Zm8.159-7.423a9.44,9.44,0,0,0-12.444,0L10.732,5.88l-.021.019a7.5,7.5,0,0,0,.021,11.3,8.684,8.684,0,0,0,1.188.906,1,1,0,0,0,1.192-.091l1.219-1.109a2,2,0,0,0,.677-1.57.829.829,0,0,0-.4-.664,4.277,4.277,0,0,1-.6-.451,3.554,3.554,0,0,1,0-5.363L17.9,5.32a4.47,4.47,0,0,1,5.924.027,3.582,3.582,0,0,1-.067,5.37L23,11.406a.794.794,0,0,0-.219.875,8.927,8.927,0,0,1,.561,2.777.943.943,0,0,0,1.58.559l2.148-1.954a7.512,7.512,0,0,0,0-11.321Z"/></svg>