<svg xmlns="http://www.w3.org/2000/svg" width="34.193" height="32.162" viewBox="0 0 34.193 32.162"><defs><style>.a{fill:#b2b4ad;stroke:#b2b4ad;}</style></defs><path class="a" d="M34.776,20A4,4,0,0,1,37.5,16.275a15.3,15.3,0,0,0-2.037-4.608,4.542,4.542,0,0,1-1.727.347,4.4,4.4,0,0,1-3-1.162,3.813,3.813,0,0,1-.877-4.439,17.394,17.394,0,0,0-4.9-1.913,4.347,4.347,0,0,1-7.923,0,17.448,17.448,0,0,0-4.907,1.913,3.8,3.8,0,0,1-.877,4.439,4.458,4.458,0,0,1-4.727.815A15.628,15.628,0,0,0,4.5,16.283a3.9,3.9,0,0,1,.009,7.441,15.3,15.3,0,0,0,2.037,4.608,4.522,4.522,0,0,1,1.719-.339,4.4,4.4,0,0,1,3,1.162,3.814,3.814,0,0,1,.877,4.431A17.55,17.55,0,0,0,17.047,35.5a4.339,4.339,0,0,1,7.906,0,17.448,17.448,0,0,0,4.907-1.913,3.817,3.817,0,0,1,.877-4.431,4.366,4.366,0,0,1,3-1.162,4.49,4.49,0,0,1,1.719.339,15.384,15.384,0,0,0,2.037-4.608A4.022,4.022,0,0,1,34.776,20Zm-13.7,6.449A6.674,6.674,0,0,1,14.2,19.988a6.674,6.674,0,0,1,6.875-6.457,6.674,6.674,0,0,1,6.875,6.457A6.674,6.674,0,0,1,21.077,26.445Z" transform="translate(-3.904 -3.919)"/></svg>