<svg xmlns="http://www.w3.org/2000/svg" width="20.833" height="20.833" viewBox="0 0 20.833 20.833"><defs><style>.a{fill:#2fb268;}</style></defs><path class="a" d="M12.49,2.083A10.417,10.417,0,1,0,22.917,12.5,10.412,10.412,0,0,0,12.49,2.083Zm7.219,6.25H16.635A16.3,16.3,0,0,0,15.2,4.625,8.364,8.364,0,0,1,19.708,8.333ZM12.5,4.208a14.674,14.674,0,0,1,1.99,4.125H10.51A14.674,14.674,0,0,1,12.5,4.208ZM4.438,14.583a8.148,8.148,0,0,1,0-4.167H7.958A17.2,17.2,0,0,0,7.812,12.5a17.2,17.2,0,0,0,.146,2.083Zm.854,2.083H8.365A16.3,16.3,0,0,0,9.8,20.375,8.32,8.32,0,0,1,5.292,16.667ZM8.365,8.333H5.292A8.32,8.32,0,0,1,9.8,4.625,16.3,16.3,0,0,0,8.365,8.333ZM12.5,20.792a14.674,14.674,0,0,1-1.99-4.125H14.49a14.674,14.674,0,0,1-1.99,4.125Zm2.438-6.208H10.063A15.326,15.326,0,0,1,9.9,12.5a15.193,15.193,0,0,1,.167-2.083h4.875A15.193,15.193,0,0,1,15.1,12.5,15.326,15.326,0,0,1,14.938,14.583Zm.26,5.792a16.3,16.3,0,0,0,1.438-3.708h3.073a8.364,8.364,0,0,1-4.51,3.708Zm1.844-5.792a17.2,17.2,0,0,0,.146-2.083,17.2,17.2,0,0,0-.146-2.083h3.521a8.148,8.148,0,0,1,0,4.167Z" transform="translate(-2.083 -2.083)"/></svg>