<svg xmlns="http://www.w3.org/2000/svg" width="24.219" height="24.219" viewBox="0 0 24.219 24.219"><defs><style>.a{fill:#a4a79f;}</style></defs><path class="a" d="M12.109.391A12.109,12.109,0,1,0,24.219,12.5,12.109,12.109,0,0,0,12.109.391Zm7.813,10.522v.338a.757.757,0,0,1-.418.677l-.751.376a.756.756,0,0,1-.758-.047l-.889-.593a.758.758,0,0,0-.659-.088l-.129.043a.756.756,0,0,0-.39,1.138l.646.97a.756.756,0,0,0,.629.337h.4a.757.757,0,0,1,.757.757v.554a.758.758,0,0,1-.151.454l-.915,1.22a.76.76,0,0,0-.138.314l-.21,1.115a.758.758,0,0,1-.232.418,7.793,7.793,0,0,0-1.221,1.424l-.636.955a1.355,1.355,0,0,1-2.339-.146,3.853,3.853,0,0,1-.407-1.723V17.944a.757.757,0,0,0-.757-.757H10.089A2.667,2.667,0,0,1,7.421,14.52v-.687A2.668,2.668,0,0,1,8.488,11.7l1.347-1.01a2.669,2.669,0,0,1,1.6-.534h.043a2.662,2.662,0,0,1,1.193.282l.719.359a.756.756,0,0,0,.578.041l2.31-.77a.757.757,0,0,0-.239-1.475h-.493a.757.757,0,0,1-.535-.222l-.338-.338a.756.756,0,0,0-.535-.222h-4.4a.757.757,0,0,1-.757-.757V6.84a.757.757,0,0,1,.573-.734l.706-.176a.758.758,0,0,0,.446-.314l.395-.591a.756.756,0,0,1,.629-.337h1.182a.757.757,0,0,0,.757-.757V2.871a9.779,9.779,0,0,1,7.906,7.286h-.9A.757.757,0,0,0,19.922,10.913Z" transform="translate(0 -0.391)"/></svg>