<svg xmlns="http://www.w3.org/2000/svg" width="18.406" height="22.423" viewBox="0 0 18.406 22.423"><defs><style>.a{fill:none;stroke:#a4a79f;}</style></defs><path class="a" d="M4.463,8.033V21.423A1.343,1.343,0,0,0,5.8,22.762h12.05a1.343,1.343,0,0,0,1.339-1.339V8.033ZM8.48,20.084H7.141V10.711H8.48Zm2.678,0H9.819V10.711h1.339Zm2.678,0H12.5V10.711h1.339Zm2.678,0H15.174V10.711h1.339ZM19.526,4.017H15.174V2.343a1.007,1.007,0,0,0-1-1H9.484a1.007,1.007,0,0,0-1,1V4.017H4.128a1.007,1.007,0,0,0-1,1V6.695H20.53V5.021A1.007,1.007,0,0,0,19.526,4.017Zm-5.69,0H9.819V2.695h4.017V4.017Z" transform="translate(-2.624 -0.839)"/></svg>