<svg xmlns="http://www.w3.org/2000/svg" width="20.833" height="22.917" viewBox="0 0 20.833 22.917"><defs><style>.a{fill:none;stroke:#a4a79f;stroke-linecap:round;stroke-linejoin:round;stroke-width:2.083px;}</style></defs><g transform="translate(-2.083 -1.042)"><path class="a" d="M21.875,5.208A3.125,3.125,0,1,1,18.75,2.083a3.125,3.125,0,0,1,3.125,3.125Z"/><path class="a" d="M9.375,12.5A3.125,3.125,0,1,1,6.25,9.375,3.125,3.125,0,0,1,9.375,12.5Z"/><path class="a" d="M21.875,19.792a3.125,3.125,0,1,1-3.125-3.125A3.125,3.125,0,0,1,21.875,19.792Z"/><path class="a" d="M8.948,14.073l7.115,4.146"/><path class="a" d="M16.052,6.781l-7.1,4.146"/></g></svg>