<svg xmlns="http://www.w3.org/2000/svg" width="36.753" height="35.148" viewBox="0 0 36.753 35.148"><defs><style>.a{fill:none;stroke:#eaf7f0;stroke-linecap:round;stroke-linejoin:round;stroke-width:4px;}</style></defs><g transform="translate(-2.651 0.217)"><path class="a" d="M15,21.381a8.016,8.016,0,0,0,5.894,3.329,7.934,7.934,0,0,0,6.293-2.427l4.849-5.013a8.555,8.555,0,0,0,0-11.815,7.9,7.9,0,0,0-11.429,0L17.829,8.313" transform="translate(3 -1.224)"/><path class="a" d="M22.342,16.645A8.19,8.19,0,0,0,10.189,15.8L5.354,20.512a7.724,7.724,0,0,0,0,11.116,8.2,8.2,0,0,0,11.4,0l2.755-2.689" transform="translate(1.658 -1)"/></g></svg>