<svg xmlns="http://www.w3.org/2000/svg" width="23" height="20.349" viewBox="0 0 23 20.349"><defs><style>.a{fill:rgba(47,178,104,0.37);}</style></defs><path class="a" d="M14.672,7.368a5.558,5.558,0,0,1,.016,8.528l-.016.015-3.019,2.671a7.481,7.481,0,0,1-9.656,0,5.567,5.567,0,0,1,0-8.543L3.664,8.564a.737.737,0,0,1,1.226.422,6.576,6.576,0,0,0,.435,2.1.588.588,0,0,1-.17.66l-.588.52a2.655,2.655,0,0,0-.052,4.052,3.542,3.542,0,0,0,4.6.02l3.019-2.67a2.634,2.634,0,0,0,0-4.047,3.313,3.313,0,0,0-.465-.341.623.623,0,0,1-.312-.5A1.489,1.489,0,0,1,11.88,7.59l.946-.837a.793.793,0,0,1,.925-.069,6.724,6.724,0,0,1,.922.683ZM21,1.767a7.481,7.481,0,0,0-9.656,0L8.328,4.437l-.016.015a5.558,5.558,0,0,0,.016,8.528,6.723,6.723,0,0,0,.922.683.793.793,0,0,0,.925-.069l.946-.837a1.489,1.489,0,0,0,.525-1.185.623.623,0,0,0-.312-.5,3.313,3.313,0,0,1-.465-.341,2.634,2.634,0,0,1,0-4.047l3.019-2.67a3.542,3.542,0,0,1,4.6.02,2.655,2.655,0,0,1-.052,4.052l-.588.52a.588.588,0,0,0-.17.66,6.576,6.576,0,0,1,.435,2.1.737.737,0,0,0,1.226.422L21,10.31a5.567,5.567,0,0,0,0-8.543Z"/></svg>