<svg xmlns="http://www.w3.org/2000/svg" width="22.853" height="23.625" viewBox="0 0 22.853 23.625"><defs><style>.a{fill:none;stroke:#a4a79f;stroke-width:2px;}</style></defs><path class="a" d="M12.3,1.875A10.623,10.623,0,0,0,1.875,12.687,10.623,10.623,0,0,0,12.3,23.5,10.623,10.623,0,0,0,22.728,12.687,10.623,10.623,0,0,0,12.3,1.875Zm4.537,11.644H13.1v3.873a.82.82,0,0,1-.8.832.786.786,0,0,1-.566-.244.845.845,0,0,1-.236-.587V13.519H7.765a.786.786,0,0,1-.566-.244.845.845,0,0,1-.236-.587.82.82,0,0,1,.8-.832H11.5V7.983a.8.8,0,1,1,1.6,0v3.873h3.734a.832.832,0,0,1,0,1.663Z" transform="translate(-0.875 -0.875)"/></svg>