<svg xmlns="http://www.w3.org/2000/svg" width="39.812" height="31.118" viewBox="0 0 39.812 31.118"><defs><style>.a{fill:#eaf7f0;}</style></defs><path class="a" d="M5.972,15.586a4.237,4.237,0,0,0,3.981-4.445A4.237,4.237,0,0,0,5.972,6.7a4.237,4.237,0,0,0-3.981,4.445A4.237,4.237,0,0,0,5.972,15.586Zm27.868,0a4.237,4.237,0,0,0,3.981-4.445A4.237,4.237,0,0,0,33.84,6.7a4.237,4.237,0,0,0-3.981,4.445A4.237,4.237,0,0,0,33.84,15.586Zm1.991,2.223H31.849A3.772,3.772,0,0,0,29.044,19.1a10.227,10.227,0,0,1,4.672,7.6h4.106a2.114,2.114,0,0,0,1.991-2.223V22.255A4.237,4.237,0,0,0,35.83,17.809Zm-15.925,0c3.851,0,6.967-3.48,6.967-7.78s-3.117-7.78-6.967-7.78-6.967,3.48-6.967,7.78S16.055,17.809,19.906,17.809Zm4.777,2.223h-.516a8.724,8.724,0,0,1-8.522,0h-.516c-3.956,0-7.166,3.584-7.166,8v2a3.175,3.175,0,0,0,2.986,3.334H28.863a3.175,3.175,0,0,0,2.986-3.334v-2C31.849,23.616,28.639,20.032,24.683,20.032ZM10.768,19.1a3.772,3.772,0,0,0-2.805-1.292H3.981A4.237,4.237,0,0,0,0,22.255v2.223A2.114,2.114,0,0,0,1.991,26.7h4.1A10.251,10.251,0,0,1,10.768,19.1Z" transform="translate(0 -2.25)"/></svg>