<svg xmlns="http://www.w3.org/2000/svg" width="33.296" height="28.482" viewBox="0 0 33.296 28.482"><defs><style>.a{fill:#eaf7f0;}</style></defs><path class="a" d="M7.391,12.569,18.414.782A2.418,2.418,0,0,1,20.179,0H30.8a2.588,2.588,0,0,1,2.5,2.67V14.025a2.767,2.767,0,0,1-.731,1.888L21.541,27.7a2.384,2.384,0,0,1-3.532,0L7.391,16.345a2.8,2.8,0,0,1,0-3.776ZM27.469,8.9a2.588,2.588,0,0,0,2.5-2.67,2.5,2.5,0,1,0-4.994,0A2.588,2.588,0,0,0,27.469,8.9ZM.731,16.345,11.351,27.7a2.384,2.384,0,0,0,3.532,0l.019-.02L5.845,18a5.255,5.255,0,0,1,0-7.08L16.055,0H13.52a2.418,2.418,0,0,0-1.766.782L.731,12.569a2.8,2.8,0,0,0,0,3.776Z"/></svg>