<svg xmlns="http://www.w3.org/2000/svg" width="22.911" height="24.098" viewBox="0 0 22.911 24.098"><defs><style>.a{fill:#2fb268;}</style></defs><path class="a" d="M14.83,3.375C8.5,3.375,3.375,8.768,3.375,15.424S8.5,27.473,14.83,27.473,26.286,22.08,26.286,15.424,21.158,3.375,14.83,3.375Zm4.984,12.976h-4.1v4.316a.908.908,0,0,1-.881.927.857.857,0,0,1-.622-.272.948.948,0,0,1-.259-.655V16.351h-4.1a.857.857,0,0,1-.622-.272.949.949,0,0,1-.259-.655.908.908,0,0,1,.881-.927h4.1V10.181a.882.882,0,1,1,1.762,0V14.5h4.1a.928.928,0,0,1,0,1.854Z" transform="translate(-3.375 -3.375)"/></svg>