<svg xmlns="http://www.w3.org/2000/svg" width="23.006" height="18.138" viewBox="0 0 23.006 18.138"><defs><style>.a{fill:rgba(47,178,104,0.59);}</style></defs><path class="a" d="M5.107,8,12.723.5a1.738,1.738,0,0,1,1.22-.5h7.338a1.713,1.713,0,0,1,1.725,1.7V8.931a1.688,1.688,0,0,1-.505,1.2L14.884,17.64a1.743,1.743,0,0,1-2.44,0L5.107,10.409a1.683,1.683,0,0,1,0-2.4ZM18.98,5.668a1.7,1.7,0,1,0-1.725-1.7A1.713,1.713,0,0,0,18.98,5.668ZM.505,10.409,7.843,17.64a1.744,1.744,0,0,0,2.44,0l.013-.013L4.039,11.461a3.156,3.156,0,0,1,0-4.509L11.093,0H9.342a1.738,1.738,0,0,0-1.22.5L.505,8a1.683,1.683,0,0,0,0,2.4Z"/></svg>