<svg xmlns="http://www.w3.org/2000/svg" xmlns:xlink="http://www.w3.org/1999/xlink" width="433" height="226" viewBox="0 0 433 226"><defs><style>.a,.g{fill:#fff;}.a{stroke:#707070;}.b{clip-path:url(#a);}.c{fill:#ff6584;}.d{fill:#f2f2f2;}.e{fill:#3f3d56;}.f{fill:#2f2e41;}.h{fill:#2fb268;}</style><clipPath id="a"><rect class="a" width="433" height="226" transform="translate(875.552 373.624)"/></clipPath></defs><g class="b" transform="translate(-875.552 -373.624)"><g transform="translate(934.443 373.947)"><ellipse class="c" cx="18.009" cy="18.567" rx="18.009" ry="18.567" transform="translate(41.813 11.314)"/><path class="d" d="M187.91,127.712c0,43.809-25.262,59.106-56.425,59.106s-56.424-15.3-56.424-59.106S131.486,28.17,131.486,28.17,187.91,83.9,187.91,127.712Z" transform="translate(-40.464 -28.17)"/><path class="e" d="M131.389,151.945l.578-36.664,24.049-45.359L132.058,109.53l.26-16.486,16.575-32.817L132.386,88.681h0l.467-29.65L150.6,32.9,132.927,54.368,133.219,0l-1.835,71.974L131.535,69,113.49,40.529,131.245,74.7l-1.681,33.114-.05-.879-20.8-29.967,20.74,33.072-.21,4.141-.038.062.017.34L124.954,198.6h5.7l.684-43.395,20.689-32.991Z" transform="translate(-42.423)"/><path class="d" d="M476.349,166.925c0,35.86-20.678,48.381-46.186,48.381s-46.186-12.521-46.186-48.381,46.186-81.479,46.186-81.479S476.349,131.065,476.349,166.925Z" transform="translate(-161.015 -49.441)"/><path class="e" d="M426.757,181.65l.473-30.011,19.686-37.128L427.3,146.931l.213-13.494,13.568-26.862-13.512,23.291h0l.382-24.27,14.528-21.386-14.468,17.569.239-44.5-1.5,58.914.124-2.43L412.105,90.45l14.534,27.975-1.376,27.106-.041-.719-17.028-24.529,16.977,27.071-.172,3.39-.031.051.014.278-3.492,68.769h4.665l.56-35.521,16.934-27Z" transform="translate(-159.294 -21.271)"/><ellipse class="e" cx="156.061" cy="8.133" rx="156.061" ry="8.133" transform="translate(0 189.277)"/><ellipse class="e" cx="26.73" cy="1.393" rx="26.73" ry="1.393" transform="translate(224.403 209.454)"/><ellipse class="e" cx="26.73" cy="1.393" rx="26.73" ry="1.393" transform="translate(127.679 222.891)"/><ellipse class="e" cx="61.067" cy="3.182" rx="61.067" ry="3.182" transform="translate(19.96 209.835)"/><ellipse class="f" cx="22.23" cy="22.918" rx="22.23" ry="22.918" transform="translate(5.089 141.359)"/><path class="f" d="M0,0,6.754,0l0,12.474L0,12.474Z" transform="translate(16.984 182.139) rotate(0.675)"/><path class="f" d="M0,0,6.754,0l0,12.474L0,12.474Z" transform="translate(30.491 182.304) rotate(0.675)"/><path class="f" d="M2.18,0c1.2,0,2.175,2.519,2.174,5.627s-.976,5.628-2.178,5.629S0,8.738,0,5.63.978,0,2.18,0Z" transform="translate(16.813 196.938) rotate(-89.325)"/><path class="f" d="M2.18,0c1.2,0,2.175,2.519,2.174,5.627s-.976,5.628-2.178,5.629S0,8.738,0,5.63.978,0,2.18,0Z" transform="translate(30.323 196.812) rotate(-89.325)"/><ellipse class="g" cx="7.598" cy="7.833" rx="7.598" ry="7.833" transform="translate(20.35 150.65)"/><ellipse class="e" cx="2.533" cy="2.611" rx="2.533" ry="2.611" transform="translate(25.416 155.872)"/><path class="h" d="M27.974,243.982c-1.7-8.309,4.133-16.613,13.029-18.547s17.486,3.233,19.186,11.541S55.974,248.27,47.078,250.2,29.674,252.291,27.974,243.982Z" transform="translate(-21.974 -101.278)"/><path class="h" d="M92.4,288.39c0,15.978-9.213,21.557-20.579,21.557q-.395,0-.789-.009c-.527-.012-1.048-.037-1.563-.074-10.257-.748-18.227-6.614-18.227-21.474,0-15.378,19.062-34.782,20.493-36.218l0,0,.083-.083S92.4,272.412,92.4,288.39Z" transform="translate(-31.169 -111.327)"/><path class="e" d="M78.468,307.5l7.527-10.842-7.545,12.033-.02,1.245c-.527-.012-1.048-.037-1.563-.074l.811-15.986-.006-.124.014-.023.076-1.51L70.2,280.158l7.588,10.93.018.321.613-12.078-6.476-12.464,6.555,10.345.638-25.04,0-.085v.083l-.107,19.746,6.447-7.828L79,273.615l-.171,10.814,6.019-10.378L78.806,286.02l-.1,6.012,8.739-14.445L78.678,294.13Z" transform="translate(-38.566 -111.327)"/><ellipse class="f" cx="22.23" cy="22.918" rx="22.23" ry="22.918" transform="translate(178.261 141.111)"/><path class="f" d="M.219.12,6.99.061,6.885,12.5l-6.772.059Z" transform="matrix(0.956, -0.294, 0.294, 0.956, 195.689, 184.241)"/><path class="f" d="M.219.12,6.99.061,6.885,12.5l-6.772.059Z" transform="matrix(0.956, -0.294, 0.294, 0.956, 208.6, 180.151)"/><path class="f" d="M5.682.052C8.8.025,11.317.975,11.307,2.174S8.762,4.366,5.645,4.393.011,3.47.021,2.271,2.565.079,5.682.052Z" transform="matrix(0.956, -0.294, 0.294, 0.956, 198.842, 194.19)"/><path class="f" d="M5.682.052C8.8.025,11.317.975,11.307,2.174S8.762,4.366,5.645,4.393.011,3.47.021,2.271,2.565.079,5.682.052Z" transform="matrix(0.956, -0.294, 0.294, 0.956, 211.671, 189.822)"/><ellipse class="g" cx="7.598" cy="7.833" rx="7.598" ry="7.833" transform="translate(191.779 150.48)"/><ellipse class="e" cx="2.533" cy="2.611" rx="2.533" ry="2.611" transform="translate(196.844 155.702)"/><path class="h" d="M302.213,252.8c-4.077-7.378-.979-17.121,6.921-21.761s17.609-2.42,21.686,4.959-.673,12.081-8.572,16.721S306.29,260.175,302.213,252.8Z" transform="translate(-128.407 -102.609)"/><path class="h" d="M257.928,285.5c0,14.667-8.457,19.788-18.89,19.788q-.363,0-.724-.008c-.483-.011-.962-.034-1.435-.068-9.416-.687-16.731-6.071-16.731-19.712,0-14.116,17.5-31.929,18.812-33.247l0,0,.076-.076S257.928,270.828,257.928,285.5Z" transform="translate(-97.083 -111.358)"/><path class="e" d="M245.139,303.039l6.909-9.953-6.926,11.046-.018,1.143c-.483-.011-.962-.034-1.435-.068l.745-14.674-.006-.114.013-.021.07-1.386-6.944-11.073,6.965,10.033.016.294.563-11.087-5.945-11.442,6.017,9.5.586-22.986,0-.078v.076l-.1,18.126,5.918-7.186-5.942,8.747-.156,9.927L251,272.333,245.45,283.32l-.087,5.519,8.022-13.26-8.052,15.185Z" transform="translate(-103.873 -111.358)"/><path class="h" d="M377.6,293.466c0,15.978-9.213,21.557-20.579,21.557q-.395,0-.789-.009c-.527-.012-1.048-.037-1.563-.074-10.257-.748-18.227-6.614-18.227-21.474,0-15.378,19.061-34.782,20.493-36.218l0,0,.083-.083S377.6,277.488,377.6,293.466Z" transform="translate(-142.466 -113.212)"/><path class="e" d="M363.668,312.578l7.527-10.842-7.545,12.033-.02,1.245c-.527-.012-1.048-.038-1.564-.074l.811-15.986-.006-.124.014-.023.076-1.51L355.4,285.235l7.588,10.93.018.321.613-12.078-6.476-12.465,6.555,10.345.638-25.04,0-.085v.083l-.107,19.746,6.447-7.828-6.473,9.529-.171,10.814,6.019-10.378L364.007,291.1l-.1,6.012,8.739-14.445-8.772,16.543Z" transform="translate(-149.863 -113.212)"/><path class="f" d="M3.858.048C5.834.025,7.376,5.011,7.3,11.185s-1.735,11.2-3.711,11.22S.074,17.442.147,11.268,1.882.071,3.858.048Z" transform="matrix(0.429, -0.904, 0.904, 0.429, 180.121, 171.393)"/><path class="f" d="M3.831.043C5.81.022,7.36,5,7.295,11.168s-1.723,11.18-3.7,11.2S.064,17.408.13,11.243,1.853.063,3.831.043Z" transform="matrix(0.372, -0.928, 0.928, 0.372, 8.708, 170.664)"/></g></g></svg>