<svg xmlns="http://www.w3.org/2000/svg" xmlns:xlink="http://www.w3.org/1999/xlink" width="706" height="406" viewBox="0 0 706 406"><defs><style>.a{fill:#fff;}.b{clip-path:url(#a);}.c{fill:#e3ecd0;}.d{fill:#a8d29f;}.e{fill:#afcdfb;}.f{fill:#599dad;}.g{fill:#6bb7bf;}.h{fill:#86d1cd;}.i{fill:#efcbab;}.j{fill:#ffebdc;}.k{fill:#efcdaf;}.l{fill:#9abcef;}.m{fill:#e9f3fe;}.n{fill:#d8e8fd;}.o{fill:#bbd5fc;}.p{fill:#d2e4fd;}.q{fill:#c65447;}.r{fill:#ffb27d;}.s{fill:#e58638;}.t{fill:#233862;}.u{fill:#2b478b;}.v{fill:#ee9849;}.w{fill:#ed985f;}.x{fill:#2c3a64;}.y{fill:#1c468a;}</style><clipPath id="a"><rect class="a" width="706" height="406" transform="translate(985.105 230.759)"/></clipPath></defs><g class="b" transform="translate(-985.105 -230.759)"><g transform="translate(990.53 230.956)"><path class="c" d="M671.237,481.68s49.976,11.056,74.579-39.05c31.916-65-12.881-126.756-90.157-131.2-111.453-6.413-49.685-172.464-225.556-127.41-49.464,12.669-157.016-52.727-220.336,58.08-10.767,18.842-42.951,17.919-85.832,50.062-75.645,56.7-48.413,190.128,15.31,190.732S671.237,481.68,671.237,481.68Z" transform="translate(-70.812 -76.925)"/><path class="d" d="M157.162,527s2.323-14.2,31.966-18.027,57.219-34.465,106.095-30.016,89.451,32.352,145.1,23.8,90.493,2.346,102.974,10.943,64.139-2.017,67.954,13.738Z" transform="translate(-77.577 -121.281)"/><path class="e" d="M288.48,138.644s-33.468-1.533-15.72,93.627c0,0,11.939,32.3-3.133,53.118H491.51V138.644Z" transform="translate(-87.029 -71.414)"/><path class="f" d="M314.675,422.555s-15.5-16.875-.957-27.6c0,0,10.626-6,19.288-5.514,0,0-12.275,19.208-8.3,21.12s12.025-22.326,12.025-22.326,24.176-2.2,31.954,1.3c0,0-20.669,15.784-16.314,16.724S379.046,391.7,379.046,391.7s22.5,3.572,21.3,16.383-8.954,16.76-12.366,16.425-23.342-7.44-23.775-4.836,11.565,11.122,19.968,11.52c0,0-15.864,16.326-26.41,11.614s-11.442-12.18-18.016-14.982-12.184-2.794-9.469.063,14.61,5.632,18.367,11.836,7.131,10.388-3.778,8.858-28.636-8.973-29.416-17.513Z" transform="translate(-90.446 -107.935)"/><path class="f" d="M388.691,412.015s-61.121-2.2-74.617,14.114c0,0-2.986,8.341-12.172,15.936l-1.431,3.64s10.6-10.421,14.38-11.051C314.851,434.646,308.924,414.449,388.691,412.015Z" transform="translate(-89.845 -111.509)"/><path class="f" d="M300.716,447s-13.117,9.067-14.03,25.23l2.382.2s4.19-16.727,11.762-23.266S300.716,447,300.716,447Z" transform="translate(-88.665 -116.446)"/><path class="g" d="M247.606,393.454s24.65-12.886,13.167-30.374c0,0-9.207-10.737-19.07-13.5,0,0,5.261,26.079,0,26.692s-3.63-29.459-3.63-29.459-25.975-11.658-36.165-10.737c0,0,16.108,25.464,10.85,24.851s-23.345-26.376-23.345-26.376-26.628-4.6-30.915,10.125,2.641,22.085,6.586,23.019,29.26.615,28.6,3.682-17.754,7.968-27.288,5.22c0,0,10.52,24.236,24.329,23.008s18.084-9.2,26.631-9.817,14.8,1.536,10.52,3.682-18.74.7-25.645,6.182-12.493,8.852.33,11.306,35.838.92,40.44-8.284Z" transform="translate(-77.576 -100.058)"/><path class="g" d="M171.944,351.939s69.041,20.865,76.932,44.18c0,0-.327,10.44,6.578,22.4V423.1s-7.234-15.661-11.188-17.8C244.271,405.309,259.723,385.06,171.944,351.939Z" transform="translate(-78.843 -102.709)"/><path class="g" d="M262.96,429.455s10.647,15.087,4.575,33.454l-2.738-.687s2.65-20.23-2.912-30.4S262.96,429.455,262.96,429.455Z" transform="translate(-86.352 -113.662)"/><path class="h" d="M296.977,369.367s-32.5-16.985-17.336-40.037c0,0,12.136-14.155,25.138-17.8,0,0-6.934,34.377,0,35.185s4.767-38.825,4.767-38.825,34.239-15.367,47.674-14.155c0,0-21.237,33.569-14.3,32.759s30.771-34.781,30.771-34.781,35.1-6.067,40.74,13.347-3.468,29.124-8.668,30.332-38.57.808-37.7,4.852,23.4,10.515,35.97,6.869c0,0-13.868,31.951-32.072,30.332s-23.849-12.133-35.1-12.941-19.5,2.022-13.868,4.852,24.7.929,33.8,8.149,16.47,11.669-.433,14.9-47.238,1.214-53.307-10.919Z" transform="translate(-87.717 -93.741)"/><path class="g" d="M399.592,314.623s-91.011,27.5-101.413,58.247c0,0,.433,13.738-8.668,29.522v6.066s9.537-20.626,14.721-23.455C304.235,384.992,283.881,358.3,399.592,314.623Z" transform="translate(-88.907 -97.234)"/><path class="g" d="M288.7,416.822s-14.035,19.889-6.033,44.1l3.61-.9s-3.5-26.667,3.828-40.078S288.7,416.822,288.7,416.822Z" transform="translate(-88.11 -111.675)"/><path class="i" d="M291.819,520.467c35.167,0,63.67-26.6,63.67-59.415H228.148C228.148,493.866,256.655,520.467,291.819,520.467Z" transform="translate(-83.654 -118.718)"/><path class="j" d="M308.208,520.014a68.3,68.3,0,0,1-7.911.453c-35.164,0-63.667-26.6-63.667-59.415h15.817C252.452,491.368,276.781,516.379,308.208,520.014Z" transform="translate(-84.38 -118.718)"/><path class="i" d="M356.275,532.968H227.189a7.6,7.6,0,0,1,7.855-7.331H348.432a7.6,7.6,0,0,1,7.855,7.33Z" transform="translate(-83.572 -128.194)"/><rect class="k" width="130.883" height="1.822" transform="translate(142.401 342.332)"/><path class="f" d="M549.4,191.263s-11.153-19.639,5.559-27.118c0,0,11.777-3.679,20.115-1.429,0,0-16.488,16.227-13.07,18.9S578.991,162.3,578.991,162.3s24.1,2.819,30.871,7.817c0,0-23.878,11.166-19.853,12.974s29.443-8.734,29.443-8.734,21.113,8.1,16.93,20.348S623.7,209.226,620.456,208.2s-21.022-12.04-22.059-9.586,8.668,13.218,16.783,15.328c0,0-19.318,12.68-28.495,5.921s-8.3-14.227-14.053-18.307-11.23-5.22-9.254-1.879,12.928,8.49,15.137,15.312,4.514,11.6-5.771,7.869-25.83-14.628-24.582-23.109Z" transform="translate(-110.843 -74.839)"/><path class="f" d="M624.188,196.869s-59.11-14.661-76.116-1.514c0,0-4.873,7.528-15.623,13.059l-2.252,3.253s12.784-8,16.629-7.836C546.827,203.837,545.8,182.909,624.188,196.869Z" transform="translate(-109.51 -78.932)"/><path class="f" d="M530.824,211.472S515.9,217.618,511.2,233.213l2.276.681s8.02-15.46,16.947-20.29S530.824,211.472,530.824,211.472Z" transform="translate(-107.884 -81.989)"/><path class="h" d="M467.347,140.854s-33.032-16.073-18.6-39.537c0,0,11.677-14.488,24.558-18.485,0,0-5.836,34.553,1.122,35.168s3.533-38.94,3.533-38.94,33.733-16.312,47.2-15.471c0,0-20.157,34.141-13.249,33.14s29.649-35.619,29.649-35.619,34.9-7.039,41.146,12.207-2.538,29.2-7.7,30.561-38.538,1.89-37.552,5.9,23.728,9.861,36.174,5.874c0,0-12.843,32.319-31.089,31.209s-24.211-11.465-35.5-11.96-19.432,2.563-13.706,5.237,24.732.239,34.048,7.2,16.836,11.207.044,14.911-47.182,2.525-53.633-9.435Z" transform="translate(-102.225 -59.855)"/><path class="g" d="M568.218,83.261s-90.1,30.017-99.517,61.028c0,0,.883,13.738-7.723,29.753l.194,6.064s8.871-20.881,13.98-23.857C475.158,156.249,453.947,130.133,568.218,83.261Z" transform="translate(-103.585 -63.289)"/><path class="g" d="M460.273,188.984s-13.393,20.268-4.622,44.235l3.58-1s-4.355-26.557,2.556-40.169S460.273,188.984,460.273,188.984Z" transform="translate(-102.874 -78.229)"/><rect class="l" width="231.651" height="281.913" transform="translate(215.508 123.551)"/><rect class="m" width="227.759" height="281.913" transform="translate(223.08 123.551)"/><path class="d" d="M734.438,526.055h-45.9c-2.458-1.945,1.7-6.366,6.051-6.663a28.533,28.533,0,0,1,7,.772c.633-7.828,4.24-43.018,17.831-41.6,15.284,1.583,0,15.5-4.319,23.733a188.543,188.543,0,0,0-8.12,18.982c1.242.25,2.526.5,3.828.723,2.026-5.805,9.563-25.329,19.138-24.178,11.256,1.332,6.731,9.16-1.245,13.806-5.853,3.418-13.037,8.273-16.453,10.619a52.069,52.069,0,0,0,8.974.673C729.115,522.722,732.951,524.893,734.438,526.055Z" transform="translate(-123.002 -121.281)"/><path class="m" d="M540.011,194.962H312.258c1.26-16.07-.636-27.75-3.68-36.135-5.839-16.136-15.9-20.186-15.9-20.186h214.8c18.331,0,32.546,10.306,36.415,23.986.144.517.28,1.028.4,1.539C547.961,179.82,540.17,194.676,540.011,194.962Z" transform="translate(-89.178 -71.414)"/><path class="n" d="M541.5,198.433H313.747c1.26-16.07-.636-27.75-3.68-36.135,23.278,3.978,80.924,12.452,142.63,11.026,39.919-.926,71.464-3.418,93.075-5.687C549.45,183.291,541.659,198.147,541.5,198.433Z" transform="translate(-90.667 -74.885)"/><rect class="o" width="125.292" height="5.286" rx="2.466" transform="translate(267.636 183.27)"/><rect class="o" width="78.071" height="5.286" rx="1.945" transform="translate(267.636 192.164)"/><path class="o" d="M349.782,287.963v-10.8h-1.525q-1.39,0-1.39-1.08,0-.78,1.089-1.1a8.565,8.565,0,0,1,1.767-.258q1.216-.088,1.955-.088c.477,0,.78.091.9.275a3.036,3.036,0,0,1,.185,1.374v11.682h1.572c1.019,0,1.528.412,1.528,1.231q0,1.3-1.528,1.3H348a1.834,1.834,0,0,1-1.122-.335,1.1,1.1,0,0,1-.451-.94q0-1.253,1.549-1.253Z" transform="translate(-93.779 -91.368)"/><rect class="p" width="125.292" height="5.286" rx="2.466" transform="translate(267.636 238.946)"/><rect class="p" width="78.071" height="5.286" rx="1.945" transform="translate(267.636 247.842)"/><path class="p" d="M356.1,352.989q0,1.08-1.616,1.08h-6.707q-1.452,0-1.454-1.1a1.334,1.334,0,0,1,.389-.8q.574-.61,1.678-1.833,1.678-1.964,2.8-3.4.389-.473,1.1-1.451a3.35,3.35,0,0,0,.589-1.648,1.629,1.629,0,0,0-.509-1.231,1.835,1.835,0,0,0-1.31-.486,2.1,2.1,0,0,0-1.351.456,2.147,2.147,0,0,0-.612,1.146,12.3,12.3,0,0,1-.368,1.261,1.041,1.041,0,0,1-1,.61,1.185,1.185,0,0,1-.963-.42,1.371,1.371,0,0,1-.327-.953,4.318,4.318,0,0,1,.224-1.355,4.1,4.1,0,0,1,1.74-2.253,5.308,5.308,0,0,1,2.883-.745,4.658,4.658,0,0,1,3.109,1.052,3.561,3.561,0,0,1,1.29,2.827,4.724,4.724,0,0,1-.922,2.64q-.509.745-2.105,2.638-.816.975-2.576,2.83H354.5Q356.1,351.873,356.1,352.989Z" transform="translate(-93.77 -100.937)"/><rect class="p" width="125.292" height="5.286" rx="2.466" transform="translate(267.636 285.392)"/><rect class="p" width="78.071" height="5.286" rx="1.945" transform="translate(267.636 294.286)"/><path class="p" d="M356.077,403.972a3.978,3.978,0,0,1-1.525,3.259,5.628,5.628,0,0,1-3.66,1.17,5.387,5.387,0,0,1-2.927-.761,3.451,3.451,0,0,1-1.926-2.907,1.171,1.171,0,0,1,.336-.838,1.135,1.135,0,0,1,.857-.352,1.316,1.316,0,0,1,1.025.681,13.971,13.971,0,0,0,.9,1.25,2.412,2.412,0,0,0,1.767.681,2.263,2.263,0,0,0,2.09-1.014,2.554,2.554,0,0,0,.294-1.289q0-1.91-2.406-2.124-1.36-.118-1.36-1.074a1.033,1.033,0,0,1,.789-.995c.983-.338,1.472-.514,1.5-.528a1.825,1.825,0,0,0,.789-1.7,1.474,1.474,0,0,0-.456-1.14,1.753,1.753,0,0,0-1.231-.42,2.353,2.353,0,0,0-1.5.429,2.745,2.745,0,0,0-.771,1.269.943.943,0,0,1-.96.681,1,1,0,0,1-.821-.409,1.415,1.415,0,0,1-.324-.9,2.364,2.364,0,0,1,.356-1.212,3.913,3.913,0,0,1,1.8-1.58,5.576,5.576,0,0,1,2.426-.525,4.412,4.412,0,0,1,2.944,1,3.3,3.3,0,0,1,1.178,2.643,3.567,3.567,0,0,1-1.767,3.124A3.55,3.55,0,0,1,356.077,403.972Z" transform="translate(-93.746 -108.826)"/><path class="o" d="M329.356,159.544H404.6a2.281,2.281,0,0,1,2.355,2.2v1.772a2.281,2.281,0,0,1-2.355,2.2H329.356a2.281,2.281,0,0,1-2.355-2.2v-1.772A2.281,2.281,0,0,1,329.356,159.544Z" transform="translate(-27.992 -23.41)"/><path class="o" d="M307.849,170.656H422.332a2.78,2.78,0,0,1,2.871,2.679v.78a2.78,2.78,0,0,1-2.871,2.679H307.849a2.783,2.783,0,0,1-2.874-2.682v-.78a2.78,2.78,0,0,1,2.871-2.679Z" transform="translate(-26.107 -25.04)"/><path class="q" d="M422.473,304.864c-24.812,0-48.357-2.9-65.908-7.058-17.733-4.2-27.285-11.051-27.285-17.133,0-5.512,7.782-10.583,22.512-14.661h0c-14.115,3.91-21.664,9.649-21.664,14.661,0,5.561,9.784,11.067,26.843,15.111,17.492,4.141,40.752,6.418,65.5,6.418s48.01-2.278,65.5-6.418c17.059-4.033,26.843-9.539,26.843-15.111,0-5.891-10.305-13.21-26.887-19.1-18.844-6.7-42.1-9.188-65.455-9.188-43.844,0-61.889,4.775-77.55,10.762h0c15.728-6.012,33.565-12.825,77.55-12.825,23.445,0,46.791,3.709,65.737,10.441,16.936,6.017,27.456,13.647,27.456,19.911,0,6.083-9.766,11.743-27.5,15.936C470.615,300.762,447.284,304.864,422.473,304.864Z" transform="translate(-92.311 -87.8)"/><path class="r" d="M595.033,377.591s-.818,7.418-1.714,8.814-4.711,5.882-6.339,6.762.992-5.9.662-7.223-1.34,2.41-2.061,2.5-.533-3.27-.56-4.489,3.486-4.237,4.711-6.836S595.033,377.591,595.033,377.591Z" transform="translate(-114.203 -106.25)"/><path class="r" d="M488,295.533l-1.825-3.215s.907-5.729-6.772-9.341c0,0-2.812-1.069-4.4,1.071-1.472,1.97,2.785,1.613,2.559,4.984a6.132,6.132,0,0,0,3.872,6.446l1.973,2.135Z" transform="translate(-104.759 -92.552)"/><path class="s" d="M561.235,288.541s-6.6,30.247-42.945,40.133C506.942,331.759,481.17,296.9,481.17,296.9s.9-3.215,6.581-2.473c0,0,25.1,15.5,28.265,17.188,2.8,1.495,21.24-19.211,29.643-22.552A22.853,22.853,0,0,1,561.235,288.541Z" transform="translate(-105.313 -93.245)"/><path class="q" d="M.324.081,6.671.149l.342,34.092L.667,34.173Z" transform="translate(358.04 195.911) rotate(-81.27)"/><path class="r" d="M383.7,223.914l7.331,4.253,1.03-6.259Z" transform="translate(-32.846 -32.56)"/><path class="r" d="M503.365,290.068l-.327,1.981a2.374,2.374,0,0,1-2.726,1.866l-1.56-.223,1.031-6.262,1.7.242a2.13,2.13,0,0,1,1.884,2.4Z" transform="translate(-106.818 -93.244)"/><path class="t" d="M614.654,511.267s4.508,3.846,3.63,6.567-4.949,4.547-5.5,7.88-2.747,5.154-4.729,5.154h-9.422s-1.472-2.346,2.061-3.052,4.846-4.627,4.628-8.265a60.179,60.179,0,0,1,.33-8.487l7.476-1.616Z" transform="translate(-115.343 -125.818)"/><path class="t" d="M553.212,522.635s.807,8.737-1.178,9.647l-25.321-.047s0-2.728,4.066-3.335,11.218-2.83,12.428-7.781S553.212,522.635,553.212,522.635Z" transform="translate(-109.212 -127.257)"/><path class="u" d="M532.3,378.19s1.337,15.317,2.906,33.728c2.135,25,4.711,55.733,4.955,61.544.439,10.108,2.2,26.274,2.2,26.274s4.178,3.847,12.537,2.22c0,0,7.449-23.079,9.578-47.493.032-.4.065-.8.1-1.206,1.981-24.857,5.058-77.205,5.058-77.205Z" transform="translate(-109.691 -106.247)"/><path class="t" d="M532.3,378.192s1.337,15.317,2.906,33.728l29.269,42.553c.032-.4.065-.8.1-1.206,1.982-24.857,5.058-77.2,5.058-77.2Z" transform="translate(-109.691 -106.248)"/><path class="u" d="M538.975,378.969s24.084,55.472,39.919,81.541,20.772,33.344,20.772,33.344,9.071-3.333,9.9-5.608c0,0-6.056-50.326-16.659-62.594-5.992-6.932-13.031-27.75-13.361-35.012s-2.143-21.675-2.143-21.675Z" transform="translate(-110.262 -105.207)"/><path class="r" d="M571.223,277.338s-16.294,7.336-25.689,4.616a21.934,21.934,0,0,1,6.36-4.748c-.327-1.761-.589-3.3-.724-4.583a39.52,39.52,0,0,1-.4-4.671l6.286-4.616,5.962-4.415A21.884,21.884,0,0,0,571.223,277.338Z" transform="translate(-110.823 -89.061)"/><path class="v" d="M578.549,358.235c.038.929-2.093,1.992-3.033,2.39a69.777,69.777,0,0,1-20.849,5.5c-8.706.824-19.005-.995-22.544-.929a1.531,1.531,0,0,1-.975-.365c-.253-.165-.436-9.96-.253-22.274,0-.5,0-1,.035-1.495v-.168c.074-4.814.253-9.858.506-14.905.506-11.089,1.443-21.777,3.033-27.687,1.917-6.97,6.251-11.586,10.19-14.938L547.9,280.7a16.628,16.628,0,0,0,10.117-1.129c3.757-1.692,7.805-3.52,8.456-3.053,4.914,3.352,8.244,10.888,10.011,20.516a99.972,99.972,0,0,1,1.472,18.257c0,2.39-.074,4.849-.218,7.273a214.078,214.078,0,0,0,.506,31.17C578.4,355.677,578.514,357.172,578.549,358.235Z" transform="translate(-109.564 -91.633)"/><path class="s" d="M580.042,361.164c-57.058-.107-10.523-57.777-10.523-57.777l9.245-2.8a156.635,156.635,0,0,1,1.069,19.507c0,2.552-.05,5.179-.156,7.767C579.05,341.912,579.677,354.113,580.042,361.164Z" transform="translate(-111.345 -95.174)"/><path class="w" d="M563.619,264.42s-4.122,7-11.96,8.962a39.522,39.522,0,0,1-.4-4.671l6.286-4.616Z" transform="translate(-111.314 -89.821)"/><path class="r" d="M547.845,265.194s15.543,2.374,17-6.545,4.449-14.617-5.415-16.51-12.366,1.245-13.629,4.121S543.838,264.348,547.845,265.194Z" transform="translate(-110.762 -86.515)"/><path class="x" d="M570.027,240.142c.141-.151.465-.275,1.178-.31a3.105,3.105,0,0,0-1.351-.357,3.432,3.432,0,0,0-2.423-3.006,2.021,2.021,0,0,1,1.054,1.462c-2.008-1.923-6.31-3.325-18.222-2.448-15.7,1.157-10.526,10.537-8.494,11.655s7.149-1.945,10.938-1.665,4.5,5.385,5.791,6.086.777-.55,2.518-1.269,1.9,1.953,1.4,3.7,1.884,4.053,1.884,4.053l2.414-2.426c2.414-2.426,4.69-12.7,3.592-14.889Z" transform="translate(-110.29 -85.583)"/><path class="v" d="M569.116,276.463s9.837,4.347,14.551,11.026c7.317,10.364,15.8,48.136,15.952,51.634s-6.183,28.189-6.183,28.189-6.436-.4-8.1-3.426c0,0,1.286-25.37.471-27s-26.828-34.033-23.9-40.938S569.116,276.463,569.116,276.463Z" transform="translate(-112.205 -91.635)"/><path class="r" d="M486.768,292.783s.533-1.97-.933-2.857-2.812-3.3-3.43-2.967c-1.281.676.7,2.778.339,5.4C482.608,293.277,484.907,295.693,486.768,292.783Z" transform="translate(-105.382 -93.17)"/><path class="d" d="M221.9,504.449s-23.1-55.208-39.289-46.416S221.9,504.449,221.9,504.449Z" transform="translate(-79.503 -118.136)"/><path class="d" d="M209.005,509.048s-30.521-24.612-44.459-20.057S209.005,509.048,209.005,509.048Z" transform="translate(-78.025 -122.734)"/><path class="d" d="M566.779,518.413s7.034-22.821,15.284-20.128S566.779,518.413,566.779,518.413Z" transform="translate(-112.642 -124.148)"/><path class="d" d="M573.792,519.035s17.96-10.99,21.9-7.6S573.792,519.035,573.792,519.035Z" transform="translate(-113.242 -126.015)"/><path class="p" d="M493.428,462.641H353.389a1.654,1.654,0,0,1-1.7-1.591h0a1.654,1.654,0,0,1,1.7-1.588H493.44a1.654,1.654,0,0,1,1.7,1.588h0a1.657,1.657,0,0,1-1.717,1.591Z" transform="translate(-94.229 -118.484)"/><path class="p" d="M493.428,470.1H353.389a1.654,1.654,0,0,1-1.7-1.591h0a1.654,1.654,0,0,1,1.7-1.588H493.44a1.654,1.654,0,0,1,1.7,1.588h0A1.657,1.657,0,0,1,493.428,470.1Z" transform="translate(-94.229 -119.579)"/><path class="p" d="M493.428,478.369H353.389a1.654,1.654,0,0,1-1.7-1.591h0a1.656,1.656,0,0,1,1.7-1.591H493.44a1.656,1.656,0,0,1,1.7,1.591h0A1.657,1.657,0,0,1,493.428,478.369Z" transform="translate(-94.229 -120.792)"/><rect class="p" width="124.962" height="3.182" rx="1.591" transform="translate(257.44 361.449)"/><rect class="y" width="695.875" height="1.382" rx="0.691" transform="translate(0 404.774)"/></g></g></svg>