<svg xmlns="http://www.w3.org/2000/svg" xmlns:xlink="http://www.w3.org/1999/xlink" width="508" height="323" viewBox="0 0 508 323"><defs><style>.a,.d{fill:#fff;}.a{stroke:#707070;}.b{clip-path:url(#a);}.c{fill:#e6e6e6;}.e{fill:#f2f2f2;}.f{fill:#3f3d56;}.g{fill:#2f2e41;}.h{fill:#74a112;}.i{fill:#ffb8b8;}.j{fill:#2fb268;}</style><clipPath id="a"><rect class="a" width="508" height="323" transform="translate(627 217)"/></clipPath></defs><g class="b" transform="translate(-627 -217)"><g transform="translate(627 239.886)"><path class="c" d="M394.2,426.78a4.545,4.545,0,0,1-2.142-.535l-123.85-66.1a4,4,0,0,1-1.651-5.615l97.548-162.875a4.5,4.5,0,0,1,5.948-1.559L493.9,256.2a4,4,0,0,1,1.652,5.615L398.009,424.685a4.307,4.307,0,0,1-2.632,1.943,4.631,4.631,0,0,1-1.174.151Z" transform="translate(-159.452 -163.808)"/><path class="d" d="M0,0,.968.024,4.577,148.347l-.968-.024Z" transform="translate(200.702 35.06) rotate(-60.518)"/><path class="d" d="M0,0,.968.024,4.577,148.347l-.968-.024Z" transform="translate(191.744 50.018) rotate(-60.518)"/><path class="d" d="M0,0,.968.024,4.577,148.347l-.968-.024Z" transform="translate(182.785 64.976) rotate(-60.518)"/><path class="d" d="M0,0,.968.024,4.577,148.347l-.968-.024Z" transform="translate(173.827 79.934) rotate(-60.518)"/><path class="d" d="M0,0,.968.024,4.577,148.347l-.968-.024Z" transform="translate(164.869 94.892) rotate(-60.518)"/><path class="d" d="M0,0,.968.024,4.577,148.347l-.968-.024Z" transform="translate(155.91 109.85) rotate(-60.518)"/><path class="d" d="M0,0,.968.024,4.577,148.347l-.968-.024Z" transform="translate(146.952 124.807) rotate(-60.518)"/><path class="d" d="M0,0,.968.024,4.577,148.347l-.968-.024Z" transform="translate(137.994 139.765) rotate(-60.518)"/><path class="d" d="M0,0,.968.024,4.577,148.347l-.968-.024Z" transform="translate(129.035 154.723) rotate(-60.518)"/><path class="d" d="M0,0,.968.024,4.577,148.347l-.968-.024Z" transform="translate(120.077 169.681) rotate(-60.518)"/><path class="d" d="M0,0,.968.024,4.577,148.347l-.968-.024Z" transform="translate(111.119 184.639) rotate(-60.518)"/><path class="e" d="M381.239,397.252a4.544,4.544,0,0,1-2.142-.535l-123.85-66.1A4,4,0,0,1,253.6,325l97.548-162.875a4.5,4.5,0,0,1,5.948-1.559l123.849,66.1a4,4,0,0,1,1.652,5.615L385.045,395.158a4.307,4.307,0,0,1-2.632,1.943A4.631,4.631,0,0,1,381.239,397.252Z" transform="translate(-158.009 -159.052)"/><path class="d" d="M0,0,.968.024,4.577,148.347l-.968-.024Z" transform="translate(189.181 10.288) rotate(-60.518)"/><path class="d" d="M0,0,.968.024,4.577,148.347l-.968-.024Z" transform="translate(180.223 25.246) rotate(-60.518)"/><path class="d" d="M0,0,.968.024,4.577,148.347l-.968-.024Z" transform="translate(171.264 40.204) rotate(-60.518)"/><path class="d" d="M0,0,.968.024,4.577,148.347l-.968-.024Z" transform="translate(162.306 55.162) rotate(-60.518)"/><path class="d" d="M0,0,.968.024,4.577,148.347l-.968-.024Z" transform="translate(153.348 70.119) rotate(-60.518)"/><path class="d" d="M0,0,.968.024,4.577,148.347l-.968-.024Z" transform="translate(144.389 85.077) rotate(-60.518)"/><path class="d" d="M0,0,.968.024,4.577,148.347l-.968-.024Z" transform="translate(135.431 100.035) rotate(-60.518)"/><path class="d" d="M0,0,.968.024,4.577,148.347l-.968-.024Z" transform="translate(126.473 114.993) rotate(-60.518)"/><path class="d" d="M0,0,.968.024,4.577,148.347l-.968-.024Z" transform="translate(117.514 129.951) rotate(-60.518)"/><path class="d" d="M0,0,.968.024,4.577,148.347l-.968-.024Z" transform="translate(108.556 144.908) rotate(-60.518)"/><path class="d" d="M0,0,.968.024,4.577,148.347l-.968-.024Z" transform="translate(99.597 159.866) rotate(-60.518)"/><path class="f" d="M358.624,158.864H160.693V418.675H358.624a2.609,2.609,0,0,0,2.681-2.531V161.394a2.609,2.609,0,0,0-2.681-2.53ZM171.863,411.5a4.647,4.647,0,1,1,4.915-4.639,4.783,4.783,0,0,1-4.915,4.639Zm0-23.619a4.647,4.647,0,1,1,4.915-4.639,4.783,4.783,0,0,1-4.915,4.639Zm0-23.619a4.647,4.647,0,1,1,4.915-4.639,4.783,4.783,0,0,1-4.915,4.639Zm0-23.619a4.647,4.647,0,1,1,4.915-4.639,4.783,4.783,0,0,1-4.915,4.639Zm0-23.619a4.647,4.647,0,1,1,4.915-4.639,4.783,4.783,0,0,1-4.915,4.639Zm0-23.619a4.647,4.647,0,1,1,4.915-4.639,4.783,4.783,0,0,1-4.915,4.639Zm0-23.619a4.647,4.647,0,1,1,4.915-4.639,4.783,4.783,0,0,1-4.915,4.639Zm0-23.619a4.647,4.647,0,1,1,4.915-4.639,4.783,4.783,0,0,1-4.915,4.639Zm0-23.619a4.647,4.647,0,1,1,4.915-4.639,4.783,4.783,0,0,1-4.915,4.639Zm0-23.619a4.647,4.647,0,1,1,4.915-4.639,4.783,4.783,0,0,1-4.915,4.639Zm0-23.619a4.647,4.647,0,1,1,4.915-4.639,4.783,4.783,0,0,1-4.915,4.639Z" transform="translate(-147.736 -158.864)"/><path class="g" d="M159.071,175.147c-1.326,0-12.957-.059-12.957-2.109s11.631-2.109,12.957-2.109v.844c-6.85,0-11.292.724-12.008,1.265.715.541,5.157,1.265,12.008,1.265,6.835,0,11.273-.721,12-1.262-.348-.232-1.767-.717-5.575-1.028l.077-.84c6.453.526,6.453,1.5,6.453,1.865C172.028,175.088,160.4,175.147,159.071,175.147Z" transform="translate(-146.114 -160.807)"/><path class="g" d="M159.071,202.8c-1.326,0-12.957-.059-12.957-2.109s11.631-2.109,12.957-2.109v.844c-6.85,0-11.292.724-12.008,1.265.715.541,5.157,1.265,12.008,1.265,6.835,0,11.273-.721,12-1.262-.348-.232-1.767-.717-5.575-1.028l.077-.84c6.453.526,6.453,1.5,6.453,1.865C172.028,202.738,160.4,202.8,159.071,202.8Z" transform="translate(-146.114 -165.259)"/><path class="g" d="M159.071,230.95c-1.326,0-12.957-.059-12.957-2.109s11.631-2.109,12.957-2.109v.844c-6.85,0-11.292.724-12.008,1.265.715.541,5.157,1.265,12.008,1.265,6.835,0,11.273-.721,12-1.262-.348-.232-1.767-.717-5.575-1.028l.077-.84c6.453.526,6.453,1.5,6.453,1.865C172.028,230.89,160.4,230.95,159.071,230.95Z" transform="translate(-146.114 -169.793)"/><path class="g" d="M159.071,259.1c-1.326,0-12.957-.059-12.957-2.109s11.631-2.109,12.957-2.109v.844c-6.85,0-11.292.724-12.008,1.265.715.541,5.157,1.265,12.008,1.265,6.835,0,11.273-.721,12-1.262-.348-.232-1.767-.717-5.575-1.028l.077-.84c6.453.526,6.453,1.5,6.453,1.865C172.028,259.043,160.4,259.1,159.071,259.1Z" transform="translate(-146.114 -174.327)"/><path class="g" d="M159.071,287.255c-1.326,0-12.957-.059-12.957-2.109s11.631-2.109,12.957-2.109v.844c-6.85,0-11.292.724-12.008,1.265.715.541,5.157,1.265,12.008,1.265,6.835,0,11.273-.721,12-1.262-.348-.232-1.767-.717-5.575-1.028l.077-.84c6.453.526,6.453,1.5,6.453,1.865C172.028,287.2,160.4,287.255,159.071,287.255Z" transform="translate(-146.114 -178.861)"/><path class="g" d="M159.071,315.408c-1.326,0-12.957-.059-12.957-2.109s11.631-2.109,12.957-2.109v.844c-6.85,0-11.292.724-12.008,1.265.715.541,5.157,1.265,12.008,1.265,6.835,0,11.273-.721,12-1.262-.348-.232-1.767-.717-5.575-1.028l.077-.84c6.453.526,6.453,1.5,6.453,1.865C172.028,315.349,160.4,315.408,159.071,315.408Z" transform="translate(-146.114 -183.394)"/><path class="g" d="M159.071,343.561c-1.326,0-12.957-.059-12.957-2.109s11.631-2.109,12.957-2.109v.844c-6.85,0-11.292.724-12.008,1.265.715.541,5.157,1.265,12.008,1.265,6.835,0,11.273-.721,12-1.262-.348-.232-1.767-.717-5.575-1.028l.077-.84c6.453.526,6.453,1.5,6.453,1.865C172.028,343.5,160.4,343.561,159.071,343.561Z" transform="translate(-146.114 -187.928)"/><path class="g" d="M159.071,371.714c-1.326,0-12.957-.059-12.957-2.109s11.631-2.109,12.957-2.109v.844c-6.85,0-11.292.724-12.008,1.265.715.541,5.157,1.265,12.008,1.265,6.835,0,11.273-.721,12-1.262-.348-.232-1.767-.717-5.575-1.028l.077-.84c6.453.526,6.453,1.5,6.453,1.865C172.028,371.655,160.4,371.714,159.071,371.714Z" transform="translate(-146.114 -192.462)"/><path class="g" d="M159.071,399.867c-1.326,0-12.957-.059-12.957-2.109s11.631-2.109,12.957-2.109v.844c-6.85,0-11.292.724-12.008,1.265.715.541,5.157,1.265,12.008,1.265,6.835,0,11.273-.721,12-1.262-.348-.232-1.767-.717-5.575-1.028l.077-.84c6.453.526,6.453,1.5,6.453,1.865C172.028,399.808,160.4,399.867,159.071,399.867Z" transform="translate(-146.114 -196.995)"/><path class="g" d="M159.071,428.02c-1.326,0-12.957-.059-12.957-2.109s11.631-2.109,12.957-2.109v.844c-6.85,0-11.292.724-12.008,1.265.715.541,5.157,1.265,12.008,1.265,6.835,0,11.273-.721,12-1.262-.348-.232-1.767-.717-5.575-1.028l.077-.84c6.453.526,6.453,1.5,6.453,1.865C172.028,427.961,160.4,428.02,159.071,428.02Z" transform="translate(-146.114 -201.529)"/><path class="g" d="M159.071,456.173c-1.326,0-12.957-.059-12.957-2.109s11.631-2.109,12.957-2.109v.844c-6.85,0-11.292.724-12.008,1.265.715.541,5.157,1.265,12.008,1.265,6.835,0,11.273-.721,12-1.262-.348-.232-1.767-.717-5.575-1.028l.077-.84c6.453.526,6.453,1.5,6.453,1.865C172.028,456.114,160.4,456.173,159.071,456.173Z" transform="translate(-146.114 -206.063)"/><path class="d" d="M325.236,269.241h-98.3a2.83,2.83,0,0,1-2.9-2.741V230.228a2.83,2.83,0,0,1,2.9-2.742h98.3a2.83,2.83,0,0,1,2.9,2.742V266.5A2.83,2.83,0,0,1,325.236,269.241Z" transform="translate(-154.783 -169.915)"/><path class="h" d="M293.27,241.507H268.249a2.112,2.112,0,1,1,0-4.218h25.021a2.112,2.112,0,1,1,0,4.218Z" transform="translate(-159.454 -171.493)"/><path class="h" d="M305.387,254.076H252.664a2.112,2.112,0,1,1,0-4.218h52.723a2.112,2.112,0,1,1,0,4.218Z" transform="translate(-157.72 -173.517)"/><path class="h" d="M305.387,266.644H252.664a2.112,2.112,0,1,1,0-4.218h52.723a2.112,2.112,0,1,1,0,4.218Z" transform="translate(-157.72 -175.541)"/><path class="g" d="M598.29,255.929a7.459,7.459,0,0,0,6.68-3.966,6.679,6.679,0,0,0-.893-7.4c-3.65-4.306-11.64-3.646-14.837-8.262-2.709-3.911-.207-9.283,3.4-12.483,7.063-6.265,18.368-7.8,27.019-3.679s14.046,13.629,12.894,22.713c-.439,3.46-1.455,7.659,1.389,9.88,2.524,1.971,6.256.852,9.427.076a35.264,35.264,0,0,1,27.624,4.855c6.736,4.557,11.646,11.918,11.649,19.741S677,293.111,668.924,294.863c-7.917,1.717-16.078-2.457-21.679-8.012s-9.446-12.464-14.55-18.429-12.167-11.22-20.289-11.359c-4.706-.08-9.858,1.483-13.852-.867" transform="translate(-195.288 -168.361)"/><ellipse class="i" cx="15.721" cy="14.84" rx="15.721" ry="14.84" transform="translate(390.773 61.003)"/><path class="i" d="M565.832,361.055a5.787,5.787,0,0,1,.748-5.092,6.491,6.491,0,0,1,4.616-2.728l4.8-21.11,8.328,8.006-5.837,18.819a6.2,6.2,0,0,1-5.338,6.36,6.5,6.5,0,0,1-7.319-4.254Z" transform="translate(-192.779 -186.766)"/><path class="i" d="M506.734,303.072l-7.712,1.366-23.25-72.088,16.5-2.016Z" transform="translate(-52.933 -37.093)"/><path class="g" d="M9.51.1l15.1.154.1,9.013L.1,9.013h0A9.041,9.041,0,0,1,9.51.1Z" transform="translate(430.799 267.9) rotate(-10.626)"/><path class="i" d="M452.614,308.847h-7.847l-1.173-66.757h16.7Z" transform="translate(-49.353 -38.986)"/><path class="g" d="M437.414,319.138h15.134v8.995H427.886A9.273,9.273,0,0,1,437.414,319.138Z" transform="translate(-47.606 -51.394)"/><path class="j" d="M584.72,389.333l.721-32.626c-.055-.459-5.724-49.888-7.836-62.518-2.146-12.834,8.946-19.415,9.058-19.48.5-.192.946-.355,1.394-.511h0a31.053,31.053,0,0,1,31.068,5.96,27.957,27.957,0,0,1,8.669,29.418l-3.913,12.788c20.046,34.21,24.159,48.932,24.2,49.077l.012.044,0,.046c-.719,13.568-60.475,17.614-63.019,17.779Z" transform="translate(-194.09 -177.145)"/><path class="j" d="M432.591,132.238,419.049,182.7l24.233,2.691Z" transform="translate(-46.623 -21.296)"/><path class="i" d="M617.221,336.726a6.1,6.1,0,0,1,3.137-4.2,6.776,6.776,0,0,1,5.427-.428L640.3,315.41l3.515,10.718-14.324,14.2a6.6,6.6,0,0,1-7.832,3.343A6.089,6.089,0,0,1,617.221,336.726Z" transform="translate(-198.516 -184.074)"/><path class="j" d="M634.409,330.851l-12.635-7.717,12.026-12.02-32.608-9.369,8.389-23.071,10.32,1.392,26.234,18.344a14.46,14.46,0,0,1,3.412,20.765l-.057.057Z" transform="translate(-196.745 -178.158)"/><path class="g" d="M587.567,237.424a53.635,53.635,0,0,0,22.285,6.932L607.5,241.7a18.162,18.162,0,0,0,5.332,1,5.981,5.981,0,0,0,4.76-2.1,4.879,4.879,0,0,0,.364-4.737,9.834,9.834,0,0,0-3.237-3.82,20.185,20.185,0,0,0-17.935-3.026,11.612,11.612,0,0,0-5.357,3.244c-1.354,1.577-4.307,2.995-3.614,4.916Z" transform="translate(-195.229 -170.016)"/><path class="f" d="M692.779,489.031H498.012a.721.721,0,1,1,0-1.439H692.779a.721.721,0,1,1,0,1.439Z" transform="translate(-185.18 -211.802)"/></g></g></svg>