<svg xmlns="http://www.w3.org/2000/svg" xmlns:xlink="http://www.w3.org/1999/xlink" width="22" height="22" viewBox="0 0 22 22"><defs><style>.a,.c{fill:rgba(47,178,104,0.59);}.a{stroke:#707070;}.b{clip-path:url(#a);}</style><clipPath id="a"><rect class="a" width="22" height="22" transform="translate(320 827)"/></clipPath></defs><g class="b" transform="translate(-320 -827)"><g transform="translate(322.572 827)"><path class="c" d="M8.074,5.144a.912.912,0,0,1-.887-.935V.935a.888.888,0,1,1,1.774,0V4.209A.912.912,0,0,1,8.074,5.144Z" transform="translate(-3.862)"/><path class="c" d="M14.012,5.144a.912.912,0,0,1-.887-.935V.935a.888.888,0,1,1,1.774,0V4.209A.912.912,0,0,1,14.012,5.144Z" transform="translate(-5.587)"/><path class="c" d="M19.949,5.144a.912.912,0,0,1-.887-.935V.935a.888.888,0,1,1,1.774,0V4.209A.912.912,0,0,1,19.949,5.144Z" transform="translate(-7.312)"/><path class="c" d="M16.911,2.813H4.939A2.51,2.51,0,0,0,2.5,5.385v15.2a2.51,2.51,0,0,0,2.439,2.572H16.911a2.51,2.51,0,0,0,2.439-2.572V5.385A2.51,2.51,0,0,0,16.911,2.813ZM6.934,8.191h4.434a.937.937,0,0,1,0,1.871H6.934a.937.937,0,0,1,0-1.871ZM15.8,17.544H6.934a.937.937,0,0,1,0-1.871H15.8a.937.937,0,0,1,0,1.871Zm0-3.741H6.934a.937.937,0,0,1,0-1.871H15.8a.937.937,0,0,1,0,1.871Z" transform="translate(-2.5 -0.708)"/></g></g></svg>