<svg xmlns="http://www.w3.org/2000/svg" xmlns:xlink="http://www.w3.org/1999/xlink" width="38" height="34" viewBox="0 0 38 34"><defs><style>.a,.c{fill:#707070;}.a{stroke:#707070;}.b{clip-path:url(#a);}</style><clipPath id="a"><rect class="a" width="38" height="34" transform="translate(141 40)"/></clipPath></defs><g class="b" transform="translate(-141 -40)"><g transform="translate(141 43.55)"><g transform="translate(0 0)"><path class="c" d="M15.2,30.01h0L6.563,21.08,15.2,12.149a2.631,2.631,0,0,0,0-3.624,2.358,2.358,0,0,0-3.411,0L.245,20.461a.9.9,0,0,0,0,1.237L11.789,33.634a2.359,2.359,0,0,0,3.412,0,2.633,2.633,0,0,0,0-3.624ZM14.1,32.4a.844.844,0,0,1-1.206,0L1.945,21.08,12.893,9.761a.843.843,0,0,1,1.205,0,.826.826,0,0,1,0,1.15L4.863,20.461a.9.9,0,0,0,0,1.237L14.1,31.246a.826.826,0,0,1,0,1.152Z" transform="translate(0 -7.796)"/></g><g transform="translate(11.147 0)"><path class="c" d="M28.034,30.009,19.4,21.08l8.637-8.931a2.631,2.631,0,0,0,0-3.624,2.359,2.359,0,0,0-3.412,0L13.078,20.462a.9.9,0,0,0,0,1.237L24.622,33.634a2.36,2.36,0,0,0,3.412,0,2.633,2.633,0,0,0,0-3.624Zm-1.1,2.388a.845.845,0,0,1-1.207,0L14.778,21.08,25.724,9.762a.845.845,0,0,1,1.207,0,.826.826,0,0,1,0,1.15L17.7,20.461a.9.9,0,0,0,0,1.237l9.235,9.548a.826.826,0,0,1,0,1.152Z" transform="translate(-12.834 -7.796)"/></g><g transform="translate(22.293 0.001)"><path class="c" d="M40.868,30.01h0L32.23,21.08l8.637-8.931a2.631,2.631,0,0,0,0-3.624,2.361,2.361,0,0,0-3.412,0L25.912,20.462a.9.9,0,0,0,0,1.237L37.455,33.635a2.36,2.36,0,0,0,3.412,0,2.633,2.633,0,0,0,0-3.624Zm-1.1,2.387a.835.835,0,0,1-1.207,0L27.612,21.08,38.557,9.762a.835.835,0,0,1,1.207,0,.826.826,0,0,1,0,1.15l-9.235,9.549a.9.9,0,0,0,0,1.237l9.235,9.548a.826.826,0,0,1,0,1.152Z" transform="translate(-25.667 -7.797)"/></g></g></g></svg>