<svg xmlns="http://www.w3.org/2000/svg" xmlns:xlink="http://www.w3.org/1999/xlink" width="34" height="34" viewBox="0 0 34 34"><defs><style>.a,.c{fill:#b2b4ad;}.a{stroke:#707070;}.b{clip-path:url(#a);}</style><clipPath id="a"><rect class="a" width="34" height="34" transform="translate(38 418)"/></clipPath></defs><g class="b" transform="translate(-38 -418)"><g transform="translate(38 421.15)"><g transform="translate(0 3.6)"><path class="c" d="M27.907,11.037H15.534L13.073,8.1a.42.42,0,0,0-.336-.152H2.754A2.78,2.78,0,0,0,0,10.733V28.8a2.78,2.78,0,0,0,2.771,2.783H27.907A2.78,2.78,0,0,0,30.678,28.8V13.819A2.78,2.78,0,0,0,27.907,11.037Z" transform="translate(0 -7.946)"/></g><g transform="translate(3.648 0)"><path class="c" d="M31.936,7.065H19.559L17.1,4.127a.42.42,0,0,0-.336-.152H6.782a2.775,2.775,0,0,0-2.74,2.4h9.1a1.608,1.608,0,0,1,1.237.577l2.1,2.509H28.3a3.976,3.976,0,0,1,3.961,3.978V27.587a2.778,2.778,0,0,0,2.428-2.759V9.844A2.78,2.78,0,0,0,31.936,7.065Z" transform="translate(-4.042 -3.975)"/></g></g></g></svg>