<svg xmlns="http://www.w3.org/2000/svg" xmlns:xlink="http://www.w3.org/1999/xlink" width="33.296" height="34.256" viewBox="0 0 33.296 34.256"><defs><style>.a,.c{fill:#b2b4ad;}.a{stroke:#707070;}.b{clip-path:url(#a);}</style><clipPath id="a"><rect class="a" width="33.296" height="34.256" transform="translate(38 342)"/></clipPath></defs><g class="b" transform="translate(-38 -342)"><g transform="translate(41.815 342)"><path class="c" d="M10.215,7.85A1.391,1.391,0,0,1,8.865,6.423v-5a1.353,1.353,0,1,1,2.7,0v5A1.391,1.391,0,0,1,10.215,7.85Z" transform="translate(-3.799)"/><path class="c" d="M17.538,7.85a1.391,1.391,0,0,1-1.351-1.427v-5a1.353,1.353,0,1,1,2.7,0v5A1.391,1.391,0,0,1,17.538,7.85Z" transform="translate(-4.706)"/><path class="c" d="M24.861,7.85A1.391,1.391,0,0,1,23.51,6.423v-5a1.353,1.353,0,1,1,2.7,0v5A1.391,1.391,0,0,1,24.861,7.85Z" transform="translate(-5.612)"/><path class="c" d="M25.034,3.469H6.8A3.827,3.827,0,0,0,3.083,7.394V30.588A3.827,3.827,0,0,0,6.8,34.513H25.034a3.827,3.827,0,0,0,3.715-3.925V7.394A3.827,3.827,0,0,0,25.034,3.469Zm-15.2,8.207h6.754a1.429,1.429,0,0,1,0,2.855H9.837a1.429,1.429,0,0,1,0-2.855ZM23.346,25.949H9.837a1.429,1.429,0,0,1,0-2.855H23.346a1.429,1.429,0,0,1,0,2.855Zm0-5.709H9.837a1.429,1.429,0,0,1,0-2.855H23.346a1.429,1.429,0,0,1,0,2.855Z" transform="translate(-3.083 -0.257)"/></g></g></svg>