<svg xmlns="http://www.w3.org/2000/svg" xmlns:xlink="http://www.w3.org/1999/xlink" width="38" height="37" viewBox="0 0 38 37"><defs><style>.a,.c{fill:#eaf7f0;}.a{stroke:#707070;}.b{clip-path:url(#a);}</style><clipPath id="a"><rect class="a" width="38" height="37" transform="translate(38 342)"/></clipPath></defs><g class="b" transform="translate(-38 -342)"><g transform="translate(39.271 342)"><path class="c" d="M10.406,8.479A1.542,1.542,0,0,1,8.865,6.938v-5.4a1.542,1.542,0,1,1,3.083,0v5.4A1.542,1.542,0,0,1,10.406,8.479Z"/><path class="c" d="M17.729,8.479a1.542,1.542,0,0,1-1.542-1.542v-5.4a1.542,1.542,0,1,1,3.083,0v5.4A1.542,1.542,0,0,1,17.729,8.479Z"/><path class="c" d="M25.052,8.479A1.542,1.542,0,0,1,23.51,6.938v-5.4a1.542,1.542,0,0,1,3.083,0v5.4A1.542,1.542,0,0,1,25.052,8.479Z"/><path class="c" d="M28.135,3.469H7.323a4.243,4.243,0,0,0-4.24,4.24V32.76A4.243,4.243,0,0,0,7.323,37H28.135a4.243,4.243,0,0,0,4.24-4.24V7.708A4.243,4.243,0,0,0,28.135,3.469ZM10.792,12.333H18.5a1.542,1.542,0,0,1,0,3.083H10.792a1.542,1.542,0,0,1,0-3.083ZM26.208,27.75H10.792a1.542,1.542,0,0,1,0-3.083H26.208a1.542,1.542,0,1,1,0,3.083Zm0-6.167H10.792a1.542,1.542,0,1,1,0-3.083H26.208a1.542,1.542,0,1,1,0,3.083Z"/></g></g></svg>