<svg xmlns="http://www.w3.org/2000/svg" xmlns:xlink="http://www.w3.org/1999/xlink" width="21.472" height="24.039" viewBox="0 0 21.472 24.039"><defs><style>.a,.c{fill:rgba(47,178,104,0.59);}.a{stroke:#707070;}.b{clip-path:url(#a);}</style><clipPath id="a"><rect class="a" width="21.472" height="24.039" transform="translate(38 418)"/></clipPath></defs><g class="b" transform="translate(-38 -418)"><g transform="translate(38 420.227)"><g transform="translate(0 2.545)"><path class="c" d="M17.625,10.131H9.81L8.256,8.054a.254.254,0,0,0-.212-.107h-6.3A1.872,1.872,0,0,0,0,9.916V22.693A1.87,1.87,0,0,0,1.75,24.66H17.625a1.87,1.87,0,0,0,1.75-1.967V12.1A1.87,1.87,0,0,0,17.625,10.131Z" transform="translate(0 -7.946)"/></g><g transform="translate(2.304 0)"><path class="c" d="M21.658,6.16H13.842L12.288,4.083a.254.254,0,0,0-.212-.107h-6.3a1.832,1.832,0,0,0-1.731,1.7H9.79a.976.976,0,0,1,.781.408L11.9,7.857h7.464a2.675,2.675,0,0,1,2.5,2.813v10A1.9,1.9,0,0,0,23.4,18.719V8.125A1.872,1.872,0,0,0,21.658,6.16Z" transform="translate(-4.042 -3.975)"/></g></g></g></svg>