<svg xmlns="http://www.w3.org/2000/svg" xmlns:xlink="http://www.w3.org/1999/xlink" width="38" height="34" viewBox="0 0 38 34"><defs><style>.a,.c{fill:#010100;}.a{stroke:#707070;}.b{clip-path:url(#a);}</style><clipPath id="a"><rect class="a" width="38" height="34"/></clipPath></defs><g class="b"><g transform="translate(-0.216 3.55)"><g transform="translate(22.293 0)"><path class="c" d="M.722,30.01h0l8.637-8.93L.723,12.149a2.631,2.631,0,0,1,0-3.624,2.358,2.358,0,0,1,3.411,0L15.679,20.461a.9.9,0,0,1,0,1.237L4.135,33.634a2.359,2.359,0,0,1-3.412,0,2.633,2.633,0,0,1,0-3.624Zm1.1,2.387a.844.844,0,0,0,1.206,0L13.978,21.08,3.031,9.761a.843.843,0,0,0-1.205,0,.826.826,0,0,0,0,1.15l9.235,9.549a.9.9,0,0,1,0,1.237L1.827,31.246a.826.826,0,0,0,0,1.152Z" transform="translate(0 -7.796)"/></g><g transform="translate(11.146 0)"><path class="c" d="M13.557,30.009l8.637-8.93-8.637-8.931a2.631,2.631,0,0,1,0-3.624,2.359,2.359,0,0,1,3.412,0L28.512,20.462a.9.9,0,0,1,0,1.237L16.968,33.634a2.36,2.36,0,0,1-3.412,0,2.633,2.633,0,0,1,0-3.624Zm1.1,2.388a.845.845,0,0,0,1.207,0L26.812,21.08,15.866,9.762a.845.845,0,0,0-1.207,0,.826.826,0,0,0,0,1.15l9.235,9.549a.9.9,0,0,1,0,1.237L14.66,31.246a.826.826,0,0,0,0,1.152Z" transform="translate(-12.834 -7.796)"/></g><g transform="translate(0 0.001)"><path class="c" d="M26.389,30.01h0l8.637-8.93L26.39,12.149a2.631,2.631,0,0,1,0-3.624,2.361,2.361,0,0,1,3.412,0L41.345,20.462a.9.9,0,0,1,0,1.237L29.8,33.635a2.36,2.36,0,0,1-3.412,0,2.633,2.633,0,0,1,0-3.624Zm1.1,2.387a.835.835,0,0,0,1.207,0L39.645,21.08,28.7,9.762a.835.835,0,0,0-1.207,0,.826.826,0,0,0,0,1.15l9.235,9.549a.9.9,0,0,1,0,1.237l-9.235,9.548a.826.826,0,0,0,0,1.152Z" transform="translate(-25.667 -7.797)"/></g></g></g></svg>