<svg xmlns="http://www.w3.org/2000/svg" width="71.969" height="63.099" viewBox="0 0 71.969 63.099"><defs><style>.a{fill:#3576a4;}</style></defs><path class="a" d="M876.341,465.305a3.412,3.412,0,0,0-.337-1.846l-.66-.363-1.35.237a13.594,13.594,0,0,1-3.069.363,16.782,16.782,0,0,1-11.078-3.488q-4.189-3.5-4.189-10.51c0-4.987,1.534-8.806,4.6-11.426a16.583,16.583,0,0,1,11.155-3.929,16.837,16.837,0,0,1,11.416,4.434,15.65,15.65,0,0,1,5.033,12.4q0,11.047-7.135,23.262a70.439,70.439,0,0,1-17.246,20.184c-2.578,1.878-4.2,2.809-4.864,2.809-1.013-.489-1.534-.931-1.534-1.341a3.73,3.73,0,0,1,1.35-2.336,80.2,80.2,0,0,0,13.809-15.907A24.883,24.883,0,0,0,876.341,465.305Zm-39.74,0a3.41,3.41,0,0,0-.338-1.846l-.675-.363-1.335.237a13.817,13.817,0,0,1-3.069.363,16.736,16.736,0,0,1-11.063-3.488q-4.2-3.5-4.2-10.51c0-4.987,1.534-8.806,4.6-11.426a17.315,17.315,0,0,1,22.555.505,15.6,15.6,0,0,1,5.033,12.4q0,11.047-7.135,23.262a69.953,69.953,0,0,1-17.246,20.184c-2.562,1.878-4.189,2.809-4.864,2.809-1.013-.489-1.534-.931-1.534-1.341a3.683,3.683,0,0,1,1.335-2.336,79.686,79.686,0,0,0,13.809-15.907,24.76,24.76,0,0,0,4.173-12.546Z" transform="translate(-815.918 -434.336)"/></svg>